<?xml version="1.0" encoding="UTF-8"?><svg id="Layer_2" xmlns="http://www.w3.org/2000/svg" viewBox="0 0 418.94 400.75"><defs><style>.cls-1{fill:#111;fill-rule:evenodd;}</style></defs><path class="cls-1" d="m417.5,175.5c-.02-.23-.07-.46-.16-.67,1.67-4.42-1.38-7.96-2.22-11.91-.04-4.32-1.06-8.46-2.23-12.58-.72-1.48-.63-3.32-2.01-4.51-1.46-1.88-1.14-4.87-3.78-6.01l-.16-3.63c.05-2.11-1.19-3.42-2.79-4.51-.26-.22-.49-.5-.78-.63-3.75-1.68-7.88-.16-11.75-1.47-5.03-1.69-10.1-.66-15.09.64-.46.05-.92.1-1.39.15-.81-.02-1.75-.57-2.28.55-1.05.93-3.12.84-2.97,2.96-1.62,3.42-.35,6.58.9,9.73-.16.49.13.67.53.78.35,1.95,1.61,3.47,2.44,5.19.25,1.23.49,2.46.74,3.7.04,2.35-.29,4.62-1.49,6.7-.09.22-.15.44-.18.68-2.63,1.75-4.91-.02-7.29-.72-.51-.51-1.02-1.03-1.53-1.54-.25-.25-.49-.49-.74-.74-.23-.23-.47-.46-.7-.69-.5-.5-.99-.99-1.49-1.49-1.49-1.73-2.97-3.46-4.46-5.19-.5-.49-.99-.99-1.49-1.48-.99-1.68-2.06-.15-3.1-.08-.51-.7-1.02-1.39-1.53-2.09.51-.73.72-1.45-.06-2.13.02-.77.04-1.54.07-2.31h0s0,0,0,0c-.42-1.38-1.79-1.64-2.78-2.35h0c-.32-.7-.63-1.39-.95-2.09.24-.76.47-1.53.71-2.29.04-1.02,1.39-2.38-.73-2.84h0s0,0,0,0c-1.35-.95-2.77-1.69-4.49-1.59-.31-.64-.95-.66-1.52-.8,0,0,0,0,0,0,0,0,0,0,0,0-1.14-2.56-2.97-2.71-5.19-1.5-.14-.05-.28-.05-.42.02,0,0,0,0,0,0-.52-.88-1.1-1.67-2.32-1.32h0c-.75-.05-1.51-.09-2.26-.14-.22-.72-.44-1.43-.66-2.15,0,0,0,0,0,0h0c.45-.27.89-.54,1.34-.81,1.36-.16,2.8,1.75,4.4-.36-1.63-.39-3.02-.72-4.4-1.04-.99.26-2.44-1.88-3,.58-.45,0-.89-.01-1.34-.02,0,0,0,0,0,0-.19-.72.13-1.63-.77-2.08-.31-.74-.78-1.31-1.62-1.46-2.74-1.63-5.76-2.45-8.88-2.94-1.45-.56-2.9-1.12-4.35-1.68-1.29-.65-2.11-2.07-3.69-2.22-1.94-1.49-3.41-3.64-5.99-4.22-.29-.28-.59-.55-.88-.83-2.16-2.06-4.29-4.14-6.48-6.17-1.01-.94-1.1-2.89-3.05-2.79-1.91-2.84-4.62-4.77-7.45-6.58-.52,0-1.04,0-1.55,0-.45-.3-.9-.61-1.35-.91h0c-.33-1.46-.78-2.86-2.18-3.7.21-1.95-1.5-3.27-1.68-5.1-.65-3.59-2.51-6.5-5.02-9.06-4.14-2.83-6.8-6.52-6.88-11.73h0c.51-1.02,1.69-1.7,1.57-3.05.88-.69-.21-1.44.05-2.15,0,0,0,0,0,0h0s0,0,0,0l-.06-.25c.81-2.61-.64-4.79-4.38-6.56-.6-1.29-1.77-1.43-2.99-1.48-1.21-2.13-3.71-2.69-5.29-4.38-.8-1.39-1.76-2.61-3.37-3.62-.44,2,1.51,3.41.48,5.07-.03.22-.05.45-.06.67-1.72-.94-2.3-.16-2.27,1.53-1.73,1.36-3.14.85-4.38-.74-.19-1.13-.34-2.29-1.73-2.65-.94,1.36.39,2.34.3,3.48-.02.81-.21,1.66.65,2.21.02.49.04.98.06,1.48-.27.21-.53.43-.8.64-1.8-.37-4.01-1.32-3.02,2.18-.23.28-.47.56-.7.85-2.73-.34-1.68-3.17-2.94-4.48.59-2.3-1.73-4.29-.72-6.64.2-.47.41-.94.61-1.41,0,0,0,0,0,0,.31-.3.62-.61.92-.91.91.04,1.45-.38,1.32-1.3-.11-.74-.38-1.52-1.43-.9,0,0,0,0,0,0-.72.02-1.44.05-2.16.07h0c-.85-.47-1.66-.67-2.67-.27-1.23.49-2.37.35-2.59-1.33,0,0,0,0,0,0-.25-.47-.49-.94-.74-1.41.56-.22.55-.46.03-.72.62-1.01.33-1.74-.69-2.25-.89-2-2.4-3.54-3.77-5.18h0c0-.99-.02-1.99-.03-2.98.22-.69.44-1.37.65-2.06,0,0,0,0,0,0,.14-1.1.12-2.31,1.68-2.44,0,0,0,0,0,0,0,0,0,0,0,0,.74.03,1.23,1.72,2.03.55,1.42-2.08-.8-7.81-3.23-8.73.53,2.23,2.14,4.39.4,6.74-1.27-1.14-2.88-1.24-4.46-1.45-.74,0-1.48-.02-2.22-.03-1.19-.79-2.44-1.51-3.18-2.84-.68-1.24.05-1.49,1.01-1.66h0c.7-.14,2,.48,1.54-1.15-.39-1.39-.57-2.87-1.58-4.02h0c-.22-1.24.46-2.67-.76-3.7,0-.24-.02-.48-.03-.71-.25-.75-.51-1.5-.76-2.26,0-.71-.05-1.4-.84-1.7-.12-.04-.44.13-.48.27-.19.62.08,1.1.58,1.47,0,1.72.01,3.45.02,5.17-4.82,4.67-6.2,4.77-9.64.74-.11-1.03.32-2.18-.71-2.98,0,0,0,0,0,0h0c-.04-.75-.08-1.49-.12-2.24.3-.8,1.37-1.5.32-2.48-1.22.49-.9,1.58-1.02,2.49-.89.51-.64,1.41-.74,2.19h0c-1.18,2.47-1.18,5.33-2.6,7.75-.52.89.31,1.53,1.14,1.9.95,1.29-.29,2.06-.73,3.02-1.49.25-2.97.51-4.46.76-1.22-.27-2.46.84-3.67-.03-.46-1.54,1.03-3.24-.51-5.06-1.5,2.47-1.74,4.91-1.72,7.44.02,3,1.34.71,2.14.57.54.79,1.08,1.58,1.61,2.36h0c.21.72.43,1.44.64,2.15-.05.23-.09.46-.12.69,0,0,0,0,0,0,0,0,0,0,0,0-.28,2.72-2.85,4.22-3.59,6.7-.29.47-.59.94-.88,1.42h0c-1,1.14-.48,2.53-.59,3.81h0s0,0,0,0c0,.25,0,.49,0,.74-1.54,1.59-3.61-.61-5.18.74-.5.01-1,.03-1.5.04-.7-.24-1.55-1.19-2.05.04-.44,1.08-.22,2.15,1.33,2.21t0,0c.26.23.52.45.79.68,0,.25,0,.51,0,.76.74,4.16-1.86,7.41-3.01,11.06.48-3.93-3.15-1.68-4.44-2.95,0-.46,0-.91,0-1.37h0c.85-.56.69-1.42.65-2.23.13-.45.25-.92.4-1.36.24-.7,1.57-1.34.54-2.07-1.18-.83-1.6.46-2.01,1.27-.21.41-.24.91-.34,1.37-.5.5-1,1.01-1.5,1.51-2.54.39-3.23-2.43-5.22-3-1.11-1.64,1.24-3.2.11-5.28-1.15,1.42-2.1,2.6-3.06,3.78-2.45,1.79-4.69,3.88-7.51,5.13,0,0,0,0,0,0h0c-.24.26-.47.51-.71.77-2.48,1.6-5.56,2.81-4.42,6.78.24,1.23-.52,2.65.74,3.67.73.86.77,1.93.9,2.97-.81,2.22-1.62,4.44-2.43,6.66.16,0,.27.03.39.06-.12.02-.25,0-.39-.06-1.22.99-2.44,1.97-3.65,2.96-3.26,2.74-5.27,6.21-6.06,10.39-.83,1.37-1.38,2.82-1.45,4.44-1.82.94-1.58,3.59-3.61,4.36-3.29.63-5.43,2.89-7.48,5.27-3.39,2.07-5.45,5.47-8.15,8.22-1.02.73-2.49.85-3.04,2.23-1.72.94-3.38,1.94-4.38,3.73-1.05-.03-1.76.49-2.23,1.38-1.74,1-3.47,2.01-5.21,3.01-1.6.17-3.12.58-4.47,1.48-2.03-.46-3.33,1.29-5.08,1.67-1.26-.09-2.22.49-3.03,1.4-.58.02-1.13.11-1.44.7-1.01.49.48,1.86-.81,2.25-.21-.04-.42-.08-.62-.09-.88-2.63-2.55.18-3.71-.53-1.11.56-2.7.25-3.38,1.79,1.54.87,2.71-.4,4.02-.4.28.23.55.45.82.68h0c-.29.75-.57,1.51-.86,2.26-.49.02-.99.05-1.48.07-1.66.22-3.2,1.36-4.97.61,0,0,0,0,0,0,0,0,0,0,0,0,.22-1.12-.21-1.84-1.23-1.03-.98.79-1.79,1.92-2,3.29-1.28.43-2.55.85-3.82,1.28-2.93.99-3.82,2.76-2.11,5.52.37,1.1-.82,1.77-.77,2.79,0,0,0,0,0,0-1.51,1.2-3.35,2.21-2.73,4.66h0s0,0,0,0c-.74.66-.58,1.39-.16,2.14-.77.51-1.53,1.03-2.3,1.54,0,0,0,0,0,0h0c-1.9-.46-2.85.77-3.73,2.11-.97,1.22-1.95,2.45-2.92,3.67-.99.99-1.98,1.98-2.97,2.97-.5.5-1.01,1-1.51,1.5,0,0,0,0,0,0h0c-.24.24-.49.49-.73.73h0c-1.71.81-3.43,1.62-5.14,2.44-.49-.07-.98-.14-1.47-.21-.2-.84-.95-.58-1.48-.74h0c0-.24-.06-.46-.16-.67-1.78-2.49-1.25-5.4-1.49-8.17.1-.21.15-.42.15-.65,1.01-2.25,2.02-4.5,3.04-6.75.81-.21.56-.95.75-1.48,1.15-2.93,2.31-5.87.69-9.01-.75-.75-.6-2.41-2.25-2.25-.23-.23-.45-.45-.68-.68-.28-.87-.94-.73-1.59-.59-.71-.05-1.41-.1-2.12-.15-3.93-1.08-8-2.03-11.97-1.29-3.69.69-7.29,1.42-11.06,1.36-2.03-.03-4.08.22-5.37,2.17-.22.22-.45.45-.67.68-.88.83-1.52,1.76-1.34,3.05-.3,1.21-.6,2.42-.9,3.64-1.59,2.05-2.5,4.45-3.55,6.78-.34.69-1.09,1.21-.9,2.13-1.13.45-.55,1.46-.75,2.22-1.08,2.64-1.25,5.45-1.54,8.24,0,0,.02.01.03.02,0,0,0-.02,0-.03,0,0,.01,0,.02,0,0-.01,0-.03,0-.04.01,0,.02.02.03.03,0,0-.02,0-.02,0,0,.02,0,.04,0,.06-.01,0-.02-.02-.04-.03-1.26,4.28-1.82,8.74-3.6,12.88-.34.78.52,1.3.81,1.95-.06.49-.12.97-.18,1.46-1.59,4.88-1.26,9.94-1.4,14.95-.02.78-.4,1.77.69,2.25,0,.24.06.47.15.69-.13,1.79-.54,3.63.75,5.22,0,0,0,0,0,0h0c-.04.49-.26,1.05-.09,1.45,2.15,5.06.46,11.14,4.14,15.81.32.41.38,1.22.24,1.75-.66,2.41.54,4.02,2.17,5.49.49.5.99,1,1.49,1.5,1.36,3.04,1.21,6.83,4.47,8.9.64,2.48,2.79,3.68,4.48,5.27.8,1.45,1.6,2.9,2.4,4.35,0,2.82-.28,5.69,1.31,8.26.02.23.08.46.17.67,0,1.4.48,2.64,1.29,3.76-.02,1.09.54,1.78,1.49,2.23l.17-.16h0s0,0,0,0c-.06.05-.12.11-.18.16.59,2.42,2.04,4.43,3.14,6.61-.6,1.23.25,2.4.06,3.72-.39,2.77.79,4.05,3.6,2.3,1.24.67,2.83.77,3.58,2.23.28,1.34-.86,3.27,1.53,3.75.45.94,1.2,1.43,2.25,1.47,2.75,2.09,5.73,3.96,7.87,6.72.98,1.27,1.32.94,1.88-.13,0,0,0,0,0,0,0,0,0,0,0,0,.44.27.89.53,1.33.8.35,2.23,2.29,3.14,3.73,4.46.83,1.51,2.17,2.34,3.77,2.83.72.31,1.45.62,2.17.92.73.73,1.47,1.46,2.21,2.18.75.75,1.49,1.5,2.24,2.25,0,0,0,0,0,0,0,0,0,0,0,0,.04.24.11.47.19.69,2.33,3.06,4.99,5.81,7.98,8.25.27.26.53.51.79.77,2.72,1.48,5.44,2.97,8.17,4.45l.75.75c1.46.96,2.92,1.93,4.38,2.9h0c1.63,1.22,3.12,2.69,5.26,3.04.25.25.49.49.74.74.1.41.29.7.78.53.96.55,1.92,1.1,2.88,1.65.24.25.49.49.73.73,0,0,0,0,0,0,1.33.59,2.03,2.22,3.71,2.23.81,1.44,3.09,2.66,1.46,4.57-1.75,2.07-1.38,4.27-1.26,6.55-.46.98.44,1.5.75,2.22,0,1.24,0,2.49,0,3.73,0,.26,0,.53.01.79,0,.72,0,1.44-.01,2.15-.55.53-1.11,1.06-1.66,1.59-.46-.07-.7.15-.8.58-.67-.06-1.34-.11-2-.16-1.61-1.59-3.3-3.12-3.8-5.49-.67-3.2-2.87-4.46-5.93-4.58-5.36-2.04-7.21-.97-8.2,4.67-.12.69-.52,1.34-.79,2,0,0,0,0,0,0-.43.24-1.61-1.41-1.19.13.3,1.09-.06,1.93.06,2.86,0,0,0,0,0,0,0,0,0,0,0,0-.01.18-.02.36-.03.54-1.28.14-2.46.52-3.33,1.55-.46.06-.92.11-1.38.17-1.92,1.19-3.83,2.38-2.14,5.09,1.17,3.58.51,7.89,4.24,10.42.17,1.85,1.71,1.87,2.99,2.23.28.85.92.71,1.56.57,1.48,0,2.96,0,4.44,0,1.98,0,3.97,0,5.95,0,.25,0,.51,0,.77,0,3.72.4,7.68-.78,11.09,1.7.25.75.93.57,1.47.71,1.55,1.94,3.43.41,5.16.5,2.25.33,4.51.65,6.76.98-.02.45-.04.91-.06,1.36-1.15.46-2.11-1.44-3.31-.27.99.76,2.08,1.22,3.35,1.17h0s0,0,0,0c.65.9,1.01-.28,1.54-.21.47-.24.93-.48,1.4-.72.94.41,1.7.81,2.97.61,3.9-.6,7.29-2.72,11.12-3.42,2.7,1.03,2.93,3.7,3.91,5.88-.32.72-1.17,1.26-.74,2.23-.3,2.73-.05,5.09,3.51,5.23.07.6.18,1.19.82,1.49.04.26.08.53.12.79h0c-.14,2.85,2.88,2.04,4.06,3.37.07.12.15.25.25.37,2.25,1.3,4.37,3.06,7.28,2.2.55.86,1.12,1.66,2.34,1.34,2.97.73,5.95,1.45,8.92,2.18-.42.5-2.12,1.13-.14,1.51,1.21.23,2.59-.48,3.89-.76,0,0,0,0,0,0,0,0,0,0,0,0,.48,0,.97,0,1.46,0,1.22.32,1.84-.41,2.36-1.33.53-.42.62-1,.58-1.62.28-.43.56-.86.84-1.3,1.96-.05,3.88-1.9,5.87-.12-.23,0-.44.06-.65.15-1.38-.26-2.13.56-3.54,2.02h5.73c1.12-.22,1.56-.95,1.56-2,.03,0,.06,0,.09,0,0,0,0,0,0,0h0s0,0,0,0c1.17.46,2.34.93,3.51,1.39,0,0,0,0,0,0,0,0,0,0,0,0,1.25,1.32,3.69.8,4.44,2.88-.52.41-1.59.55-.8,1.6,0,0,0,0,0,0,.48.91,1.25,1.41,2.27,1.52-.09.59-1.23.58-.85,1.38.26.54.78.37,1.26.18,1.07-.42.64-1.08.33-1.74.05-.71.1-1.42.15-2.13,0,0,0,0,0,0,3.19,1.22,6.37,2.45,9.56,3.67.74-.25,1.48-.51,2.22-.76,0,0,0,0,0,0,4.83-1.74,9.52-1.14,14.14.78.48.24.96.48,1.45.72,4.36,1.04,6.35-3.04,9.59-4.44.18.79.18,2.15.56,2.27,1.11.33,2.04-.41,2.62-1.43.7-1.65-.7-1.39-1.51-1.67,0,0,0,0,0,0h0c.35-1.49,2.19-1.05,2.82-2.18,1.53-.68,3.28-.9,4.53-2.17.5,0,.99,0,1.49,0-.1,1.13.33,1.88,1.5,2.1h4.94c-.73-1.28-1.36-2.31-2.77-1.98l-2.17-.19c2.74-1.89,5.42.22,8.13.14.01.47.03.94.04,1.41-.02,0-.04,0-.05,0,.02.03.04.05.06.08.04,2.46,1.66,2.87,3.67,2.77,1.64.27,3.28.77,4.92.76,1.58,0,.1-.89.16-1.36,0,0,0,0,0,0,2.15-2,5.24-1.65,7.62-3.06,1.27,1.19,2.26.9,3.03-.57,0,0,0,0,0,0,0,0,0,0,0,0,2.5,1.61,3.88-1.12,5.86-1.51.24-.05.47-.12.7-.2,1.8-.26,2.51-1.99,3.85-2.86,0,0,0,0,0,0,0,0,0,0,0,0,1.47-.83,2.27-2.05,2.12-3.79,3.48-.31,4.49-2.57,2.99-6.67.43-2.05.63-4.18,2.21-5.79.57-.14,1.32.08,1.53-.77h0c1.86.33,3.53,1.29,5.29,1.78,2.81.79,5.61,2.64,8.74,1.04.73.31,1.46.61,2.2.92,1.56.25,2.93-.04,3.98-1.34-1.22-.7-2.02.84-3.14.48-.06-.49-.12-.98-.17-1.47,1.57-.49,3.14-.98,4.71-1.48h0s0,0,0,0c2.34.12,4.72,2.06,6.95.53,3.79-2.59,7.89-3.21,12.29-2.87h6.61c1.24,0,2.47,0,3.71,0,.74,0,1.48,0,2.21,0,1.32-.87,3.51-.55,3.81-2.8h0c2.17-1.37,3.06-3.38,2.92-5.9.23-.35.3-.72.33-1.09.9-2.34,2.8-4.58.44-7.22-.51-.91-1.09-1.69-2.32-1.3,0,0,0,0,0,0,0,0,0,0,0,0-.21-.1-.43-.16-.66-.2-1-1.08-2.22-1.58-3.7-1.36-.2-.97-.1-2.13-1.52-2.29-.26-1.3-.58-2.58-.79-3.89-.78-4.88-2.73-6-7.55-4.32,0,0,0,0,0,0-3.18.27-5.35,1.8-6,5.03-.46,2.27-2.02,3.67-3.64,5.08-.66.05-1.33.1-1.99.16-1.81-.46-2.79-1.51-2.47-3.48.38-2.24-.37-4.61.75-6.77.12-2.58.76-5.27-1.37-7.42-1.02-1.04.21-1.94.09-2.92.48-.48.97-.97,1.45-1.45,0,0,0,0,0,0,0,0,0,0,0,0,1-.75,2-1.5,3-2.25,1.22-.73,2.45-1.45,3.67-2.18.24-.04.46-.12.68-.21.07-.42.13-.78.18-1.12-.02.34-.07.72-.18,1.12.47.15.68-.1.78-.51,2.01-1.26,4.02-2.53,6.03-3.79,1.19-.79,2.38-1.58,3.57-2.38,1.51-1.16,3.01-2.33,4.52-3.49,2.02-.05,3.63-1.06,5.17-2.22,0,0,0,0,0,0,3.29-2.99,6.8-5.76,9.01-9.74.72-.72,1.44-1.43,2.15-2.15,1.46-1.06,2.91-2.12,4.36-3.19,0,0,0,0,0,0,0,0,0,0,0,0,1.2-.44,2.49-.74,3.09-2.06.93-.55,1.71-1.26,2.21-2.24,1.83-.66,1.88-3,3.58-3.78,0,0,0,0,0,0,0,0,0,0,0,0,.39.48.76,1.64,1.47.66,1.69-2.32,4.11-3.81,6.07-5.81,1.38-1.12,3.48-1.13,4.46-2.88,1.5-.6,1.99-1.64,1.34-3.15.61-1.8,2.27-2.22,3.76-2.88.86.87,2,1.37,2.92.53,1.3-1.19,1-2.77.24-4.23,1.14-.78.36-2.02.73-2.98,0,0,0,0,0,0,1.21-1.85,2.48-3.67,2.74-5.95.29-.29.57-.58.86-.88,1.71-.96,1.32-2.95,2.12-4.35.08-1.27,1.33-2.3.75-3.69,1.81-1.8.05-4.03.72-5.96,1.2-1.8,1.9-3.88,3.59-5.41,3.74-3.37,6.48-7.41,7.56-12.43.57-.72,1.14-1.45,1.71-2.17.94-.43,1.48-1.12,1.44-2.19,2.03-1.88-.09-4.67,1.46-6.65,1.17-1.26,2.25-2.81,2.1-4.41-.46-4.74,1.78-8.95,2.21-13.49.06-1.23.13-2.46.2-3.69,1.25-5.79.54-11.5-.8-17.17Zm-80.99,23.71s0,0,0,0h0c-1.96-1.51-5.11.58-6.65-2.19-.29-.47-.59-.94-.89-1.41v-.75c.74-2.98,1.47-5.96,2.21-8.94h0c1.19-2.61,3.16-5.07,1.65-8.22,0,0,0,0,0,0,0,0,0,0,0,0-.05-1.68-.09-3.36-.14-5.03,0,0,0,0,0,0h0c.24-.51.48-1.02.72-1.54,0-.26.01-.53.02-.79-.36-.1-.6-.29-.77-.53.27.14.53.31.77.53.13-1.78.56-3.61-.74-5.19.46-2.07-.4-3.66-1.7-5.19-1.27-1.52-2.76-2.98-2.77-5.19.49-1.81-.72-3.05-1.48-4.44.19-1.56-.5-2.3-2.07-2.2-1.52-1.19-2.51-2.76-3.19-4.54-.85-1.76-2.01-3.07-4.17-2.97-.07.06-.13.11-.2.17,0-.02,0-.04-.02-.06h0l.22-.11c-1.26-1.85-3.35-2.25-5.24-2.99-3.37-2.33-6.91-1.38-10.44-.56-1.03.06-2.21-.69-3.03.55,0,0,0,0,0,0,0,0,0,0,0,0-2.2-.73-4.39-1.46-6.59-2.19h0c-.13-.4-.32-.71-.82-.55-1.58-.52-1.31-2.71-2.9-3.21-.39-1.27-.4-2.83-2.25-3-.02-.18-.05-.36-.09-.53,0,0,0,0,0,0,0,0,0,0,0,0,.09-.66.18-1.31.86-1.65,1.37-.56,2.12-1.77,2.97-2.88,3.03-.08,5.74,1.99,8.86,1.34.49,0,.98,0,1.46,0,.71.33,1.25,1.06,2.17.9,1.03,1.39,2.53.35,3.76.72,0,0,0,0,0,0,1.29,2.27,3.33,3.11,5.83,3.07.03.21.09.42.17.61,1.18,2.73,3.66,2.16,5.86,2.3,1.24.51,2.47,1.02,3.71,1.53.78.47,1.55.93,2.33,1.4h0s0,0,0,0c1,.73,1.99,1.46,2.99,2.19,1.27,1.67,3.11,1.45,4.86,1.53.02.03.03.07.05.1.22.23.48.43.76.58.23.03.44.11.63.23,1.01,1.05,1.58,2.48,2.57,3.56-.13,1.34,1.13,1.9,1.61,2.9,2.18,4.26,3.53,4.98,5.96,3.16,0,0,0,0,0,0,.54-.22,1.09-.44,1.64-.66.2.37.5.64.95.73.06-.02.11-.04.17-.06.09,1.46.34,2.65,2.07,1.35.59.57,1.3.66,2.08.46.03,0,.05-.03.07-.04-.7,1.8.11,3.02,1.76,4.02,1.26.77,2.46,1.65,3.67,2.5.04.16.07.32.12.48,1.55,2.76,3.65,5.19,4.92,8.12.11.06.22.1.32.13-.72,3.82,1.01,7.06,2.52,10.35.13.09.27.18.4.25-.17,1,.52,1.52,1.34,1.96.32.98.64,1.96.95,2.95.25.99.49,1.98.74,2.97-.57,2.21-1.75,4.08-3.13,5.86-2,1.25-3.99,2.5-5.98,3.76-.55.09-1.24-.1-1.44.7-1.61.09-3.27.06-4.44,1.47-5.29.1-10.51.67-15.59,2.21Zm-25.19,133.73s0,0,0,0c0,0,0,0,0,0,0,0,0,0,0,0,0,0,0,0,.01-.01,0,0,0,0,0,0,0,0,0,0,0,0Zm-5.88,22.44s-.03-.02-.07-.05c0,0,0,0,0,0,.03.02.05.03.08.05,0,0,0,0,0,0Zm5.85-22.39h0s0,0,0,0h0Zm-.02.05s0,0,0,0c-.01,0-.02.02-.03.02.01-.02.02-.03.03-.05v.03Zm-1.55,31.78c.07.01.15.02.22.03-.07.02-.14.04-.22.05,0-.03,0-.06,0-.09Zm28.27-10.27s.01.06.02.08c-.02-.01-.04-.02-.05-.03.01-.02.02-.04.04-.05Zm-36.35-41.57s0,0,0,0c0,0,0,0,0,0-.06-.19-.12-.33-.18-.46.09.07.18.18.26.35-.03.04-.05.07-.08.11Zm-2.23,0s-.02-.01-.02-.02c0,0-.01-.02-.02-.03,0-.02,0-.04,0-.06.03.04.07.08.11.11-.02,0-.04,0-.06,0Zm-187.09,51.16h-.03s.01-.02.02-.02c0,0,0,.02.01.02h0Zm2.12-53.39h0s0,0,0,0c0,0,0,0,0,0Zm-9.61,29.62s.02-.01.03-.02c0,.01-.01.02-.02.03,0,0,0,0-.01,0Zm.02.01s.04,0,.05,0c-.01,0-.02.01-.03.02,0,0-.01,0-.02-.01Zm3.46,8.83s0,.02,0,.03c0,0-.01-.01-.02-.02,0,0,.01,0,.02,0Zm176.2,13.8c-.02-.08-.01-.15-.04-.24.02.01.04.02.05.03,0,.08,0,.15-.02.21Zm-112.83-118.43s-.01.04-.02.06c0,0-.01-.01-.02-.02.01-.02.02-.03.03-.05Zm103.21,118.14c-.13-.11-.25-.2-.37-.29.12-.02.25-.02.37-.03,0,.11,0,.21,0,.32Zm-4.86-1.09c-.02-.1-.03-.21-.03-.31.02-.04.05-.09.07-.13,0,.21.03.39-.04.44Zm-23.35-87.28s0,0,0,0c0,0,0,0,0,0,0,0,0,0,0,0l-.04-.03s0-.01,0-.02c.01.01.02.03.03.04Zm16.03-5.63s.06-.06.09-.11c0,.04.01.08.02.12-.03,0-.07-.01-.11-.02Zm3.97,16.77s0-.02,0-.03c0,0,.01,0,.02,0,0,.01-.01.02-.02.03Zm10.86-2.69c-.43-.04-.86-.09-1.29-.19.04-.04.06-.08.11-.12.07-.02.13-.02.2-.03.02,0,.04,0,.07,0,.12,0,.25.02.37.03.2.06.38.16.55.3Zm-39.84-15.89s0,0,0,0c0,0,0,0,0,0h0Zm3.76,102.51v.15s-.08-.03-.12-.05c.04-.04.08-.07.12-.11Zm-.07,3.7s.05-.03.08-.04v.06s-.05,0-.08-.02Zm25.39-118.03s-.04-.04-.06-.06c.05,0,.1,0,.15,0-.03.02-.06.04-.09.06Zm-35.73,10.32s0,.03-.01.05c-.01,0-.03,0-.04,0,.02-.01.03-.03.05-.04Zm19.22,101.71s.07.02.11.02c0,.02,0,.04,0,.05-.04-.02-.07-.05-.11-.07Zm29.79-9.57s0,0,0,0h0s0,0,0,0Zm-.03,15.61s.04,0,.06,0c0,0,0,0,0,0,0,.01-.02.02-.02.03-.01,0-.02-.02-.03-.03Zm-103.95,11.99s-.01-.02-.02-.04c0,0,0,0,0,0h.04s0,.02-.01.04Zm-18.56-133.1s0,0,0,0c0,0,0,0,0,0,0,0,0,0,0,0Zm20.33,31.39s0,.02,0,.04c-.27.13-.53.26-.79.29.25-.12.51-.23.78-.33Zm-24.03-16.34v-.17s-.03.04-.05.05c.01-.02.03-.04.04-.06,0,0,0,0,0,0h0s0,0,0,0h0s.06.07.1.1c-.04.02-.07.04-.1.06Zm-.73,20.63s.03-.06.06-.1c0,.03-.02.07-.03.1,0,0-.02,0-.02,0Zm-13.26,81.15s-.05-.03-.07-.04c.04-.07.08-.13.11-.2-.01.08-.02.16-.03.25Zm16.22-5.02c0,.12,0,.24,0,.36-.04-.12-.08-.24-.14-.35.04,0,.09,0,.13-.02Zm40.12-96.93s.01.01.02.02c0,0-.01,0-.02,0v-.03Zm-32.57-27.6s-.09.07-.14.1c.01-.08,0-.14,0-.21.05.04.1.07.14.11Zm-4.56,3.82s-.02-.02-.04-.03c.01,0,.03-.02.04-.03,0,.02,0,.04,0,.06Zm11.92,138.98s0-.06-.01-.1c.05.02.1.02.15.03-.05.02-.09.05-.14.06Zm19.31-133.72c.16-.15.34-.22.53-.28-.06.27-.11.53-.14.77-.13-.16-.26-.32-.39-.49Zm-24,118.7c.07.03.13.06.2.09-.06,0-.12,0-.18-.01,0-.03,0-.05-.01-.08Zm93.8-129.87s0,0,0,0c.04-.03.07-.06.11-.08-.04.03-.07.06-.11.09Zm-84.7,8.86s0,.03.01.04c0,0-.01,0-.02,0,0-.01,0-.03,0-.04Zm-46.78,16.18c.01.06.03.12.04.19-.06-.04-.13-.1-.2-.15.05-.01.1-.03.16-.03Zm2.8,90.73c.06,0,.11-.01.16-.02-.02.05-.05.1-.07.15-.04-.04-.06-.09-.09-.13Zm79.77,38.7s-.01.04-.02.05c-.03-.02-.07-.04-.1-.05.04,0,.08,0,.12,0Zm55.85-15.4s.05-.02.07-.02c0,0,0,0,0,0h0s-.05.02-.07.02Zm-117.12-144.34s-.04-.03-.06-.04c.04-.02.07-.04.11-.06-.02.03-.03.07-.05.1Zm-30.21,80.92s.02-.03.04-.05c0,0,0,.01,0,.02-.01,0-.02.02-.04.03-.04.04-.07.08-.11.12-.03,0-.07,0-.1-.02.07-.03.14-.05.21-.1Zm-34.86,33.53s-.02-.03-.03-.05c0,0-.01,0-.02,0,0,0,0-.02,0-.03.03.02.06.04.09.06-.02,0-.03.01-.04.02Zm32.53,22.85s.08,0,.12-.01c.01.05,0,.11.02.16-.02.01-.04.03-.05.05-.03-.06-.04-.14-.08-.19Zm92.23,23.45c-.17.03-.34.07-.52.13.12-.15.32-.18.52-.13Zm75.77-25.64s.03.03.04.04c-.02,0-.03.01-.05.02,0-.02,0-.04,0-.06Zm-46.89-132.02s-.05-.06-.08-.08c.05,0,.09,0,.14,0-.02.03-.04.06-.06.08Zm-21.51,27.36s0,.07,0,.11c-.09-.06-.18-.1-.26-.15.08,0,.16.02.26.04Zm-129.92-63.09c-.08.03-.16.08-.23.12-.02-.04-.03-.08-.05-.12.1,0,.19,0,.29,0Zm.08-.62c-1.54.1-3.21-.84-4.6.54-.55-.22-1.09-.55-1.66-.64-5.11-.81-10.23-1.57-15.35-2.35-.73-1.25-1.97-.36-2.92-.69-.54-.86-1.5-.98-2.33-1.33-2.14-.37-3.12-2.63-5.14-3.18,0,0,0,0,0,0-.24-.25-.49-.49-.74-.73-.79-1.71-1.59-3.42-2.38-5.12.2-1.01.41-2.03.61-3.04.15-.15.3-.32.44-.5.09-.33.05-.64-.08-.94.4-1.28,2.18-1.83,2.03-3.41.07-.04.15-.07.22-.12.34-.48.45-1.02.4-1.59-.07-.32-.13-.64-.18-.96.51-1.68,1.02-3.36,1.53-5.04.28-.15.53-.38.77-.64.61-.94,1.03-1.91.62-3.06-.11-.12-.22-.24-.32-.37.58-2.06,1.71-3.82,3.01-5.49,2.16-1.51,3.67-3.77,6.32-4.8,1.49-.58,2.15-2.21,1.33-3.92.71.08,1.44.2,2.02-.23,1.67.94,1.79.84,2.2-1.4.07.02.13.06.19.08.46-.07.77-.33.98-.71.55.23,1.1.45,1.65.68,0,0,0,0,0,0h0c2.61,2.44,3.71.57,4.69-1.64,0,0,0,0,0,0,1.41-1.05,2.21-2.48,2.7-4.11.15.01.3.02.46-.01,2.04-1.71,3.71-3.98,6.63-4.39.49-.07.71-.63.63-1.19-.02-.02-.04-.03-.06-.05,2.3-.42,3.26-2.72,5.12-3.75,1.25.1,2.15-.58,3.01-1.34.81-.05,1.67.03,2.23-.75,3.28.52,5.69-1.23,8.07-3.07,1.06-1.08,2.92-.74,3.8-2.14h0c.96-1.27,2.87-.07,3.79-1.44.71-.31,1.41-.61,2.12-.91,3.14.45,6.09-.2,8.94-1.5,1.97-.13,2.37,2.63,4.4,2.4,0,.93.02,1.86.03,2.79-.93.8-1.37,1.85-1.53,3.03-1.57.92-1.92,3.04-3.7,3.75-2.18.75-4.36,1.49-6.54,2.23-1.09-1.33-2.52-.49-3.8-.58-2.71-.87-5.43-1.67-8.15,0,.16.01.31.02.46.04-.15.02-.3.01-.46-.04-2.87.44-5.13,2.07-7.4,3.7-2.04-.15-2.77,1.46-3.7,2.79-1.29,1.49-2.57,2.97-3.86,4.46-3.17,4.91-3.95,10.93-7.32,15.75-.21.3.05.94.09,1.43,0,0,0,0,0,0,0,0,0,0,0,0-1.22,2.25-1.43,4.51-.13,6.81-.02,1.92-.04,3.83-.05,5.75-1.54,3.16.52,5.59,1.68,8.2.74,2.98,1.48,5.95,2.22,8.93-.06.48-.13.97-.19,1.45-.25.25-.5.5-.76.74-.69.55-1.37,1.1-2.06,1.65Zm-5.29,87.51s0,.03,0,.05c-.02-.02-.05-.04-.07-.05.03,0,.05,0,.08,0Zm-34.18-150.76s-.01-.02-.02-.02c0,0,.01,0,.02-.01,0,.01,0,.02,0,.03Zm-12.99,40.07c0,.05-.01.11-.03.16-.01-.07-.01-.14-.01-.22.01.02.03.04.04.06Zm11.38,57.43c.23-.07.44-.15.65-.23.02.11.04.22.06.33-.22-.05-.45-.08-.71-.1Zm-11.02-22.5s0,0,.02,0c0,0,0,0,0,.01,0,0-.01,0-.02-.01Zm-6.71-29.68s0-.02,0-.03h.04s-.03.02-.04.03Zm4.05,47.7c.12-.17.22-.34.3-.49.09.05.18.1.29.13-.18.13-.37.26-.57.4,0-.01-.01-.02-.02-.04Zm3.08-25.34c-.78.08-1.4-.06-1.66-.47.59.23,1.14.38,1.66.47Zm-.39,44.45l-.06-.03s0,0,0,0c.02,0,.04.02.06.02,0,0,0,0,0,0Zm.01-53.88c-.01.15-.03.29-.05.44-.12-.26-.22-.54-.31-.84.13.12.25.25.36.4Zm-13.83,6.21c-.09.16-.2.3-.32.4-.07-.08-.14-.16-.2-.25.16,0,.34-.06.52-.15Zm.33,14.81c-.13.03-.27-.03-.4-.13.13.03.26.07.4.13Zm23.94,45.29s0,0,.01,0l-.02.02s0-.01,0-.02Zm3.67-4.95s-.02-.03-.03-.05c.03,0,.06-.02.09-.03-.02.03-.04.05-.06.08Zm-14.5-101.65c.11-.05.22-.11.35-.15-.07.26-.12.5-.16.72-.07-.18-.14-.37-.18-.57Zm-21.92,16.92s0-.07,0-.1c.04,0,.08,0,.11,0l-.1.1Zm2.22,46.06s-.03-.02-.04-.03c.05-.02.09-.05.14-.07-.03.03-.06.06-.09.1Zm16.34,39.36l.02.02s-.04.01-.05.02c.01-.02.02-.02.03-.04Zm11.14,14.86s.02,0,.03,0c0,0,0,.01-.01.02,0,0,0-.01-.01-.02Zm-25.07-112.21c-.06,0-.12.02-.18.03.05-.06.09-.11.13-.17.02.05.03.09.05.14Zm-3.18.78s0,0,0,0h0s0,0,0,0c0,0,0,0,0,0,0,0,0,0,0,0,0,0,0,0-.01-.01,0,0,0,0,0,0Zm54.24,120.23s0,.06.01.09c-.09-.02-.16-.04-.23-.05.07-.02.14-.03.22-.04Zm-15.25-66s.03-.04.05-.06c.25-.02.49,0,.72.06-.24.03-.5.02-.77,0Zm4.82,72.89h0s0-.01,0-.01c0,0,0,0,0,.01Zm-30.54-33.68h0s0,.01,0,.02c0,0-.01,0-.02,0,0,0,.01,0,.02-.01Zm5.32,12.22c-.05-.04-.1-.09-.15-.13.06-.02.12-.03.18-.05,0,.07-.02.11-.03.18Zm2.07-.15s0,0,0,0h0s.03.04.05.06c-.02.01-.03.03-.04.04,0-.03,0-.06,0-.09Zm4.62,4.43c.01.09,0,.16-.02.22-.02-.07-.04-.14-.08-.22.03,0,.07,0,.1,0Zm6.66,8.89s0-.04,0-.06c.01.01.02.03.03.04,0,0,.02,0,.03,0-.02,0-.04,0-.06.01Zm21.62-22.36s.01.06.03.09c-.03,0-.05,0-.08,0,.02-.03.04-.06.05-.1Zm-24.99-107.05c0,.07.01.14.02.21-.03,0-.07,0-.1-.01.03-.07.06-.13.09-.19Zm31.63,142.04s.06.02.09.03c-.03,0-.06,0-.1,0,0-.01,0-.02,0-.04Zm-.75-33.34s0-.04,0-.07c.02.01.04.02.05.03l-.04.04Zm-11.09-25.28s-.04,0-.05,0c0-.02,0-.03,0-.05.02.01.04.03.05.04Zm-.3-14.24c.07-.01.14-.04.22-.06,0,.05,0,.11,0,.16-.08-.03-.14-.07-.21-.1Zm321.94,46.33s-.05-.02-.07-.03c.01-.01.03-.02.04-.03,0,0,.02,0,.03,0,0,.02,0,.04,0,.05Zm16.26-108.73s.03.01.05.02c-.02.03-.05.05-.07.08h0s.01-.07.02-.1Zm-31.22,56.55s0,0,0,0c0,0,0,0,0,0,0,0,0,0,0,0l.02.04s-.01,0-.02.01c0-.02,0-.03,0-.05Zm15.6,9.66s.04,0,.06,0c0,.02-.02.03-.03.04-.01-.01-.02-.03-.03-.04Zm-2.97-2.23c-.01.12-.05.21-.1.28,0-.09,0-.18-.02-.29.04,0,.08,0,.12,0Zm8.91-20.04s0,0-.01,0c0,0,.01,0,.02,0,0,0,0,0,0,.01Zm.89-28.84l-.08-.08s0,0,0,0c.03.03.06.05.09.08,0,0,0,0,0,0Zm-24.65,57.75s.01.02.02.03c0,0-.02,0-.03,0,0,0,0-.01,0-.02Zm.25-3.78c-.33-.06-.6-.23-.74-.5.2.15.44.32.74.5Zm23.5,6.77s.03.04.05.07c-.03,0-.06-.02-.09-.03.01-.01.03-.03.04-.04Zm14.13-72.05s0,.01,0,.02c0,0-.01,0-.02,0,0-.01.01-.02.02-.03v.02Zm-20.82,84.96c0-.08,0-.16,0-.25.02.09.05.17.08.26-.03,0-.05,0-.08-.01Zm22.24-70.12s.03-.01.04-.02c0,.02,0,.03.01.05-.02-.01-.04-.02-.05-.03Zm-28.35,81.7c.05,0,.1,0,.16.02,0,0,0,0,0,0-.02.05-.05.08-.07.13-.02-.04-.06-.1-.09-.14Zm17.28-28.17s0,.07,0,.1c-.03,0-.07-.02-.1-.03.03-.02.06-.05.1-.07Zm-35.67,46.77s0,.06,0,.09c-.02-.01-.04-.03-.07-.04.02-.02.05-.03.07-.05Zm47.53-103.98h0s0,0-.01,0c.01-.01.02-.02.04-.03,0,0,0,0,0,0l-.03.03Zm-20.81-28.02c0-.07,0-.13,0-.2.04.04.08.1.12.14-.04.02-.08.03-.12.06Zm-22.26,59.2s0-.06,0-.09c.01.02.03.04.04.06-.01.01-.02.02-.03.03Zm-12.63,51.25h0s0,0,0,0c0,0,0,0,0,0,0,0,0,0,0,0,0,0,0,.02-.01.02,0,0-.01,0-.02-.01.01,0,.02,0,.03-.01Zm60.16-48.29s0,0,0,0c0-.03,0-.05,0-.08.02.01.04.03.06.04-.02.01-.04.02-.06.03h0Zm-5.96-63.18s0,.02,0,.03c0,0,0,0,0,.01-.01-.01-.03-.02-.04-.03.01,0,.03,0,.04-.01Zm-26.73,3.77s-.09,0-.13,0c.04-.01.07-.03.12-.04,0,.02.01.03.02.05Zm-4.49,20.74h0c.05-.13.09-.25.13-.37.03.09.07.18.11.27-.08.03-.15.07-.24.1Zm-7.23,10.28s0,.01,0,.02h0s0,0,0,0c0,0,0-.01,0-.02Zm38.58-34.92c.04-.07.09-.13.13-.2-.01.03-.02.06-.03.08-.04.03-.07.08-.1.12Zm-35.77,26.91s.02-.05.03-.08c.01.01.02.03.04.04-.02.01-.04.03-.06.04Zm-78.93,44.36c.24.03.5.09.77.17,0,.03,0,.06,0,.09-.31.07-.55-.05-.76-.26Zm-1.29-109.72s-.09,0-.13,0c0-.03.02-.07.03-.1.03.03.07.07.1.1Zm46.78,39.31v.02s-.02-.01-.03-.01c0,0,.02,0,.03,0Zm-122.55,3.86c-.51-1.9,1.37-2.13,2.17-3.12.05-.98-.73-1.98.08-2.93h0s0,0,0,0c.8-.77.5-1.26-.45-1.44-.88-.17-2.1-.5-1.65-1.41,1.75-3.5-2.05-5.86-1.63-9.02h0c.16-.51.33-1.03.49-1.54.21-.06.42-.12.63-.21,3.31-1.63,4.07-4.6,3.47-7.77-.92-4.95-1.14-9.97-1.91-14.93-.06-.3-.09-.6-.11-.9.43-.64.79-1.37,1.79-1.28,0,0,0,0,0,0h0c.28.83-.36,2.11.77,2.47.97.31,1.17-.92,1.7-1.48.4-.42.87-.76,1.31-1.13,1.49-2.16,5.62-.63,6.02-4.32h0c1.1-.9,2.38-.9,3.7-.77h0c.7.59-.13,2.19,1.45,2.2,2.89,2.05,6.45,1.93,9.66,2.97,1,1.4,1.94.39,2.83-.12,1.58-.91,3.11-1.89,4.66-2.85.96,0,1.91,0,2.87,0t0,0c.04.24.11.46.23.67-.57.91-1,1.85-.98,2.96-1.23,1.06-2.8,1.83-3.01,3.71h0c-.5.48-1.01.97-1.51,1.45-.74.75-1.49,1.51-2.22,2.26,0,0,0,0,0,0-.2.05-.39.05-.59,0,0,0,0,0,0,0,0,0,0,0,0,0-.71-1.32-2.03-.35-2.97-.79-.16-.52-.46-.65-.8-.64-.09-.12-.19-.23-.3-.35-1-.84-2.02-1.6-3.44-1.32-.1.11-.21.22-.32.32-1.57.07-2.39.89-2.46,2.47-.17.23-.33.47-.46.73.7,6.15-1.77,11.24-5.13,16.14-2.24,3.26-3.8,6.88-4.37,10.88-.85,5.94-1.51,11.91-3.12,17.72-.38,1.37-.99,2.52-2.14,3.35-.69.5-1.43,1.13-2.34.59-.88-.52-.82-1.45-.74-2.32.15-1.72,1.1-3.29,1.02-5.06-.03-.23-.09-.44-.13-.66,1.43-2.14-.67-3.23-2.04-4.53Zm-9.49-8.87s-.45.53-.72.57c-2.35.32-.98,1.81-1.14,2.98-.29,2.07,2.38,3.55,1.3,5.64-.2.03-.42.05-.66.06-1.67,1.72-1.77,3.59-.68,5.67.85,1.62,1.5,3.33,1.49,5.22-.04.39-.11.7-.19.96-.57.24-1.15.48-1.73.72-.28-.16-.59-.37-.92-.67-3.44-3.21-3.47-7.63-4.16-11.81-1.06-6.39-1.05-13.17-4.78-18.72-3.64-5.43-6.23-11.06-6.89-17.56-.03-.04-.06-.07-.1-.11,1.32-1.29.06-2.12-.83-2.91-1.22-1.08-2.74-.99-3.92-.16-1.17.83-2.29,1.59-3.7,1.88-.9-.48-1.43.4-2.15.58-.49-.5-.98-1-1.47-1.5l-2.2-2.22c.06-2.21-2.62-2.03-3.21-3.67.34-1.15-.19-2.06-.8-2.95.6-.29,1.2-.58,1.8-.87,1.64-.03,2.78,1.29,4.29,1.62,0,0,0,0,0,0h0c.29.77.78,1.28,1.66,1.3,1.91,1.54,3.53.5,5.15-.57,1.1.08,2.07-.25,2.93-.93,2.6.39,4.5-.58,5.72-2.9,1.3-.51,2.61-.96,3.83.19,0,0,0,0,0,0,.45,3.61,4.49,2.25,6.03,4.34.73.75,1.47,1.5,2.2,2.25,1.21,1.29,1.43.4,1.55-.7h0c1.09-.09,1.43.57,1.73,1.27-.1.47-.23.94-.34,1.41-.28,4.19-.75,8.35-1.54,12.48-.5,2.6-.25,5.2,1.79,7.26.22.19.44.35.68.5.23,1.1.95,2.01,1.36,3.04.32,2.88-3.35,5.13-1.35,8.3Zm83.75-21.68c.02.09.02.18.03.27-.09-.03-.17-.07-.25-.11.07-.06.15-.12.22-.17Zm-44.31,69.11c0-.06,0-.13,0-.19.03.03.05.07.07.11-.02.03-.05.06-.07.08Zm9.45-39.45s.01.04.02.06c0,0-.02,0-.03,0,0-.02,0-.04,0-.05Zm69.07,17.03l-.09-.03s.02-.06.03-.08c.04.03.07.06.11.08-.02,0-.03.01-.05.02,0,0,0,0,0,0Zm-92.9,10.52s.03.07.04.11c-.03-.04-.04-.07-.07-.1,0,0,0,0,0,0,0,0,.02,0,.03,0Zm2.92,1.5s.03,0,.04,0c0,0,0,.01,0,.02-.01,0-.02-.01-.03-.02Zm37.64-5.76c.1.17.2.35.33.52l.02.02h0s-.01,0-.02-.02c-.18.03-.35.06-.51.09.06-.21.11-.41.18-.62Zm-.39-11.37v-.02s0,0,.01,0c0,0,0,0-.01,0Zm20.67,24.98c-.03-.06-.07-.13-.1-.19.04.06.07.13.1.19,0,0,0,0,0,0Zm-24.37-12.25s0-.02,0-.02c0,0,0,.01.01.02,0,0,0,0-.01,0Zm-20.09-21.64h0s0,0,0,0c0,0,0,0,0,0-.01.04-.03.08-.05.12-.01-.04-.01-.07-.03-.11.02,0,.05,0,.07,0Zm-6.68,21.71c-.11.04-.21.06-.3.06.09-.08.18-.15.29-.25v.18Zm39.5,14.67s.02.02.02.03c0,0-.02,0-.02,0,0-.01,0-.03,0-.04Zm-24.65-14.15s0,.02-.01.03c0,0,0-.01,0-.02,0,0,.01-.01.02-.02Zm6.79,12.76s-.06.05-.09.07c-.01-.03-.02-.06-.04-.09.04,0,.08,0,.13.02Zm.55.1s-.02-.09-.04-.14c.03.04.05.09.07.14-.01,0-.02,0-.03,0Zm4.47,5.08s.04,0,.06-.01c0,.02,0,.04,0,.06-.02-.02-.03-.03-.05-.05Zm45.4-29.8s-.08.09-.12.14c-.01-.03-.02-.06-.04-.08.05-.02.1-.03.15-.05Zm.72,5.95s0,.02,0,.03c0,0-.01,0-.02,0,0,0,0-.02.01-.03Zm-28.14,17.88s0-.02-.01-.03c.01,0,.03,0,.04,0,0,.01-.02.02-.03.03Zm19.86-21.37s0-.07,0-.11c.03,0,.07,0,.1.02-.03.03-.06.06-.09.09Zm-13.23,30.27s.01,0,.02,0c0,0,0,.01,0,.02,0,0,0-.01-.01-.02Zm-5.97-.02s0,.03.01.04h0s-.05,0-.08,0c.02-.01.05-.03.07-.04Zm21.53-36.41c0-.06,0-.11,0-.17.03,0,.06.02.09.03-.03.05-.06.1-.1.14Zm-71.94,22.35s-.02-.05-.04-.08h0s0,0,0,0c.03.02.06.04.1.06-.02,0-.04.01-.05.02Zm17.26,5.73c-.09-.06-.14-.19-.18-.35.06.14.12.25.18.35Zm48.8,20.24s0,.01,0,.02c0,0,0,0,0,0,0,0,0,0,0-.01Zm9.63-50.51s-.01,0-.02,0c0-.01,0-.02,0-.04,0,.01.02.03.03.04Zm-83.18,32.01s0-.06,0-.08h0s.05.04.07.06c-.03.01-.05.01-.07.03Zm15.93-4.24c-.15-.22-.32-.45-.54-.7.28.14.53.26.77.38-.08.09-.16.2-.24.32Zm71.75-2.49h0s0-.03,0-.05c.02,0,.05,0,.08.01-.03.01-.05.02-.08.03Zm6.68-3.88v.03s-.03-.02-.04-.03c.01,0,.03,0,.04,0Zm-63.86-100.8s-.08.1-.11.15c-.02-.09-.03-.18-.05-.27,0,0,0,0,0,0h0l.11.04s.03.06.05.08Zm-29.85-3.86s-.01.05-.02.08c-.01-.02-.03-.04-.04-.06.02,0,.04-.01.06-.02Zm1.59-9.18s.06.04.07.13c.01.02.02.05.03.07.1-.04.17.03.18.21-.03,0-.06,0-.1,0-.03-.07-.04-.14-.09-.21,0,0-.02,0-.03,0-.08.05-.13.05-.16.04.03-.08.06-.16.08-.24Zm24.52,13.67s0,0,0,0h0s0-.05,0-.07c.03,0,.07.02.11.02-.04.01-.06.03-.1.04Zm-5.23,14.14s0,0,0,0h-.01s0,0,0,0Zm11.93,7.43s-.12.03-.12.03c0-.02-.02-.03-.02-.04.05,0,.1,0,.15.01.01,0,.02,0,.04,0,0,0-.02.01-.03.02,0,0,0-.01,0-.02Zm-156.76,81.73h0s-.02-.02-.03-.03c.01,0,.02-.01.03-.02,0,.02,0,.03,0,.05Zm9.71-11.14s-.05-.01-.08-.02c.04-.04.06-.07.09-.11,0,.04,0,.09-.02.13Zm54.9-34.15v-.03s.01.01.02.02c0,0-.01,0-.02.01Zm5.14,12.66s0-.02,0-.04c.03-.02.06-.03.08-.05-.03.03-.06.06-.09.09Zm-55.63,33.37s0,0,0,0c0,0,0,0,0,0,0,0,0,0,0,0l-.04-.11c.06.02.12.02.18.04-.05.03-.09.05-.14.08Zm26.72-17.1s0,0,0,0c0,0,0,0,0,0h0Zm-6.64-.69s.01-.04.02-.06c.02.01.03.03.05.05-.03,0-.04.01-.07.01Zm-19.42,17.84v-.02s0,0,0,0c0,0,0,0,0,0,.02,0,.03,0,.05-.01-.02.01-.03.02-.05.04Zm27.62-5.89s-.08.06-.12.09c-.01-.05-.03-.09-.04-.15.06.03.11.04.16.06Zm28.95-22.37s-.02.01-.03.02c-.01-.01-.02-.03-.03-.04.02,0,.04.01.06.02Zm-21.59-2.26s.05,0,.07,0c-.02.02-.03.04-.05.06,0,0,0-.01,0-.02v-.04Zm-26,39.47c.18.07.36.13.55.18-.23.04-.42,0-.55-.18Zm3.02,1.41s.04.05.06.08c-.03,0-.05,0-.07,0,0-.03,0-.05.02-.09Zm-12.68-3.81s0,0,0,.01c0,0-.02,0-.02,0,0,0,.02,0,.02,0Zm1.44,1.52s0,.01,0,.02c-.05.02-.11.04-.16.05.05-.02.1-.04.16-.07Zm30.44,1.47s.03.04.05.06c0,0,0,0,0,0-.08.05-.13.1-.2.15.04-.07.1-.15.15-.22Zm7.57-11.87s0,0,0,0c0,0,0,0,0,0,0,0,0,0,0,0Zm24.44-10.37c.04.05.07.1.11.16-.04.02-.08.03-.11.05v-.21s0,0,0,0Zm-.05-40.04l.03-.04s0,.04,0,.06c-.01,0-.02-.01-.03-.02Zm-5.91,5.18s-.02-.01-.02-.02c0,0,.01-.01.02-.02,0,.01,0,.03,0,.04Zm-72.77,32.11s-.04-.04-.06-.05c.02-.02.04-.03.06-.05,0,.03,0,.07,0,.1Zm31.91,15.27c-.02-.21-.04-.42.02-.59,0,0,0,0,0,0,.04.01.08.04.12.05-.04.23-.09.4-.14.54Zm11.85,10.62s.04-.03.07-.04h0s0,.1,0,.15c-.03-.04-.04-.07-.07-.11Zm-3.72-48.4s-.03-.01-.05-.02c.01,0,.02,0,.03-.01v.04Zm-13.3,12.69s0-.01,0-.02h-.14s0-.07,0-.11c.05.04.1.07.15.11.02,0,.04,0,.06-.01-.02.01-.04.02-.06.03Zm-.93,38.62c.07,0,.12-.02.19-.02-.04.05-.08.1-.12.15-.02-.05-.05-.09-.07-.14Zm14.38.17c-.19.23-.38.46-.57.66-.22-.28-.39-.58-.54-.89.33.21.69.28,1.11.23Zm8.09,6.49s.01,0,.02,0v.02s-.02-.01-.02-.01c0,.01,0,.03,0,.04,0,0-.01-.02-.02-.03,0,0,.01-.01.02-.02Zm51.23-154.49s0-.01,0-.02c0,0,0,0,0,.02,0,0-.01,0-.02,0Zm-27.45,27.47v-.04s.04.03.06.04c-.02,0-.04,0-.06,0l-.02.02h0s.02-.02.02-.02Zm14.23,14.73s0,0,.01-.01c0,0,0,0,0,0h-.01s0,0,0,0Zm9.48-3.74s.06.07.09.11h0s0,.02,0,.02l-.12.04c.01-.06.02-.11.03-.17Zm.06-5.04s0,0,0,0h0s0,0,0,0c0,0,0,0,0,0Zm-5.19-7.5s.01.02.02.03h-.02s0-.02,0-.03Zm5.12,19.99s0,0,0,0c0,0,0,0,0,0,.04-.05.08-.08.12-.12,0,.04,0,.08.01.13-.04,0-.09,0-.14,0Zm3.86.03c-.07.07-.14.13-.2.19-.02,0-.05,0-.07,0,.09-.06.18-.12.27-.19Zm-26.1-17.11s0,0,0-.01c0,0,0,.01,0,.02,0,0,0,0-.01,0Zm-20.04,19.42s0,.02,0,.03c-.03,0-.05,0-.07,0,.02-.01.05-.02.07-.03Zm-.75.06s-.02,0-.03-.01c.01,0,.02,0,.03,0,0,0,0,0,0,.01Zm-1.5-2.28s0,0,0,.01c0,0,0,0,0-.01h0Zm42.43,5.83l.06.03s-.04.01-.06.02c0-.02,0-.03,0-.05Zm-38.07,1.62s0,0,0,0c0,0,0,0-.01,0,0,0,0,0,0,0Zm20.4-30.19s0-.03,0-.05c0,.01,0,.03,0,.04,0,0,0,0,0,0Zm-.96,1.23v-.03s.01,0,.02,0c0,0-.01.01-.02.02Zm-79.55,113.49s0,0,0,0c0,0,0,0,0,0,0,0,0,0,0,0,0,0,0,0,0,0Zm66.18,6.85c.03.05.05.09.08.14-.03,0-.06-.02-.08-.03,0-.04,0-.07,0-.11Zm35.53.72c.03-.1.05-.18.06-.26.13.09.05.17-.06.26Zm-12.42-97.47s.02.02.03.03c-.02,0-.04,0-.06.01.01-.01.02-.03.04-.04Zm43.12,4.59c.02.06.03.12.05.18,0,0-.15-.07-.15-.08.03-.03.07-.07.1-.1Zm22.16.06s.03,0,.07-.02c0,0,0,.01,0,.02-.03.01-.06.03-.09.04,0-.01,0-.03.01-.04Zm-73.53-24.53s-.03-.03-.04-.04c.02,0,.03,0,.04,0,0,.02,0,.03,0,.05Zm-29.52,23.6c.07-.05.14-.1.21-.15-.07.05-.14.1-.21.15Zm13.89,10.42s.03.08.04.13h0s-.06,0-.1,0c.02-.04.04-.09.05-.13Zm48.97,28.76c.07.03.13.06.2.1-.06.05-.13.1-.21.15,0-.08,0-.17.01-.25Zm71.32-25.69s.02.03.02.05c-.07-.01-.13-.01-.2-.02.06-.01.12-.02.18-.03Zm-22.22-43.05c.26-.03.47-.08.65-.13-.18.08-.44.09-.65.14h0Zm-22.27-.73s-.01.01-.02.02c0,0,0-.02,0-.02,0,0,.01,0,.02,0h0Zm-23.04-43.77h0s0,0,0,0h0Zm-44.53,40.87s0-.01,0-.02c.01,0,.03,0,.04.01-.01,0-.03,0-.04,0Zm-2.97-7.57s-.04.06-.04.06c0-.01-.01-.02-.02-.03.02-.01.04-.02.07-.03,0-.05,0-.09,0-.14.04.03.07.06.11.09-.04.02-.08.03-.12.05Zm-10.29,3.89s0,0,0,0c0,0,0,0,0,0h0Zm-12.78,31.1s0-.06,0-.09c.01.02.02.03.04.05-.01.02-.02.03-.04.05Zm-7.9,32.61c-.78-2.83-.87-5.74-1.32-8.6-.09-.15-.18-.26-.28-.37.43-.5.86-1,1.29-1.51.5-.24,1-.49,1.5-.73.98-.51,1.96-1.01,2.94-1.52.85-.27,1.73-.5,2.29-1.29,3.73-.93,6.95-3.07,10.46-4.49.71.26,1.3.93,2.17.58,1.72.8,3.44,1.6,5.16,2.4.81,1.56,2.25,2.29,3.76,2.95,0,.02,0,.03,0,.05,0,0,0,0,0,.01-.84.91-.84,1.87-.15,2.87h0,0c-.45,3.2-3.76,4.17-5.15,6.64-.49.49-.99.99-1.48,1.48-.51.51-1.03,1.02-1.54,1.53-1.32,1.01-3.28.74-4.39,2.18-1.51,1.25-3.02,2.5-4.52,3.75-1.34-1-2.85-.74-4.35-.57h-1.46c-.11,0-.21,0-.32,0-.07-.08-.13-.16-.21-.23-.5-.32-1.03-.37-1.58-.15-.11.12-.2.25-.27.37-1.18-.07-2.15-1.22-3.43-.78-.13-.13-.29-.21-.46-.23.23-.65.22-1.29-.02-1.92,1.88.21,1.64-1.29,1.32-2.43Zm-44.77,58.62s.05,0,.08.02c-.03.03-.07.06-.1.09,0-.04.02-.06.03-.1Zm56.38,23.87s0,.04-.02.06c-.01,0-.02-.01-.04-.02.02-.01.03-.02.05-.03Zm23.75-7.42s0-.09,0-.13c.02.02.04.03.06.05-.02.03-.04.06-.05.08Zm95.1,11.93s0-.03,0-.05c0,0,.02,0,.03-.01,0,.02-.02.04-.03.06Zm14.08-3.04s.02,0,.04,0v.03s0,0,0,0c0,0,0,.02,0,.02v-.02l-.03-.03Zm23.07-13.3s0-.04,0-.05c0,0,.02.01.03.02-.01.01-.02.02-.03.04Zm3.73-1.57s0,0,0-.01c0,0,.01,0,.02.01.08,0,.13.03.2.04-.07.09-.15.18-.23.26,0-.1.02-.2.02-.31h-.02Zm10.51-1.55c-.06-.02-.12-.03-.2-.05.02-.01.04-.02.06-.04.05.03.1.06.14.09Zm-43.75-62.74c-.22.18-.39.37-.54.57-.38,0-.77,0-1.15,0-1.28-.25-2.51-.26-3.62.57-.46-.97-1.19-1.52-2.29-1.52-.74-.74-1.48-1.49-2.22-2.23-.21-.81-.91-.61-1.46-.72-1.23-.73-2.46-1.47-3.69-2.21-.74-.74-1.47-1.48-2.21-2.22-1.56-2.56-5-3.73-5.35-7.19,1.61-.79.21-1.56,0-2.34,0-.01.02-.03.02-.04,0-.02,0-.04,0-.07,1.98-1.33,3.96-2.65,5.94-3.98.13.05.26.1.42.14,1.77,0,3.42-.6,5.09-1.04.06-.03.13-.07.19-.1,1.04,1.38,2.5,1.79,4.29,1.44,1.53,2.55,4.29,2.61,6.74,3.3.16-.03.32-.08.47-.13.91,2.23,2.94,2.6,5.05,2.83.02-.01.04-.03.06-.04.05.77.37,1.35,1.27,1.53.07-.02.12-.05.18-.07.24.91.48,1.81.72,2.72-1.3,1.92-.38,4.39-1.56,6.35-.47.79-1.09,1.64-.29,2.42-.02.05-.05.09-.07.15-.04.26-.04.52.01.76-2.04.18-4.06.45-6.01,1.13Zm24.38-4.14c-.13.03-.24.07-.35.1.05-.08.12-.16.22-.23.04.04.09.08.13.13Zm-72.12-77.12h0s0,0,0,0,0,0,0,0h0Zm-11.85-24.59s-.03,0-.04,0v.15s-.06.01-.09.02c.03-.06.06-.11.09-.17l.03-.03s0,.03,0,.04Zm-17.12,10.48l-.08-.05s.02-.01.03-.02c.02.02.03.05.04.07Zm-26.72,30.46c.05-.01.1-.02.15-.04,0,.01,0,.02,0,.04h-.14Zm-14.04-3.93c.02.11.04.21.06.32l-.1-.07s0-.09-.02-.13c.02-.04.04-.08.06-.11Zm-65.05,101.88s-.05-.08-.07-.12c.09-.03.16-.08.25-.11-.07.08-.12.15-.18.23Zm101.97,34.3c.09,0,.16.02.24.04-.07.02-.14.05-.22.09,0-.04-.01-.09-.01-.13Zm134.68-21.46s.03-.08.04-.13c0,.04.02.08.02.12h-.06Zm-35.87-52.17c-.03.07-.05.13-.08.19-.04-.06-.09-.12-.13-.19.07,0,.14,0,.2,0Zm12.13,5.82c-.06.07-.11.13-.17.2l.04-.2s.09,0,.13,0Zm-72.2-83.75s-.02.03-.03.04c0-.01,0-.02,0-.04h.03s0-.02,0-.03c0,0,.01.02.02.02,0,0-.01,0-.02,0Zm-119.61,181.87c0,.05,0,.1-.02.16-.03-.04-.05-.06-.08-.1.03-.02.06-.04.1-.06Zm66.86-29.64c.05,0,.1,0,.15,0-.03.03-.06.06-.09.09,0,0,0,0-.01.01,0,0,0-.01,0-.02,0,0,.01,0,.02,0,0,0-.06-.1-.06-.1Zm32.84,15.66c-1.21,1.22-1.2,2.44-.02,3.67-.18,0-.36,0-.54.03-1.24,1.25-1.82,2.7-1.35,4.46.06.07.13.14.2.21-1.19,1.02-1.43,2.34-1.08,3.86.22.12.45.2.69.26-.04.04-.08.08-.13.13-.33.6-.08.79.47.77-1.21,1.62-.83,3.58-.97,5.42.06.23.14.44.24.61-.81.19-1.33.6-1.43,1.36-.67-.2-1.33-.4-2.04-.13.11-2.53-.81-4.93-.91-7.43-.04-.1-.09-.2-.13-.29,2.13-2.37.24-4.61-.75-6.88-.23-.08-.44-.12-.65-.16.56-.74.55-1.27-.46-1.44.08-.07.16-.15.23-.25.99-2.41.45-4.99.81-7.48,0-.06-.02-.13-.02-.19,3.08,1.72,4.27,1.7,6.25-.29.19,1.23.48,2.42,1.07,3.53.21.03.41.1.62.15-.03.04-.06.06-.1.1Zm9.42-15.7s-.01.06-.02.1c-.03-.01-.05-.02-.08-.03.03-.02.07-.05.1-.07Zm121.93,54.84c.02.05.05.1.08.15-.03.02-.07.03-.1.05,0-.07.02-.14.02-.2Zm2.13,23.35s-.08,0-.12,0c.03-.06.07-.1.11-.17,0,.05,0,.11.01.16Zm-5.11,17.71s0,.06,0,.09c-.01-.02-.02-.05-.03-.07,0,0,.02-.01.03-.02Zm37.17-21.55s-.01-.01-.01-.02h0s0,0,0,0c0,0,.01,0,.02,0,0,0,0,.01,0,.02ZM129.33,99.03s-.03.02-.05.03c0-.02,0-.03,0-.05.02,0,.03.01.05.02Zm-28.07,20.97s0-.04-.01-.06c.01,0,.02,0,.03,0,0,.02-.01.04-.02.06ZM31.99,268.52s0-.07,0-.11c.05.02.09.03.13.05-.04.02-.09.04-.13.06Zm66.19,45.88c-.01-2.14-1.31-3.06-3.33-3.3-.18.09-.35.16-.52.22-1.04-1.04-2.08-2.08-3.12-3.12-.03-.18-.05-.37-.07-.56-.17-.7-.53-1.26-1.21-1.56-.05,0-.09,0-.14.01v-.58c-.14-1.92.83-3.95-.42-5.76-.04-.08-.1-.17-.19-.26-.21-2.17-.77-4.21-2.21-5.92-.49-.5-.99-.99-1.48-1.48-.23-.72.4-1.71-.68-2.17-1.22-1.36-2.34-2.78-3.01-4.5-1.3-1.68-2.18-3.77-4.47-4.46-1.62-2.21-2.96-4.53-3.13-7.35.54-1.18-.93-1.85-.75-2.94.08-1.65-.62-2.89-2.01-3.76-.07-.24-.15-.49-.22-.73-.25-1.24-.49-2.47-.74-3.71.31-.48.63-.96.94-1.44,2.87-.81,4.69,2.11,7.34,2.06.21.1.44.15.67.15,3.23,2.19,7.14,2,10.73,2.71,1.42.29,4.37.06,5.03-2.7.77-.86,1.53-1.72,1.28-3.01-.07-1.29.75-2.71-.58-3.8-.1-.42-.3-.71-.8-.53-.99-.34-1.64-1.73-2.98-.95-.24.07-.49.14-.73.21h0s0,0,0,0c-.72.5-1.45,1-2.17,1.49-.49-.16-.7.11-.81.53-1.72.07-3.45.14-5.18.21-1.14-1.35-1.95-3.01-3.62-3.87-1.91-3.63-2.16-8.03-5.2-11.13-.69-2.94-3.27-4.22-5.27-6.01-.78-.96-.82-2.47-2.22-2.96-1.09-.66-.27-2.26-1.42-2.9-.5-1.19.6-2.69-.74-3.71-.36-2.52-.52-5.08-1.71-7.41-.11-.13-.16-.28-.19-.44.06.15.13.29.19.44-.06-1.27.72-2.66-.54-3.74,0-1.72.01-3.43.02-5.15.47-.48.95-.95,1.42-1.43,1.16-.45.52-1.52.79-2.27.23-.01.46-.07.66-.17,1.73,1.21,3.46,1.29,5.2,0,.98.47,1.52-.43,2.24-.74,2.26-.13,4.62.86,6.77-.59,3.2-.52,6.55.89,9.67-.76,2.03.2,3.72-.2,5.19-1.88,1.78-2.05,3.89-3.81,5.86-5.7.47.01.94.02,1.41.03.77.33,1.53.66,2.29.99h0s0,0,0,0c.73.47,1.46.93,2.19,1.4,0,0,0,0,0,0,3.82,4.76,5.29,10.29,5.38,16.28-.37,1.13.04,2.08.72,2.96-1.48,2.09-.67,4.42-.72,6.67.11-.05.22-.09.34-.13-.1.08-.22.13-.34.13-.68,2.09.57,3.95.73,5.94-.15,1.78,1.17,2.6,2.3,3.55.26-1.88,3.72-1.57,2.88-4.21.57-.39,1.27-.67,1.26-1.54.3-.47.61-.94.91-1.42.48-.49.97-.97,1.45-1.46,3.06-1.56,6.16-3.07,8.23-6,.96-.43,1.48-1.16,1.48-2.23-.14-.02-.26-.04-.39-.05.13,0,.26,0,.39.05.23-.23.46-.46.69-.69,2.15-.65,4.12-1.67,5.94-2.99,1.18-.16,2.23-.61,3.04-1.52.47-.05.94-.11,1.41-.16,1.07.08,2.12.39,3.13-.39,2.07-1.58,4.24-1.34,6.42-.19,3.49,4.03,5.05,3.97,8.2-.34.28-.39.58-.77.87-1.15,4.38-1.68,9.26-1.92,13.28-4.62,1.74-.29,2.49-1.52,3.03-3.04.98-2.74,2.81-4.18,5.86-3.47h0c1.6,1.42,2.43-.55,3.64-.83.06-.23.11-.46.16-.68.96-.79,1.93-1.58,2.9-2.37.47.15.69-.1.81-.51.24-.08.47-.15.71-.23.29.3.57.6.86.91.04.08.08.16.12.24.36,1.14-2.43,2.79.48,3.52,0,.44-.01.87-.02,1.3-1.28-.01-2.1-2.34-3.69-.72.06,3.41,2.88,1.77,4.45,2.42,1.47,1.74,1.32-.89,2.17-.81h0c2.82,1.32,3.77,3.95,4.68,6.62,0,.75,0,1.5,0,2.25.24,1.24.49,2.48.74,3.73h0c0,.73,0,1.46,0,2.2-.46.98.41,1.52.75,2.23-.05,1.88.37,3.65,1.3,5.28-.12,2.95.38,5.64,3.15,7.35-.61.91-1.17,1.83-.75,2.99-.67,1.66-1.19,3.35-.74,5.18-.35,1.33-.07,2.4,1.28,3.01.16.54-.06,1.29.76,1.5-.04,1.09.2,2.09.94,2.93-.05.95-.1,1.9-.15,2.85-.03-.02-.06-.04-.09-.06-1.52.28-1.79,1.61-1.97,2.74-.36,2.24-1.39,4.1-2.7,5.87-.04.17-.05.34-.07.51-.11.03-.23.06-.34.1-1.34-.24-.03-2.85-2.15-2.39-.15-.54.06-1.27-.74-1.48-1.09-1.64-1.08-3.96-3.09-5.04h0s0,0,0,0c-1.84-1.34.61-4.37-2.11-5.36-3.29-2.67-4.84-7.11-8.98-8.93-.23-.24-.45-.47-.68-.71-1.77-1.19-3.55-1.17-5.35-.04h.01c-.95.35-2.2-.55-2.93.7-1.72.07-3.44.14-5.16.22-.21-.1-.44-.15-.68-.16-.86-1.43-2.13-2.11-3.8-2.07-3.09-1.79-5.84-4.31-9.68-4.47-1.49-1.51-3.71-1.22-5.4-2.23-2.16-1.3-.82.94-1.33,1.31-1.47-2.09-3.29-3.72-5.88-4.26-.64-.22-1.34-1.33-1.83-.7-1.81,2.3-5.02,3.01-6.4,5.74-.79.21-.61.88-.68,1.43-1.7,1.1-2.9,2.62-3.72,4.45-.91.81-1.36,1.84-1.54,3.02-.97,1.22-1.95,2.44-2.92,3.67-.74.74-1.48,1.48-2.22,2.23-2.37,2.06-3.57,4.76-2.74,7.73,1.18,4.21,2.89,8.28,4.37,12.41,0,.74,0,1.49,0,2.23-.58,6.09.33,11.86,3.56,17.16,0,0,0,0,0,0-.48.68-.49,1.37,0,2.06-1.08,1.89-.84,4.07-1.35,6.09-.17.07-.33.14-.5.22-.88.57-1.33,1.47-1.54,2.42-1,4.45-3.74,7.13-7.96,8.77-2.66,1.04-4.66,3.1-5.19,6.16.05.05.1.11.15.17-.42.11-.69.31-.53.81-.57.72-1.13,1.45-1.7,2.17-.97,1.02-1.47,2.47-2.84,3.12-.5-.16-.71.12-.82.54-1.22.07-2.45.13-3.67.2-.64-.64-1.41-.81-2.2-.87-.47-.22-.93-.45-1.14-.79-.84-.48-1.68-.73-2.52,0Zm49.44,70.56s.02.01.02.02c0,0-.02,0-.02-.02Zm.34.04s0-.01,0-.02c.1-.04.08-.01,0,.02Zm198.85-29.63s.05-.05.09-.08c0,.04,0,.08,0,.13-.03-.02-.06-.03-.09-.05Zm.74-2.34s-.03,0-.04-.01c.02-.01.03-.02.05-.04,0,.02,0,.03-.01.05Zm-26.92-38.84c0,.06.03.11.04.16-1.9-1.1-3.56-.11-5.22.73-.25.28-.54.56-.79.84-1.42.1-2.83.1-4.17-.6-.22-.1-.44-.16-.68-.2-.72-.97-1.44-1.93-2.16-2.9,0,0,0,0,0,0-.8-.94-1.6-1.89-2.4-2.83.09-.06.16-.13.25-.18-.57-3.76-3.26-5.67-6.42-6.96-3.08-1.25-5.19-3.21-6.11-6.44-.27-.95-.71-1.84-1.37-2.6-.29-.26-.57-.53-.87-.77-1.4-5.08-2.24-10.13,1.04-15.02.24-.36,0-1,.15-1.44,1.66-4.68,0-9.67,1.46-14.4.99-3.18,3.08-6.01,3.08-9.5,1.75-3.44-.06-5.91-2.25-8.27-1.72-1.72-3.44-3.44-5.16-5.16-1.85-5.7-5.23-10.17-10.46-13.18-.49-.31-.98-.62-1.47-.94-1.94-2.54-3.15-.44-4.52.7-1.74.38-2.93,1.37-3.48,3.1-.49-.67.35-2.9-2.12-1.12-1.31.95-3.59,1.58-5.56,1.94-1.25-.19-2.12.5-2.95,1.28-1.71.33-3.15,1.18-4.48,2.25,0,0,0,0,0,0-1.73.29-3.16,1.2-4.5,2.27-.55.08-1.23-.1-1.44.69-2.5.44-4.92-.29-7.38-.53-.24-.07-.48-.14-.72-.21-1.79-1.1-3.56-1.11-5.33.06-.23.22-.45.45-.68.67-1.54.06-2.27,1.18-3.02,2.28-1.98,2.23-3.97,4.46-5.96,6.68-.92.44-1.52,1.08-1.43,2.18-1.49,3.22-2.98,6.45-4.47,9.67-1.7-.26-1.84,1.45-2.76,2.17-.07-.25-.11-.51-.11-.79-1.21-1.55-1.73-3.37-2.4-5.19-1.07-2.92-.52-5.95-1.18-8.85-.09-.04-.16-.06-.24-.1.55-.69,1.1-1.38,1.66-2.07,1.12-.81.49-1.91.49-2.91.64-1.41-.72-2.44-.73-3.73,0-.49,0-.98,0-1.47.55-1.2-.96-1.88-.75-3,.26-1.23,3.5.52,2.24-2.24,1.26-1.27.71-2.91.92-4.4,1.26-.73.41-1.98.71-2.94.99-2.15,1.79-4.33,1.34-6.76.06-.72.11-1.44.17-2.16h0c1.13-.54.6-1.48.56-2.31.48-3.27,1.11-6.46,4.59-8.01.88.69,1.68,1.85,2.89.46,1.68-.04,3.88.85,3.82-2.2-.49-.43-.98-.86-1.48-1.29-.15.23-.34.42-.55.59.19-.44.29-.91.15-1.46-.3-.81-.74-1.49-1.59-1.8.31-.3.61-.6.92-.89,0,.02.01.04.02.06,1.21,1.71,3.07,2.48,4.84,3.39.46.21.93.43,1.39.64,0,0,0,0,0,0h0c.7.27,1.09,1.14,2.18.57,2.29-1.21,4.07-.34,5.34,1.79.85,1.33.58,3.49,2.81,3.8,1.31,1.05,2.71,1.93,4.41,2.2,3.42,1.39,7.21,1.74,10.42,3.71,0,0,0,0,0,0,0,0,0,0,0,0,2.55,4.47,3.86,4.66,7.88,1.49,1.18-.93,2.68-1.45,4.03-2.16,2.59,2.12,5.72,2.61,8.9,2.94,1.81,1.33,3.79,2.35,5.95,2.98,1.27.68,2.23,1.66,2.92,2.91.49.49.98.99,1.47,1.48,1.23,1.98,3.22,2.92,5.26,3.78.42.96,1.15,1.47,2.21,1.47.72.73,1.45,1.46,2.17,2.19-.04,1.08.55,1.76,1.45,2.23-.8,2.69,2.59,2.37,3.01,4.18,1.13-.57,2.04-1.71,2.1-2.68.13-2.05,1.46-3.93.83-6.05-.12-2.48.83-5.07-.73-7.42.06-.22.11-.43.15-.66,0,0,0,0,0,0,0,0,0,0,0,0,1.35-1.17.57-2.72.67-4.08.37-5.35,1.86-10.27,5.28-14.5.48-.3.95-.6,1.43-.89.76-.43,1.53-.85,2.29-1.28.45-.07.89-.14,1.34-.21.29,0,.59,0,.88,0,.97.82,1.94,1.63,2.91,2.45l.73.73c1.69,2.75,3.78,4.82,7.37,4.4,3.11,1.61,6.45.25,9.65.74,1.88,1.53,4.03.45,6.05.6.75.25,1.49.49,2.24.74,1.97.54,3.93,1.73,5.9,0,1.38.28.17,2.13,1.48,2.44,2.11,1.8,1.47,4.23,1.49,6.5-1.35,1.08-.54,2.5-.6,3.79-1.35,2.82-1.38,5.97-2.23,8.92-.25,1-.49,2-.74,2.99-.31.72-.61,1.43-.92,2.15-1.32.28-1.13,1.89-2.16,2.43-.76.68-1.51,1.35-2.27,2.02,0,0,0,0,0,0-1.42,1.23-2.54,2.66-3.03,4.51,0,0,0,0,0,0-1.37.59-1.62,1.98-2.14,3.13-1.3,2.87-1.95,6.02-3.74,8.69-2.73,2.76-5.78,4.14-9.59,2.23-.42-.96-1.13-1.5-2.21-1.47-.28-.84-.9-.69-1.53-.55-1.13.25-1.68,1.16-2.27,2.02-1.57,2.72-.67,5.13.9,7.47,1.67,1.53,3.46,2.63,5.83,1.62h0s0,0,0,0c4.5-.38,8.99-.78,12.71-3.78,1.35.33,2.33-.79,3.57-.9.49.06.99.12,1.48.18,1.16,1.43.87,2.78.13,4.37-.79,1.7-2.29,3.13-2.17,5.21.2,1.11-1.28,1.8-.74,2.99-.7,3.22-1.86,6.17-4.55,8.29-1.87.88-2.33,3.01-3.78,4.27h-.01c-1.19.66-.41,2.33-1.53,3.02-1.04.74-2.21,1.37-2.17,2.91-2.47,2.2-2.19,5.58-3.55,8.25v5.94c-.06.13-.1.27-.13.41-.14,0-.29.01-.43.01-2.99,2.16-6.44,3.82-8.01,7.49Z"/><path class="cls-1" d="m239.04,36.97c.66-.02,1.28-.89,2.08-1.49-1.86-.87-2.55-2.89-4.4-3.11-1.24-.14-1.38,1.05-1.07,1.84.6,1.48,1.6,2.83,3.38,2.76Z"/><path class="cls-1" d="m179.05,36.68c-.07-.08-.15-.15-.23-.23.1.05.18.12.23.23,1.77,1.82,2.57.2,3.54-.97.76-.91,1.42-2.09.51-2.92-1.51-1.4-2.22.59-3.27,1.17-.74.41-1.48.83-2.22,1.25-1.8,1.53-4.92-.29-6.34,2.32,2.52-1.3,5.18-.84,7.78-.85Z"/><path class="cls-1" d="m248.15,37.61c-1.39-2.47-3.39-1.39-5.1-1.37,1.73-.33,2.96,1.71,5.1,1.37Z"/><path class="cls-1" d="m71.66,154.42c-.09.21.13.55.29,1.05.36-.38.69-.58.74-.84.05-.25-.19-.56-.3-.84-.25.2-.62.36-.72.63Z"/><path class="cls-1" d="m346.9,153.88c-.45-.28-.56.13-.67.59.13.2.25.58.5.7.39.2.7-.11.66-.48-.03-.29-.25-.66-.49-.81Z"/><path class="cls-1" d="m221.39,106.92c.29.05.63-.18.94-.28-.1-.31-.16-.69-.23-.69-.33,0-.77-.02-.97.18-.29.27-.14.72.26.79Z"/><path class="cls-1" d="m196.54,106.72c.08.21.61.38.9.35.26-.03.48-.38.84-.69-.44-.25-.72-.54-1-.55-.53,0-.95.33-.73.9Z"/></svg>