<?xml version="1.0" encoding="UTF-8"?><svg id="Layer_2" xmlns="http://www.w3.org/2000/svg" viewBox="0 0 421.65 404.13"><path d="m204.63,348.95c-1.68-1.32-1.79-1.62-.31-3.65,1.15-1.42,1.36-2.84.74-4.36-.42-1.22-.42-2.94.1-3.85.53-.81,1.05-3.55,1.26-5.98.1-2.43.94-5.58,1.68-6.9.73-1.32,1.26-4.77,1.16-7.61-.63-11.16-.32-16.94.84-18.05,2.52-2.43,3.15,2.43,2.31,18.05-.11,2.84.31,6.19,1.05,7.4.63,1.32,1.47,3.96,1.68,5.98.21,2.13.74,4.87,1.05,6.29.42,1.42.63,3.85.52,5.38-.21,1.52.31,3.55,1.05,4.36,1.05,1.22.84,1.72-.73,2.84-1.99,1.42-4.62,1.12-4.62-.51,0-.51-.74-.91-1.57-.91s-1.57.41-1.57.91c0,1.62-2.62,1.93-4.62.61Z"/><path d="m122.63,232.83c-.84-1.32.52-1.32,2.62,0,1.36.81,1.36,1.01-.21,1.01-.95,0-2.1-.4-2.41-1.01Z"/><path d="m296.39,232.83c.84-.51,2.1-1.01,2.62-1.01.63,0,.31.51-.52,1.01-.84.51-2,1.01-2.62,1.01-.53,0-.32-.51.52-1.01Z"/><path d="m109.5,230.8c0-.71.31-1.01.73-.71.32.4.32,1.01,0,1.42-.42.3-.73,0-.73-.71Z"/><path d="m311.09,230.8c0-.71.31-1.01.73-.71.32.4.32,1.01,0,1.42-.42.3-.73,0-.73-.71Z"/><path d="m144.15,77.65c-2.21-1.32-1.47-1.62,7.66-3.45,6.19-1.22,8.71-1.42,10.29-.51,2.73,1.32,1.79,2.23-3.88,3.75-5.14,1.42-11.86,1.52-14.07.2Z"/><path d="m262.58,77.25c-5.15-1.52-5.77-2.33-2.84-3.65,2-.91,4.51-.71,10.29.41,8.61,1.72,9.66,2.33,7.46,3.65-2.1,1.32-10.08,1.12-14.91-.41Z"/><path d="m206.83,342.66c-.94-2.13-.84-2.74.63-3.85,1.36-.91,1.68-2.03,1.15-3.95-.52-2.33-.31-2.64,2.21-2.64s2.73.31,2.31,2.23c-.42,1.42,0,2.94,1.05,4.06,1.37,1.42,1.47,2.33.52,4.26-1.58,3.35-6.3,3.25-7.87-.1Z"/><path d="m209.25,327.65c0-.81.73-1.52,1.57-1.52s1.57.71,1.57,1.52-.74,1.52-1.57,1.52-1.57-.71-1.57-1.52Z"/><path d="m151.71,95.71c.63-1.62,8.4-2.94,9.77-1.72,1.57,1.52-1.47,2.94-6.09,2.94-2.83,0-3.88-.41-3.67-1.22Z"/><path d="m163.26,92.66c.32-.71,1.37-1.52,2.31-1.62,1.26-.3,1.79.1,1.47,1.01-.31.71-1.36,1.52-2.31,1.62-1.26.3-1.79-.1-1.47-1.01Z"/><path d="m260.69,95.91c-2.62-1.62.21-2.94,4.62-2.23,5.56.91,6.3,3.24.95,3.24-2.21,0-4.72-.51-5.56-1.01Z"/><path d="m254.92,92.77c-.42-.61-.42-1.32-.11-1.62.84-.81,3.78.51,3.78,1.72,0,1.32-2.84,1.32-3.67-.1Z"/><path d="m189.3,395.91c.73-4.06,1.68-7.81,2.1-8.42.42-.51,1.15-2.54,1.57-4.46.94-4.26-.84-3.55-3.04,1.22-2.2,4.66-4.93,18.46-3.99,19.47,1.15,1.12,1.99-.91,3.36-7.81Z"/><path d="m235.6,398.34c-.1-2.64-.74-5.17-1.26-5.68-.53-.61-.94-2.03-.94-3.14,0-2.74-2.94-8.62-4.31-8.62-1.05,0-.21,4.77,1.16,6.59.31.61,1.26,4.26,2.1,8.11.73,3.96,1.57,7.51,1.78,7.91,1.05,1.83,1.78-.61,1.47-5.17Z"/><path d="m172.5,363.66c0-.51-.21-1.01-.42-1.01-.31,0-.84.51-1.15,1.01-.32.61-.11,1.01.42,1.01.63,0,1.16-.41,1.16-1.01Z"/><path d="m251.24,363.66c0-.51-.42-1.01-1.05-1.01-.53,0-1.05.51-1.05,1.01,0,.61.52,1.01,1.05,1.01.63,0,1.05-.41,1.05-1.01Z"/><path d="m129.98,106.05c6.09-3.75,10.71-5.07,18.58-5.07s11.65-1.32,21.63-7.4c3.88-2.43,7.87-4.66,8.92-5.07.94-.3,1.79-1.32,1.79-2.23,0-1.12-1.16-1.52-4.72-1.52-4.52,0-4.72-.2-4.72-2.84,0-1.52.73-3.85,1.78-5.17.95-1.42,1.68-4.26,1.57-7.1,0-2.54.74-5.88,1.57-7.61,1.16-2.13,1.26-3.45.52-5.07-.63-1.12-1.36-3.04-1.78-4.26-.32-1.22-2.73-4.06-5.25-6.39-2.62-2.33-5.04-5.48-5.35-7-.31-1.52-.74-3.35-.94-3.95-.21-.71,0-5.07.52-9.63,1.26-10.35.1-14.61-5.35-19.98-5.25-5.17-11.86-7.1-16.59-4.77-4.51,2.33-6.09,5.78-6.93,15.82-.42,4.77-1.16,9.13-1.58,9.63-.42.61-1.37,3.55-2,6.59-.63,3.04-2,7-2.94,8.62-1.36,2.33-1.89,5.68-1.89,14l-.11,10.85-5.46,4.46c-2.94,2.43-6.93,5.37-8.82,6.49-4.62,2.74-8.51,9.53-8.51,14.81,0,5.88,4.52,11.76,11.65,15.01,6.19,2.94,7.98,2.74,14.38-1.22Z"/><path d="m307.42,106.56c6.4-3.55,10.29-9.03,10.29-14.2s-3.78-12.07-8.51-14.91c-1.89-1.12-5.88-4.06-8.82-6.49l-5.46-4.46-.1-10.85c0-8.32-.53-11.66-1.89-14-.94-1.62-2.31-5.58-2.94-8.62-.63-3.04-1.57-5.98-1.99-6.59-.42-.51-1.16-4.97-1.57-9.84-1.16-13.89-5.57-18.46-15.01-15.92-8.29,2.23-16.9,14.1-14.38,19.88,1.26,3.04.94,17.95-.42,20.39-.73,1.32-3.15,3.95-5.35,5.88-2.31,2.03-4.41,4.56-4.72,5.78-.42,1.22-1.16,3.24-1.78,4.36-.74,1.62-.63,2.94.52,5.07.84,1.72,1.58,5.07,1.58,7.61-.11,2.84.63,5.68,1.57,7.1,1.05,1.32,1.79,3.65,1.79,5.17,0,2.54-.32,2.74-4.72,3.04-5.04.3-6.19,1.62-3.05,3.35,1.05.51,5.04,2.94,9.03,5.27,10.08,6.08,13.86,7.4,21.63,7.4s12.7,1.32,18.58,5.17c5.35,3.55,10.08,3.65,15.75.4Z"/><path d="m207.15,340.94c0-1.83,3.25-2.94,5.67-2.03,3.15,1.22,1.89,3.45-1.99,3.45-2.52,0-3.67-.51-3.67-1.42Z"/><path d="m195.39,374.71c.42-3.14,3.36-11.16,4.72-12.88.63-.71,2.52-2.03,4.3-2.94,2.94-1.52,3.26-1.42,4.72.41,1.57,1.93,1.68,1.93,3.26,0,1.57-1.83,1.89-1.83,4.83-.41,4.41,2.23,5.14,3.24,7.77,11.66,1.26,3.96,2.73,7.3,3.36,7.3.52,0,.63-.91.21-2.23-.84-2.43-.74-11.06.21-11.87.31-.3,1.36,0,2.52.71,2.62,1.62,3.25.41,2.1-4.46-1.26-5.27-.42-7.71,2.41-7.3,1.79.2,2.52,1.32,3.36,4.97.52,2.54,1.89,5.68,2.83,7.1q1.68,2.33,1.16.2c-.74-3.04,2.83-8.72,4.51-7.3,1.15.91,1.15.4.31-2.33-.63-1.83-1.36-4.16-1.68-5.07-.42-1.32,0-1.83,1.58-1.83,1.26,0,2.52.51,2.83,1.12,1.15,1.72,4.83-2.13,4.2-4.26-.95-2.84.52-9.03,2.2-9.03.73,0,1.78-.61,2.2-1.32.42-.81,1.68-1.62,2.73-2.03.94-.41,1.79-1.72,1.79-3.04s1.36-3.65,3.15-5.27c2.94-2.74,3.25-2.84,7.24-1.52,3.15,1.01,5.25,1.01,8.71.2,4.83-1.22,7.14-.3,4.52,1.83-.84.71-1.57,1.93-1.57,2.74,0,1.12.42,1.12,2.2.3,3.05-1.62,3.57-.61,2,4.06-1.16,3.25-1.16,4.56-.11,6.39.74,1.32,1.16,2.74,1.05,3.35-.52,2.13,1.47,4.46,3.36,3.96,1.15-.41,2.62,0,3.57.81,1.68,1.62,15.64,1.42,17.74-.2,1.47-1.22,3.15-.3,4.1,2.23,1.36,3.65,9.55,1.32,11.55-3.45.94-2.23,2.41-3.55,4.93-4.36,1.99-.61,4.2-2.23,4.83-3.55.74-1.32,3.25-3.35,5.67-4.36,4.2-1.93,4.3-1.93,7.03.2,1.57,1.12,3.47,3.04,4.2,4.06.84,1.12,2.21,2.03,3.05,2.03,2.1,0,1.89,1.93-.53,3.85-1.47,1.32-1.89,2.64-1.47,5.48.53,3.55.63,3.65,3.78,2.74,5.35-1.52,6.09-1.22,5.35,1.83-.63,2.43-.52,2.54,1.79,1.83,1.36-.41,4.51-.81,6.93-1.01,5.35-.3,9.97-2.94,9.55-5.38-.11-1.01.74-3.14,2.1-4.77,1.26-1.62,2.1-3.55,1.79-4.36-.32-.71,0-2.33.63-3.55.74-1.22,1.26-3.35,1.15-4.87,0-1.72,1.05-3.75,3.05-5.58,4.62-4.26,3.67-6.49-2.84-6.49-3.36,0-3.36-3.45,0-5.58,1.57-1.01,2.73-2.94,3.15-5.48.31-2.23,1.78-6.29,3.26-9.03,1.47-2.74,2.62-6.49,2.62-8.32s.73-4.46,1.58-5.88c.84-1.52,2.73-5.58,4.2-9.03l2.62-6.29-3.36-4.77c-1.79-2.64-4.72-5.58-6.61-6.59-1.79-1.12-3.88-2.94-4.52-4.16-3.15-5.98-5.46-14-5.56-19.57-.1-3.35-.74-7-1.26-8.11-2.73-4.87-1.36-17.75,2.1-20.49,1.05-.81,3.88-1.01,8.61-.61,9.45.81,18.37-1.12,21.1-4.46,2.62-3.25,1.99-4.06-6.72-9.13-6.3-3.75-6.4-3.85-3.25-4.36,4.41-.71,4.41-3.35.21-11.16-3.57-6.69-5.46-8.21-14.07-11.26-2.62-.91-4.1-2.54-6.61-7.2-2.94-5.88-8.29-10.95-11.23-10.95-.84,0-1.89-1.12-2.41-2.54-1.68-4.16-10.18-12.37-13.65-13.08-1.78-.3-5.25-2.43-7.87-4.77-4.31-3.85-5.04-4.16-8.82-3.55-2.52.41-5.88,0-9.13-1.12-6.51-2.03-7.77-3.04-7.77-5.98,0-1.42-1.05-3.04-2.62-4.06-2.62-1.62-2.83-1.62-6.09,1.32-4.41,4.06-9.24,6.39-13.54,6.39-2.41,0-4.41.91-6.51,3.04-1.68,1.72-3.57,3.04-4.2,3.04s-2.52,2.23-4.2,4.87c-3.05,4.67-7.03,7.3-13.44,8.72-1.68.41-2.94,1.12-2.94,1.62,0,1.52-2.42,1.22-5.25-.71-1.47-1.01-4.52-1.93-6.82-2.03-2.31-.2-4.52-.91-5.04-1.83-.84-1.52-5.04-2.13-6.4-.81-.42.41-2.94.61-5.56.41-4.09-.2-5.98-1.12-10.81-4.97-3.26-2.64-6.93-5.48-8.29-6.39-2.1-1.32-2.31-1.83-1.26-3.65,1.68-3.04,1.47-6.39-.42-7-.84-.41-1.57-1.72-1.57-2.94,0-1.32-.42-2.74-1.05-3.04-.53-.3-1.05-1.72-1.05-3.14,0-1.32-.42-3.25-.95-4.26-1.57-2.74-2.52-5.68-2.31-6.9,0-.61-.63-1.72-1.47-2.43-.84-.71-1.58-2.03-1.58-3.04,0-2.33-2.73-4.56-3.67-3.04-.52.81-1.16.81-2,.1-1.57-1.32-3.78.51-3.78,3.04,0,.91-.74,2.23-1.57,2.94-.84.71-1.47,1.83-1.47,2.43.21,1.22-.74,4.16-2.31,6.9-.52,1.01-.94,2.94-.94,4.26,0,1.42-.42,2.84-1.05,3.14-.52.31-1.05,1.72-1.05,3.04,0,1.22-.74,2.54-1.57,2.94-1.89.61-2.1,3.96-.42,7,1.05,1.83.84,2.33-1.26,3.65-1.36.91-5.04,3.75-8.29,6.39-4.83,3.85-6.72,4.77-10.82,4.97-2.62.2-5.14,0-5.56-.41-1.36-1.32-5.56-.71-6.4.81-.53.91-2.73,1.62-5.04,1.83-2.31.1-5.36,1.01-6.82,2.03-2.83,1.93-5.25,2.23-5.25.71,0-.51-1.26-1.22-2.83-1.62-6.51-1.42-10.5-4.06-13.54-8.72-1.68-2.64-3.57-4.87-4.2-4.87s-2.52-1.32-4.2-3.04c-2.1-2.13-4.09-3.04-6.51-3.04-4.3,0-9.13-2.33-13.54-6.39-3.26-2.94-3.46-2.94-6.09-1.32-1.57,1.01-2.62,2.64-2.62,4.06,0,2.94-1.26,3.96-7.77,5.98-3.25,1.12-6.61,1.52-9.13,1.12-3.78-.61-4.51-.3-8.82,3.55-2.62,2.33-6.19,4.46-7.87,4.87-3.47.61-13.65,10.45-13.65,13.08,0,.81-1.26,2.03-2.83,2.64-5.25,2.23-7.66,4.67-10.92,10.75-2.41,4.67-3.88,6.29-6.51,7.2-8.61,3.04-10.5,4.56-14.07,11.26-4.2,7.81-4.2,10.45.21,11.16,3.15.51,3.04.61-3.26,4.36-8.71,5.07-9.34,5.88-6.72,9.13,2.73,3.35,11.65,5.27,21.1,4.46,4.72-.41,7.56-.2,8.61.61,3.46,2.74,4.83,15.62,2.1,20.49-.52,1.12-1.16,4.77-1.26,8.01-.1,3.55-1.36,9.13-2.94,13.59-2.31,6.19-3.36,7.91-6.72,9.84-2.1,1.32-5.35,4.56-7.14,7.1l-3.25,4.67,2.62,6.29c1.47,3.45,3.36,7.5,4.2,9.03.84,1.42,1.57,4.06,1.57,5.88s1.15,5.58,2.62,8.32c1.47,2.74,2.94,6.8,3.25,9.03.42,2.54,1.58,4.46,3.15,5.48,3.67,2.33,3.36,5.58-.52,5.58-1.68,0-3.57.71-4.3,1.52-1.16,1.32-.84,2.13,2.1,5.07,1.89,1.83,3.15,3.96,2.83,4.77-.21.71.21,2.84.95,4.67.73,1.83,1.15,3.85.84,4.56-.31.81.63,2.64,1.89,4.26,1.37,1.62,2.21,3.75,2.1,4.77-.42,2.43,4.2,5.07,9.55,5.38,2.41.2,5.56.61,6.93,1.01,2.31.81,2.41.61,1.79-1.93q-.74-2.74,3.88-2.13t5.25-2.74c.42-2.54.1-3.75-1.47-5.07-2.41-1.93-2.62-3.85-.53-3.85.84,0,2.21-.91,3.05-2.03.74-1.01,2.62-2.94,4.2-4.06,2.73-2.13,2.83-2.13,7.03-.2,2.41,1.01,4.93,3.04,5.67,4.36.63,1.32,2.83,2.94,4.83,3.55,2.52.81,3.99,2.13,4.93,4.36,2,4.77,10.18,7.1,11.55,3.45.95-2.54,2.62-3.45,4.09-2.23,2.1,1.62,16.06,1.83,17.74.2.94-.81,2.41-1.22,3.57-.81,1.89.51,3.88-1.83,3.36-3.96-.1-.61.31-2.03,1.05-3.35,1.05-1.83,1.05-3.14-.1-6.39-1.57-4.66-1.05-5.68,1.99-4.06,1.79.81,2.21.81,2.21-.3,0-.81-.73-2.03-1.57-2.74-2.62-2.13-.32-3.04,4.51-1.83,3.46.81,5.56.81,8.71-.2,3.99-1.32,4.3-1.22,7.25,1.52,1.78,1.62,3.15,3.96,3.15,5.38,0,1.52.73,2.64,1.99,2.94,1.16.3,2.31,1.12,2.62,1.93.31.81,1.26,1.42,2.1,1.42,1.68,0,3.15,6.09,2.21,9.03-.63,2.13,3.04,5.98,4.2,4.26.31-.61,1.57-1.12,2.83-1.12,1.57,0,2,.51,1.57,1.83-.31.91-1.05,3.24-1.68,5.07-.84,2.74-.84,3.24.31,2.33,1.78-1.42,5.25,4.16,4.31,7.1-.52,1.52-.42,1.93.42,1.52.63-.41,1.16-1.42,1.16-2.23s.42-1.42.84-1.42c.52,0,1.36-2.13,1.89-4.77.74-3.85,1.47-4.97,3.25-5.17,2.84-.4,3.67,2.03,2.42,7.3-1.16,4.97-.42,6.39,2.1,4.16,1.05-.91,2.1-1.22,2.41-.81.94,1.52,1.15,9.74.31,12.37-.63,1.72-.53,2.23.52,1.93.84-.31,1.57-1.52,1.79-2.94Zm14.8-85.9c-.1-.71-.21-1.52-.31-1.93-.1-.51-.52-2.94-1.05-5.58-.42-2.64-1.26-5.07-1.78-5.48-.63-.3-1.99-2.54-3.04-4.87-2.31-5.38-6.82-10.14-9.76-10.55-3.04-.41-3.46-.41-16.8-.2-11.65.2-14.38-.51-14.38-3.95,0-.91-.95-2.74-2.1-4.16-1.78-2.33-2.62-2.54-8.92-2.33l-6.93.3-3.68-7.4c-1.99-3.95-4.93-9.43-6.4-12.07l-2.62-4.77,5.14-5.68c2.73-3.04,6.19-5.88,7.67-6.19,1.47-.41,4.51-2.43,6.82-4.56,2.41-2.23,6.19-4.97,8.61-6.19,6.72-3.55,12.91-7.81,12.91-8.93,0-.51,2.52-2.33,5.67-4.06,3.05-1.72,6.41-3.96,7.46-5.07,1.05-1.12,2.41-2.03,2.94-2.03.63,0,1.89-.61,2.73-1.42.95-.81,5.04-1.93,9.03-2.43l7.35-.91-6.51-.2c-3.57,0-6.72-.41-6.93-.81-.31-.51-.84-2.64-1.15-4.97-.63-3.65-.31-4.56,3.36-9.13,2.31-2.74,3.99-5.37,3.78-5.98-.21-.51.52-2.13,1.57-3.45,1.68-2.13,2.84-2.54,7.98-2.54s6.3.4,7.98,2.54c1.05,1.32,1.79,2.94,1.58,3.45-.21.61,1.47,3.25,3.78,5.98,3.67,4.56,3.99,5.48,3.36,9.13-.31,2.33-.84,4.46-1.15,4.97-.21.4-3.36.81-6.93.81l-6.51.2,7.35.91c4.09.51,8.08,1.62,9.03,2.43.84.81,2.1,1.42,2.73,1.42.52,0,1.89.91,2.94,2.03,1.05,1.12,4.41,3.35,7.45,5.07,3.15,1.72,5.67,3.55,5.67,4.06,0,1.12,6.19,5.38,12.91,8.93,2.41,1.22,6.19,3.96,8.61,6.19,2.31,2.13,5.35,4.16,6.82,4.56,1.47.3,4.93,3.14,7.66,6.19l5.14,5.68-2.62,4.77c-1.47,2.64-4.41,8.11-6.4,12.17l-3.78,7.3-6.82-.2c-6.3-.31-7.14-.1-8.92,2.23-1.16,1.42-2.1,3.25-2.1,4.16,0,3.45-2.73,4.16-14.38,3.95-13.33-.2-13.75-.2-16.8.2-2.94.41-7.46,5.17-9.76,10.55-1.05,2.33-2.42,4.56-2.94,4.87-.63.3-1.36,2.54-1.78,4.97-1.26,7.1-1.47,8.01-2.1,8.62-.32.3-.63,0-.63-.61Z"/><path d="m151.5,96.01c0-1.22,4.3-2.43,6.82-1.93,3.46.61,1.99,2.33-2.31,2.64-2.62.2-4.51-.1-4.51-.71Z"/><path d="m261.22,95.91q-.73-1.22,2.62-1.62c3.25-.3,6.3.41,6.3,1.72,0,1.22-8.08,1.22-8.92-.1Z"/></svg>