<?xml version="1.0" encoding="UTF-8"?><svg id="Layer_2" xmlns="http://www.w3.org/2000/svg" viewBox="0 0 427.1 441.38"><defs><style>.cls-1{fill-rule:evenodd;}</style></defs><path class="cls-1" d="m426.91,232.42c-2.04-3.89-2.38-8.45-4.82-12.18-1.68-2.15-3.64-4.01-5.72-5.76-.9-2.27-1.89-4.52-1.62-7.06,0,0,0,0,0,0,0,0,0,0,0,0,0-.96,0-1.91.01-2.87,0,0,0,0,0,0h0c0-.48,0-.96,0-1.44-.35-2.91-2.53-3.34-4.85-3.6-2.28-1.22-4.71-1.62-7.26-1.41-.69.04-1.38.09-2.07.13-1.79-.93-3.68-1.5-5.72-1.43-2.35-1.63-5.49-.17-7.78-2.02,0,0,0,0,0,0,0,0,0,0,0,0-.41-2.53-1.98-3.33-4.36-2.94h0c-2.74-1.61-5.53-2.76-8.64-.94,0,0,0,0,0,0,0,0,0,0,0,0-1.69-.13-2.79.73-3.57,2.13-.47.48-.95.95-1.43,1.43-.24.24-.48.48-.72.71-.46.31-.92.62-1.39.92-.48-.17-.66.11-.76.5-.68.03-1.36.05-2.04.08-1.18-1.19-1.75-2.6-1.63-4.29.2-.53.01-1.24.71-1.54,2.86-1.98,3.8-4.99,2.3-7.61-1.84-3.22-4.25-2.06-6.65-.78-.25.24-.5.47-.75.71-.91-1.03-1.77.17-2.66.05-1.31.25-1.7-1.36-2.86-1.42-.38-.32-.77-.64-1.14-.96,0,0,0,0,0,0,.81-1.87,1.66-3.77,2.38-5.62.73-1.91,2.87-4.01,1.02-6.46.37-2.37-1.66-4.14-1.62-6.42.34-1.08-.05-1.98-.72-2.81-1.54-2.22-3.74-3.34-6.35-3.75,0,0,0,0,0,0-2.66-1.67-5.58-1.36-8.5-1.17-1.63-.79-2.48-2.33-3.54-3.68-.3-1.44-.61-2.88-.91-4.32.56-1.13-.39-2.04-.45-3.08.44-.65.88-1.29,1.32-1.94,1.16.91,1.99.15,2.82-.57.98-.45,1.48-1.22,1.53-2.28,1.33-.85,2.44-2.12,4.19-2.13,1.71,1.12,2.34-.02,2.88-1.37,1.62-.31,2.61-1.25,2.91-2.89.94-.06,1.44-.48,1.24-1.49.49-.75.98-1.5,1.47-2.26,1.78-1.59.1-3.24.08-4.87-.41-2.5-1.65-4.69-4.02-5.37-2-.57-4.23-2.31-6.6-.03,1.04-1.86-.83-4.46.9-5.24,3.04-1.36,1.8-3.21,1.41-5.14.15-.21.3-.42.44-.63,1.09-.34,1.65-1.23,2.21-2.12,1.37-.67,3.32.47,4.17-2.04.92-2.72-2.34-.76-2.09-2.31,1.22-2.64,2.28-5.45,6.19-4.44.64.16.84-.68.97-1.25-.06-.04-.11-.07-.17-.11.03-.02.05-.03.08-.05h0s.09.16.09.16c1.75-2.33,2.85-4.84,2.2-7.84,1.23-1.75,3.86-3.18,1.37-5.81-.23-.24-.46-.48-.69-.72-.75-.92-.7-1.84-.03-2.78,0,0,0,0,0,0,1.46.12.66,1.84,2.03,2.59-.27-2.49,1.41-2.89,3.1-3.53,1.72-.65,3.53-1.29,4.88-2.67,2.47-1.03,4.98-2.01,5.73-5.01.84-.51.67-1.36.72-2.14.73-1.1,1.34-2.24,1.29-3.62,1.14-2.99,1.79-6.1,2.36-9.23,1.57-4.99.14-7.37-4.29-7.13-2.46,2.31-7.28,1.27-8.25,5.96-.13.62-1.94,1.33-2.07,2.79-.04.47-.54.89-1.02.67-.37-.16-.73-.64-.82-1.05-.42-1.92.15-3.75.59-5.59.89-1.98,2.36-3.99-.82-6.03,2.54.03,3.55-1.21,3.75-3.21.2-.4.39-.81.59-1.21-3.14-1.47-1.78-4.33-2.05-6.68-.25-2.89,1.88-5.13,2.14-7.88.64-.76.52-2.28,2.34-1.8.88.23,2.12-.25,1.25-1.76.25-1.5.45-3.01.76-4.5.46-2.24,1.08-4.51,3.64-5.15,2.55-.64,4-2.94,6.36-3.8.24-.09.48-.18.72-.27,1.05,1.03,2.17.98,2.8-.28.64-1.3,3.62-1.45,1.98-3.88,0,0,0,0,0,0,0,0,0,0,0,0,.42-1.76-.94-2.52-1.96-3.46-2.53.42-4.95,1.05-6.49,3.38-1.49.58-3.05,1.07-3.45,2.93-.33.05-.65.09-.97.14h0c-1.13-.01-2.25-.02-3.38-.03-2.53.75-5.67.57-6.35,4.15-.52.48-1.04.96-1.55,1.44-.59.03-1.22-.04-1.5.68-.44-.02-.89-.03-1.33-.05-.74-3.36-2.44.11-3.56-.49-.8-.04-1.71-.53-2.23.56-2.1.54-2.27,1.84-1.41,3.56-2.57,1.06-2.4,4.19-4.32,5.74-2.54,1.13-5,3.4-7.95,1.38-3.16-2.17-6.83-2.54-10.33-3.6-2.56-.77-4.51-.88-6.2,1.39-.5.68-1.02,1.09-2.06.46-1.84-1.13-.88.9-1.34,1.37-.9.02-1.8.04-2.7.06,0,0,0,0,0,0h0c-3.67-3.17-8.53-2.42-12.77-3.73-1.14-.35-2.97.74-3.27,2.56-.24,1.49.53,2.28,1.82,3.11,3.45,2.23,3.99,4.35,2.71,8.44-.31.99-.52,2.01-.75,3.03-.85,3.67-2.01,4.23-5.4,2.6-3.74-1.8-5.53-.92-5.99,3.25-.2,1.78-.78,3.04-2.53,3.28-2.01.28-2.79-.99-3.34-2.84-.68-2.3-1.75-4.52-2.87-6.66-.51-.98-1.31-2.19-2.75-1.82-1.35.34-.52,1.59-.72,2.41-.27,1.12-.63,2.2-.81,3.37-.36,2.36-1.91,3.48-4.41,2.74-3.83-1.13-6.53-3.44-8.42-7.06-3.88-7.44-9.41-13.65-15.41-19.44-1.12-1.08-2.71-2-3.88-.6-.83.98.06,2.44,1.01,3.42.75.77,1.58,1.46,2.27,2.28,2.33,2.74,4.66,5.49,6.1,8.85,1.43,3.33.46,4.76-3.2,4.7-.64,0-1.92-.23-1.74.57.51,2.27-1.54,4.42-.16,6.64.08.52-.11,1.17.65,1.36,0,0,0,0,0,0-.1,1.71,1.38,1.98,2.43,2.61,4.81,2.92,10.6,2.87,15.63,5.12,1.09.63,2.05,1.53,3.41,1.58,1.92.89,2.79,3.2,5.01,3.67.22.22.45.44.67.66,1.46,2.18,3.35,1.29,5.33.92,2.63-.48,4.59-2.82,7.5-2.45,1.17.15,2.53-.15,2.96,1.3.51,1.73-.98,2.26-2.13,2.69-3.07,1.14-6.2,2.12-9.31,3.17-1.91.09-2.3,1.22-1.95,2.86,0,0,0,0,0,0,1.57,2.72,4.93,3.68,6.43,6.47.39,1.66,1.17,3.18,1.35,4.94.52,5.12,4.44,7.53,8.59,4.42,5.15-2.15,6.07-1.9,7.93,2.1-.29.44-.57.89-.86,1.33-3.08,1.29-5.38,4.1-9.32,3.79-2.82-.22-4.57-2.3-7.06-2.87-1.41-.79-2.84-1.49-4.35-.21,0,0,0,0,0,0-.92-.04-1.46.57-2.11,1.12-5.58,4.74-5.91,11.74-7.95,18.05-1.58,4.88-3.1,10.22-9.08,11.5-2.38.51-3.79,1.55-5.27,3.36-2.27,2.77-4.79,5.43-7.6,7.65-9.08,7.18-13.03,17.36-16.74,27.72-1.04.42-.54,1.37-.73,2.09,0,0,0,0,0,0,0,0,0,0,0,0-1.11,3.61-2.21,7.21-3.31,10.82-3.2,4.49-3.2,8.95,0,13.39.63.87,1.32,1.81,1.21,2.91-.38,4.17,2.22,6.54,5.12,8.76,1.03,1.42,2.23,2.74,3.05,4.27,1.96,3.62.87,5.56-3.04,5.34-1.64-.09-1.32.85-1.45,1.71-2.51,1.31-2.17,3.6-2.02,5.83-.24,2.62-.48,5.25-.72,7.88.05,2.88-1.4,5.64-.71,8.58,0,.95,0,1.9-.01,2.84,0,0,0,0,0,0,0,0,0,0,0,0-.07.23-.12.46-.13.7-1.14,1.25-2.29,2.46-4.23,2.1,0,0,0,0,0,0-.77-1.17-1.21-2.54-3.07-.88-3.95,3.54-5.3,3.37-9.02-.44,0,0,0,0,0,0,0,0,0,0,0,0-.16-.57.09-1.33-.75-1.57.04-1.14.07-2.27.1-3.41,0,0,0,0,0,0,1.79.02,1.19-1.21,1.14-2.16.05-.7.1-1.4.15-2.11,1.39-3.05.46-6.25.56-9.38.65-.82.96-1.74.85-2.79,1.21-.7.46-1.89.71-2.84,1.33-1.57.52-3.38.58-5.09.54-1.36-.65-2.37-.72-3.61,0-.71,0-1.41,0-2.12,0-.48,0-.96,0-1.44-.2-3.63-.46-7.27.73-10.81.27-3.25,1.34-6.43.73-9.75.76-2.69-.65-4.95-1.45-7.34.2-1.29.36-2.56-.79-3.55,0-.96,0-1.93.01-2.89.03-.24.07-.47.1-.71.04-.93.09-1.86.13-2.79,1.17-1.83,1.3-3.98.96-5.91-.2-1.11.77-3.31-1.68-3.52-.28-.67-.55-1.35-.83-2.02.05-.48.1-.97.14-1.45-.01-.01-.03-.02-.04-.03.47-1.73,2.15-3.62-.7-4.89-.23-.06-.47-.12-.7-.18.65-2.94-.85-5.65-.88-8.51.3-1.36.24-2.74.61-4.14.51-1.92.82-4.21-1.21-5.8,0-.71.01-1.42.02-2.12,1.46-.73,1.33-1.79.63-2.98.48-1.57-.35-2.75-1.69-2.69-1.93.09-2.35,1.65-1.9,3.39-1.1,1.32-.05,2.04.78,2.83,0,.52-.01,1.04-.02,1.55-1.29.92-1.57,2.26-1.41,3.7.22,2.09.54,4.16.81,6.24-.08,2.86-1.69,5.56-.88,8.52-.23.05-.47.11-.7.17-2.74,1.29-1.3,3.15-.69,4.9-.01,0-.02.01-.03.02.05.48.1.96.14,1.45-.4.75-1.84.72-1.53,2.02-1.5,3.15-1.51,6.31-.04,9.47-.78.95.13,1.84.11,2.77.04,1.2.09,2.4.13,3.6-1.12.97-.97,2.23-.79,3.49-.83,1.85-1.91,3.65-1.45,5.82.46,1-1.88,1.86-.14,2.93-.37,2.87.79,5.58.88,8.4.23.73.47,1.45.7,2.18,0,3.11.01,6.22.02,9.33,0,.73,0,1.46,0,2.19,0,0,0,0,0,0,0,0,0,0,0,0,.13,1.48-1.21,2.71-.71,4.25.06,1.72-.76,3.54.58,5.11-.08,2.04.56,3.87,1.56,5.6.09,3.14-.83,6.33.56,9.39.04.68.09,1.36.13,2.03-.17.67-.2,1.29.58,1.62-.26,1.9-.57,3.79-1.41,5.55-1.45-.16-3.13,1.11-4.29-.73-2.01-2.75-3.03-2.61-5.64.8-2.12,2.45-3.53.35-5.09-.79-.04-.23-.09-.47-.13-.7.68-4.1-.43-8.11-.69-12.16-.24-2.62-.47-5.24-.71-7.87-.03-2.16.75-4.73-2.66-5.13-.15-.31-.37-.9-.43-.88-3.66,1.05-4.51-1.47-5.28-4.1-.08-.59-.03-1.25-.79-1.48t0,0s0,0,0,0c.04-.17.06-.35.08-.52.95-1.59,3.4-1.91,3.57-4.17.57-.18.82-.54.59-1.13,0,0,0,0,0,0,0,0,0,0,0,0,.66-.13,1.32-.27,1.99-.4,2.06.05,2.3-2.17,3.69-2.97h0c1.8-3.68,2.35-7.97,5.44-11.03.24-.24-.15-1.09-.21-1.66-.67-6.73-3.49-12.92-4.95-19.45-.4-1.78-1.12-3.92-3.15-4.93-1.72-3.84-3.36-7.71-5.48-11.37-2.53-4.35-4.86-8.86-8.92-11.99-3.69-2.85-7.25-5.79-9.81-9.72-.73-1.12-1.88-1.85-2.78-1.88-5.39-.13-7.73-3.9-9.32-8.03-2.03-5.22-3.34-10.72-5.13-16.04-1.07-3.18-3.1-5.63-6.46-6.69-1.44-.03-2.79-2-4.3-.17,0,0,0,0,0,0,0,0,0,0,0,0-.58.04-1.1.11-1.57.6-2.97,3.05-8.43,3.26-12.25.22-.77-.62-1.24-1.85-2.6-1.36-.27-.29-.53-.58-.79-.87h0s0,0,0,0c.79-3.55,1.96-4,5.36-3.7,1.66.14,2.39,1.99,4.06,1.47,1.16.7,2.31,1.64,3.59.21,1.72-.24,2.53-1.22,2.9-2.93.57-2.64,1.41-5.22,2.14-7.83-.05-.04-.1-.08-.15-.12,0,0,.01,0,.02,0l.13.12c1.61-1.47,3.22-2.93,4.83-4.4.1-.18.14-.36.14-.56,2.25-.56,1.79-1.74.7-3.06-.21-.74-.85-.54-1.36-.64,0,0,0,0,0,0-3.32-1.11-6.73-1.95-9.92-3.48-1.13-.55-1.84-1.17-1.52-2.37.28-1.03,1.21-1.19,2.24-1.31,2.11-.24,3.81.74,5.66,1.43,2.56.96,5.23,3.12,7.88.1.22-.22.44-.44.66-.65h0s0,0,0,0c2.24-.47,3.08-2.83,5.03-3.69.94-.52,1.88-1.04,2.82-1.56,1.74.34,2.88-1.15,4.52-1.42,4.16-.69,8.31-1.68,12.01-3.92.98-.59,2.34-.78,1.88-2.44.17-.56,0-1.31.83-1.52,1.28-2.17-.56-4.27-.15-6.48.14-.78-1.12-.54-1.77-.53-3.6.08-4.64-1.44-3.12-4.75,1.82-3.97,4.47-7.36,7.62-10.35,1.33-1.27,2.87-2.78,1.03-4.42-1.45-1.28-2.72.44-3.73,1.42-6.06,5.89-11.53,12.29-15.44,19.83-1.74,3.35-4.51,5.03-7.88,6.13-2.37.77-3.94-.4-4.31-2.45-.25-1.36-.8-2.67-.88-4.08-.04-.71.54-1.75-.74-2.04-1.16-.26-1.9.56-2.31,1.33-1.19,2.24-2.42,4.5-3.18,6.9-.6,1.91-1.25,3.45-3.47,3.12-1.96-.29-2.33-1.8-2.51-3.66-.31-3.24-2.31-4.53-4.75-3.45q-5.17,2.28-6.88-3.39c-.2-.66-.31-1.37-.6-1.98-1.63-3.44-.09-5.96,2.53-7.92,1.32-.99,2.9-1.59,1.94-3.6-.98-2.07-2.7-2.79-4.87-2.11-1.77.56-3.52,1-5.39,1.27-1.96.28-4.23.44-5.62,2.34-.9-.02-1.8-.04-2.7-.06-2-1.27-3.99-2.57-6.03-3.77-.35-.21-.99-.18-1.39-.01-2.98,1.2-6.29,1.1-9.25,2.52-3.39,1.63-6.91,4.04-10.57.43-1.52-.82-1.9-2.55-2.95-3.67-1.61-1.72-.61-4.87-3.4-5.78-.52-1.08-1.43-.6-2.23-.56-1.12.61-2.82-2.88-3.55.5-.72-.17-1.45-.34-2.17-.51-.75-.52-1.5-1.04-2.25-1.56-.85-3.9-4.2-3.56-7.01-4.14-.94,0-1.88,0-2.81-.01,0,0,0,0,0,0,0,0,0,0,0,0l-.04-.1c-.85-1.45-2.12-2.33-3.75-2.7-1.47-1.21-2.6-3.01-4.86-2.92-.94-.48-1.86-1.54-2.9-.14-1.28.62-1.39,1.76-1.29,2.97-.24,2.76,2.37,4.95,4.88,4.09.25.05.49.1.74.15,1.38,1.22,2.58,3.1,4.17,3.55,4.69,1.33,5.51,1.95,5.81,6.95.06,1.09.21,2.12.74,3.07-.72,1.69.12,1.83,1.47,1.49h0s0,0,0,0c2.56.68,2.05,3.49,3.45,4.97.17,1.02.53,2.05.48,3.06-.12,2.79,1.66,5.51.31,8.34-1.2-.6-2.41-1.09-1.84,1.11.22.86.79,1.64,1.19,2.45,0,0,0,0,0,0,0,0,0,0,0,0-.08,1.01,2.26.39,1.34,1.78-1.23,1.86-.11,3.21.66,4.69.25.48.51.96.76,1.45h0s0,0,0,0c0,1.63.04,3.26,0,4.89-.03.95-1.38,1.6-1.39,1.21-.07-2.97-4.44-3.56-3.63-6.84,1.88-3.55,1.4-4.14-3.3-4.18-.75,1.62,2.53,1.08,1.48,2.5-.98,1.32-2.32-.05-3.5-.3-.34-.07-.69-.12-1.04-.18-1.46-.57-2.91-1.76-4.38-.03-3.12,5.4.38,10.07,1.62,15-.32,1.67.48,3.01,1.28,4.35.59,4.26,3.64,6.23,7.18,7.75,0,0,0,0,0,0h0c.24.04.48.07.72.11,1.91,2.24,6.3,1.2,6.78,5.69.96-1.06.44-2.6,1.78-2.8,2.61,1.73-.37,2.33-.7,3.46-2.53,2.64.12,4.09,1.35,5.87-.66,2.4.04,4.48,1.51,6.38.29.69.59,1.37.88,2.06,0,0,0,0,0,0,.82,1.32,2.17.51,3.25.81,2.12.59,3.43,2.16,2.84,4.17-1.18,4.01-1.28,4.12,2.96,4.53.23.23.47.46.7.7.52.9,1.52,1.51,1.57,2.68-.03,1.26-.2,3.61-.07,3.62,4.66.58,1.29,4.2,2.57,6.2-1.79-2.82-3.68-.18-5.4-.46-.23,0-.47,0-.7.02-.95.71-1.89,1.42-2.84,2.14-.24.72-.47,1.44-.71,2.16-1.53,1.99-2.19,4.1-.81,6.45,0,0,0,0,0,.01.11.95.56,1.67,1.42,2.11,1.1,3.22,4.2,4.47,6.5,6.49.45.4.62-.38.71-.81,1.76,0,2.86,1.31,4.19,2.13h0c.04,1.07.52,1.84,1.51,2.28.83.71,1.64,1.51,2.82.61.45.65.89,1.3,1.34,1.96,0,0,0,0,0,0,0,0,0,0,0,0-.12,1.01-.96,1.92-.45,3.03-.3,1.43-.6,2.87-.9,4.3h0c-.86,1.53-2.05,2.71-3.58,3.55h0s0,0,0,0c-.69.05-1.39.1-2.08.15-1.72-.13-3.48-.46-5.02.71-1.11-.42-1.79.84-2.83.72-1.95.82-3.8,1.77-5.15,3.48-.79.83-1.31,1.7-.46,2.8.03,2.29-1.99,4.05-1.63,6.42-1.15,1.01-.62,2.05-.16,3.18,1.23,2.95,2.37,5.94,3.55,8.91-.63.49-1.26.97-1.9,1.46-1.15.27-2.3.54-3.45.81-.46-1.31-.96.07-1.43-.02-.21-.21-.41-.42-.62-.63-2.39-1.28-4.8-2.44-6.65.76-1.51,2.61-.58,5.6,2.27,7.63.98.53.39,1.56.73,2.29-.01,2.41-1.26,3.6-3.64,3.67-.49-.3-.97-.61-1.46-.91-.48-.48-.95-.96-1.43-1.43-.47-.47-.95-.94-1.43-1.42-.22-.23-.45-.45-.67-.68-.34-.62-.67-1.26-1.52-1.28-3.46-1.51-6.8-1.4-9.99.75-2.38-.38-3.98.41-4.39,2.95,0,0,0,0,0,0-2.29,1.84-5.43.39-7.78,2.02-2.05-.07-3.93.5-5.73,1.43-.69-.04-1.38-.09-2.07-.13,0,0,0,0,0,0,0,0,0,0,0,0-2.78-.21-5.43.29-7.92,1.56-4.32,1.07-4.5,1.37-4.18,7.06,0,.48,0,.95,0,1.43.2,2.1-.68,3.94-1.44,5.81-.54.67-1.09,1.33-1.64,2-1.18,1.18-2.35,2.36-3.53,3.54-.24.24-.47.48-.71.72-2.33,3.5-2.82,7.68-4.34,11.48-1.19,1.73-.85,3.39.2,5.03-.17.48.12.65.51.75.15.52-.06,1.22.72,1.44,1.64,2.33,3.96,3.76,6.53,4.84.88.22,1.08,1.46,2.13,1.43.22.09.45.16.68.21.7.7,1.39,1.4,2.09,2.1.95,1.2,2.33,1.34,3.7,1.48,0,0,0,0,0,0,0,0,0,0,0,0,.42.98,1.29.44,1.95.57,2.31,3.18,4.01.22,5.93-.59.47-.49.95-.98,1.42-1.46.83-.4,1.37.5,2.11.5.66.53,1.32,1.05,1.98,1.58h0c.08.26.16.52.24.78-.9,1.15-.96,2.14.52,2.85.41,2.11,2.21,3.06,3.62,4.33.54,1.16,1.07,2.32,1.61,3.48,0,0,0,0,0,0,.57,2.45.81,4.98,2,7.26.09.52-.04,1.14.66,1.36,2.34,4.05,5.24,7.35,10.29,7.86,3.18.32,5.97.95,6.65,4.92.22,1.3.84,2.95,2.38,3.7,1.13,2.4,2.98,4.16,5.04,5.75.71,2.94,3.8,3.95,5.16,6.36,2.07,2.1,3.74,4.46,4.81,7.23-.23,1.03-1.62,1.46-1.4,2.72-2.48,2.62-4.09,5.63-4.13,9.33.39,3.7,2.09,6.47,5.62,7.95,1.15.35,2.1,1.91,3.52.55,3.79-.18,5.75-3.01,7.94-5.51,4.78-.65,8.39,2.93,12.81,3.57,3.3,2.79,7.38,3.8,11.39,4.95.77.88,1.8,1.26,2.91,1.47,3.57,1.67,7.15,3.34,10.73,5.01,2.62,1.2,5.24,2.39,7.87,3.59,1.48,2.16,3.98,3.15,5.73,5,.57.93,1.09.63,1.59-.07,1.26.1,2.45-.13,3.55-.78,2.6-.91,5.2-1.26,7.77.12h0c1.76,1.43,2.96-.31,4.38-.77h0c.46-.23.92,1.24,1.38,0h0c2.21.68,3.89-.51,5.59-1.59.47-.2.93-.4,1.4-.61.98,1.01,2-2.38,2.96.03-.76,2.07,1.58,3.71.8,5.78,0,0,0,0,0,0,0,0,0,0,0,0-.06.21-.12.42-.17.64-.24.24-.48.48-.71.72-1.4.51-2.81,1.02-4.21,1.53-1.7-.46-2.65,1.37-4.2,1.38-3.56-.2-5.75,3.75-9.55,3.1-.99-.17-.64,1.17-.67,1.98-.08,2.73-.71,5.06-3.88,5.98-1.42.41-2.62,1.57-3.91,2.39-3.75-2.38-5.7-6.56-9.18-9.21-.76-1.58-2.58-1.89-3.71-3.12-2.16-2.34-4.44-4.37-8.27-3.62-1.12.22-1.74,1.04-2.92,1.15-4.68.44-6.52,2.55-6.67,6.89-1.71-.19-2.46.84-2.88,2.27-1.13.14-2.11.57-2.87,1.44-1.64.24-2.97,1.12-4.25,2.1-2.38.57-3.92-.6-5.55-2.21-4.26-4.2-12.32-2.06-14.02,3.72-.71,2.42-1.47,4.79-2.59,7.05-1.27,1.69-2.98,3.41-1.94,5.67.72,1.56-.15,2.1-.93,2.91-1.47,2.99-.7,5.23,2.38,6.47.86.35,1.23,1.03,1.83,1.55,0,0,0,0,0,0,.02,1.35.05,2.7.07,4.04,0,0,0,0,0,0,0,0,0,0,0,0-2.76,1.81-.57,5.04-2.06,7.21h0c-.21,2.19-1.68,3.56-3.11,5-1.57,1.58-3.45,2.94-4.03,5.29-1.7.86-1.78,2.63-2.31,4.14-.39.74-.79,1.48-1.19,2.21-.44.91.38,1.42.67,2.1-1.34,2.73-1.46,5.38.54,7.88.02,1.02.52,1.73,1.43,2.15.11.6-.01,1.33.86,1.48,0,0,0,0,0,0,0,0,0,0,0,0,.44.22.88.45,1.32.68.51,1.25.99,2.53,2.78,2,.3-.18.61-.36.91-.54,3.81-.63,7.7-2.6,11.27.68.31.66.69,1.24,1.5,1.34,1.31.47,2.62.95,3.94,1.42,1.45.52,2.77.7,3.31-1.23,1.4-.08,2.9,1.36,4.21-.24.68.34,1.22,1.03,2.11.9,1.2,1.91,3.16,1.86,5.06,1.96,2.92,1.44,6.29.42,9.27,1.73.74.33,2.11.74,1.74,1.17-1.58,1.8.2,1.43.93,1.72,6.04,2.32,9.04,1.61,12.88-3.39,1.42-1.85,3.13-3.68,5.04-4.37,6.15-2.2,7.99-7.9,10.76-12.66,2.38-4.1,2.7-9.19,5.04-13.44,1.16.08,2.37-1.19,3.48.13.56,2.54-1.07,4.73-1.16,7.16-.04.17-.06.34-.08.52-.94,2.84-2.13,5.66-.61,8.67.05.63.12,1.17-.04,1.88-.56,2.6-1.01,5.33,1.18,7.59,1.53,1.58,3.19,1.74,5.03.63.39-.61.99-.79,1.65-.85.69.44,1.38.88,2.08,1.32,1.14.74,2.35.45,3.56.3,0,0,0,0,0,0,2.04,1.77,3.55.32,5.11-.83.44,0,.88,0,1.31-.01.76.98,1.51.9,2.26-.01.43.01.85.03,1.28.04.24,2.13,1.8,1.2,2.93,1.27,1.69,0,3.2,1.22,4.96.75,2.21,1.54,4.15,4.69,7.24,1.28,2.74.06,4.64-1.99,7.04-2.79,0,0,0,0,0,0,0,0,0,0,0,0,.1-.16.12-.32.05-.5.69-.44,1.85.45,2.25-.79,2.55-1.45,6.01-1.84,6.55-5.63.45-.49.9-.98,1.36-1.48.89-.43,1.42-1.1,1.41-2.13,4.53-3.07,6.9-2.71,9.88,1.49,0,0,0,0,0,0,.66.69,1.32,1.37,1.99,2.06.75,3.56,3.5,4.77,6.58,5.59h0c.31,1.21,1.35.69,2.09.88.15,2.15,1.84,1.12,2.89,1.4.3.66.85,1.02,1.46,1.4,1.95,1.24,4.58-.05,6.34,1.79.62-1.82,2.23-2.21,3.8-2.66.98.1,2.03.68,2.8-.47.95-.07,1.9-.14,2.85-.21,1.07.17,2.17.4,2.23-1.24.43-.02.86-.04,1.29-.06,1.17,1.73,2.37-.43,3.55.03.21.76.87.65,1.43.72,1.19,1.41,2.43,1.27,3.69.11.86-.41,1.75.81,2.61-.04,1.57.8,2.51.55,2.43-1.44.2-.02.4-.06.59-.14.68.06,1.28.24,1.67.86,3.82,1.16,5.23.23,6.36-3.23.81-2.46-.46-4.62-.21-6.92.78-1.22,1.5-2.44.18-3.75-.04-1.3-.08-2.59-.13-3.89,0,0,0,0,0,0,.34-1.25-.38-2.12-.88-3.19-.85-1.79-1.14-4.06-.07-5.71.71-1.1,1.85,1.01,3.04.87,1,3.03,2.02,6.09,3.12,9.05,2.3,6.24,5.23,12.29,11.2,16.08.6,2.2,2.38,2.55,4.27,2.73,1.68,1.68,3.36,3.36,5.04,5.03,3.17,2.39,6.34,1.7,9.51.01.57-.1,1.13-.21,1.7-.31-1.82-2.73.67-1.89,1.87-2.48,2.7-1.34,5.83-.18,8.44-1.67,2.61.22,4.58-1.12,6.47-2.65.46,0,.91-.01,1.36-.02,1.05,1.42,1.96.3,2.91-.16l-.08.2c2.68,4.06,5.3.7,7.93-.07.77-.21,1.21-.76,1.54-1.44,3.57-2.98,7.5-.47,11.25-.74,2.91,2.31,3.17-.9,4.38-2.11,1.05.09,1.54-.41,1.5-1.45,2.93-2.89,3.72-6.21,1.97-10.02.31-.68,1.08-1.22.68-2.13-.25-1.47-1.35-2.43-2.15-3.57.59-1.44-.42-2.08-1.37-2.75.29-2.7-.76-4.52-3.38-5.49-2.18-.81-3.21-2.66-3.75-4.82,0,0,0,0,0,0-.33-3.81-2.26-7.34-1.98-11.26,0,0,0,0,0,0,2.52-2.07,6.71-3.27,4.18-7.98h0c-.44-.72-1.69-1.03-1.21-2.23,1.31-3.24-.59-5.49-2.36-7.79,0,0,0,0,0,0,0,0,0,0,0,0-.81-1.4-1.28-2.9-1.49-4.52-.62-4.66-4.67-5.78-8.06-7.22-2.64-1.12-4.92.81-6.63,2.69-1.51,1.67-3.13,2.32-5.27,1.91-2.61-1.42-5.22-2.83-7.83-4.25.75-1.97-.64-1.36-1.56-1.3-.71-.27-.59-.97-.79-1.51.33-1.58.37-2.9-1.9-2.26.24-.61.52-1.04-.07-1.81-1.93-2.55-4.96-1.7-7.41-2.37-1.07-.29-2.74-1.75-4.2-.22-1.77,1.85-4.3,2.88-5.67,5.18-1.44-.15-1.96,1.12-2.8,1.87-2.85,2.53-4.55,6.17-7.96,8.16-.68-.23-1.36-.46-2.04-.7-.22-1.22-.43-2.45-.73-4.16-1.22,1.68-2.76,1.3-4.24,1.24-1.71-3.16-.13-5.67,1.94-8.29-2.31,1.52-4.76,1.18-6.94,1.87-.02.06-.04.12-.06.18-.02,0-.04-.01-.06-.02l.11-.16c-.74-.59-1.39-1.39-2.23-1.73-3.03-1.25-5.52-4.16-9.31-3.18-1.18-.08-2.43.13-3.42-.79-.24-.24-.48-.48-.72-.71,0,0,0,0,0,0-.06-.2-.09-.41-.12-.61-.78-2.4,2.9-4.67-.14-7.1,1.74-.19,2.42,1.54,3.85,1.26.2.02.41.05.61.1.18.79.87.59,1.39.71,1.21,1.25,2.68,1.71,4.39,1.44.67.33,1.34.49,1.97-.07,3.85,3.19,7.96-2.15,11.83.36.04-.4-.31-.93.37-1.11,1.47.93,2.94,1.86,4.41,2.79,2.37-1.91,4.74-3.81,7.12-5.72,2.39-1.12,4.79-2.25,7.18-3.38.54-.12,1.17-.03,1.43-.7,3.1-1.43,6.19-2.87,9.29-4.3,1.09-.2,2.09-.59,2.87-1.42,3.46-1.2,7.25-1.63,10.07-4.33.45-.29.9-.58,1.35-.87.59.11,1.16.18,1.46-.52,3.38-.17,6.08-2.4,9.29-3.06,2.67-.08,3.54,2.42,5.3,3.65,2.52,1.76,5.05,3.69,8.29,1.47.23-.21.46-.42.69-.64,4.05-1.51,4.79-4.89,4.89-8.64-.87-3.48-2.43-6.58-4.91-9.19-.21-.08-.43-.15-.66-.2.01-.42.03-.85.04-1.27,1.18-2.32,2.06-4.86,4.3-6.48,1.18-1.42,2.36-2.84,3.54-4.27,2.82-2.95,5.56-5.96,7.89-9.32,2.16-2.41,1.88-6.6,5.66-7.83,0,0,0-.02-.01-.03.01,0,.02,0,.03,0,0,0,0-.02.01-.02,0,0,.02.02.02.03-.01,0-.02,0-.04,0,0,0,0,.01,0,.02,0,0,0,0-.01,0,0,0,0,0,0,.01,6.45-.22,11.05-3.11,12.73-7.98h0c.29-.44.59-.88.88-1.32,1.19-2.27,1.41-4.81,2-7.24.53-1.16,1.05-2.32,1.58-3.48,0,0,0,0,0,0,1.42-1.28,3.23-2.23,3.64-4.35,1.74-.67.54-1.86.51-2.85.08-.2.11-.4.11-.62,1.36-.86,2.77-3.19,4.29-1.75,4.23,4,8.13,1.7,12.19.07,0,0,0,0,0,0,1.17-.95,2.34-1.91,3.52-2.86,1.04.02,1.24-1.2,2.11-1.44,2.47-1.18,5-2.28,6.35-4.91.3-.46.61-.91.92-1.36.8-.2.56-.91.72-1.43,1.21-1.06.46-2.39.51-3.61Zm-59.94-175.88s0-.03,0-.04c.05.04.1.06.15.09-.05,0-.1-.03-.16-.05Zm.01-.06s0,.01-.01.02h0s0,0,0,0c0,0,0,0,.02-.01Zm-2.83,8.4c-.02.07-.03.14-.05.21-.06-.08-.12-.14-.18-.22.08,0,.15,0,.23,0Zm-7.84-.6c.02.06.03.13.04.19-.04-.03-.07-.06-.12-.09.02-.04.05-.06.08-.1Zm-.69,2.81c0,.05.01.1.02.15-.04,0-.08,0-.13-.02.03-.05.07-.09.11-.14Zm-5.1-18.49s.02,0,.03,0c-.01.01-.03.02-.04.03.04.06.04.14.02.22-.01-.07-.02-.14-.02-.22,0-.01.01-.03.02-.04Zm.13,36.61c-.06.02-.11.03-.17.05-.06-.09.05-.1.17-.05Zm-12.26,1.26s.02.05.04.07c-.02,0-.05,0-.07,0,.01-.02.02-.05.04-.07Zm-104.44,93.15s-.05-.06-.08-.09c.04-.01.08-.04.12-.05,0,.05-.02.1-.03.14Zm5.72-22.28s0-.04,0-.06c.06,0,.12,0,.18,0-.06.02-.12.04-.18.05Zm-46.47,21.79c.08.08.16.15.24.23-.08.08-.15.17-.24.25,0-.17,0-.32,0-.48Zm-56.46-115.49s0,0,0,0c-.04-.03-.09-.05-.13-.08,0,0,0,0,0,0,.05.03.09.06.14.09ZM61.64,10.76s0-.03-.01-.04h.04s-.02.03-.03.04Zm2.83,9.99h.02s0-.04,0-.05c.04.02.08.04.12.05-.04,0-.08,0-.12,0h-.02s0,0,0,0Zm.01,6.43c0-.08,0-.17,0-.25.09.07.19.13.29.19-.1.02-.19.03-.29.06Zm.71-6.44s-.09,0-.14,0c.04,0,.08-.01.12-.03,0,0,.01-.01.02-.02,0,.01,0,.03,0,.04Zm-7.12,35.76s0-.02,0-.04c0,0,.02,0,.03.01,0,0-.02.01-.02.02Zm14.25,20s0,0,0,0c0,0,0,0,.01,0,0,0,0,0,0,0Zm5.13-45.87s-.03-.03-.05-.05c.03-.01.06,0,.1-.02-.02.02-.03.04-.05.06Zm.78-3.06c-.09-.07-.18-.14-.28-.2.14-.09.28-.18.42-.3-.06.17-.1.33-.14.5Zm12.85,98.27s-.02-.04-.03-.06c.2-.14.4-.17.6-.14-.19.07-.38.14-.56.2ZM10.09,232.51s0-.06,0-.09c.01,0,.03,0,.04,0-.02.03-.03.06-.04.08Zm4.44-17.94s0-.01-.01-.02c0,0,.01,0,.02,0,0,0,0,.01,0,.02Zm4.2,3.58s0,0-.01.01v-.03.02s.03-.02.04-.03c.01.01.02.02.04.03-.02,0-.04,0-.07,0Zm14.3-16.48s-.04-.01-.06-.02c.02,0,.04,0,.06,0v.02Zm1.4,6.44s0-.06.02-.08c.01.02.02.03.03.05-.02.01-.03.02-.05.04Zm3.59,10.73s-.04-.05-.06-.08c.02,0,.05-.02.08-.03,0,.04,0,.07-.01.11Zm.71,22.17s-.09.08-.13.12c-.02-.04-.04-.08-.06-.12.07,0,.13,0,.2,0,0,0,0,0,0,0,0,0,0,0,0,0h0Zm4.9-47.96s0-.01.01-.02c0,0,0,.02.01.03,0,0-.02,0-.03,0Zm.11,76.54s0,0,0,0c0,0,0,0,0,0-.01,0-.02-.02-.03-.02,0,0,0-.02,0-.03.03.03.05.06.08.09-.01-.01-.03-.02-.04-.03Zm3.57-68.58s0-.03,0-.04c0,0,.02,0,.03,0,0,.01-.02.03-.03.04Zm3.05,13.75c.09-.19.17-.39.24-.59-.02.24-.1.45-.24.59Zm2.66,51.32s0,0,0,0c0,0,0,0,.01,0,0,0,0,0-.01,0Zm1.31-67.96c-.02-.07-.04-.15-.05-.22.07.07.12.13.19.2-.05,0-.09,0-.14.01Zm1.55,50.03s0,0,0-.01c0,0,0,0,0,0,0,0,0,0-.01,0Zm.18,8.69s.02-.02.03-.03v.03s-.02,0-.03,0Zm1.77,7.97c.04-.08.08-.15.12-.24.02.08.02.16.04.25-.05,0-.1,0-.15,0Zm4.51,18.37s-.02,0-.03,0c0-.02,0-.04.01-.06.01.02.02.04.03.06,0,0-.01,0-.02,0,0,0,0,0,0,0Zm3.64,3.58s0-.03,0-.05c0,0-.02.03-.02.03,0-.02,0-.03,0-.04,0,0,.02,0,.02.01.02.02.04.04.06.06-.02,0-.04-.01-.06-.01Zm.57-2.18s0-.04,0-.06c.02.02.02.04.04.06-.02,0-.03,0-.05,0Zm.07-77.17c0-.05,0-.11,0-.17.03.02.05.04.08.06-.02.04-.04.07-.07.11Zm2.9,45.75s.09,0,.14,0c.03.12.05.23.06.34-.06-.1-.13-.21-.2-.34Zm.68,35.88s0-.1,0-.15c.04.04.08.08.12.12-.04,0-.08.01-.12.03Zm.25-68.67c.13-.04.28-.07.46-.08-.1.3-.17.6-.23.9-.09-.26-.16-.54-.23-.82Zm.43,45.62l.02-.17c.06.07.11.13.17.2-.05.02-.09.04-.14.06-.02-.03-.03-.06-.05-.09Zm.06,16.51c0-.09,0-.18,0-.27.14-.03.26-.04.36-.03-.13.11-.25.22-.36.3Zm4.95-82.24s-.06-.05-.09-.07c.02,0,.05,0,.07-.01,0,.03.01.06.02.08,0,0,0,0,0,0,0,0,0,0,0,0Zm.72,83.69s0,0,0,0l.03-.03s.01,0,.02.01c-.01,0-.03.01-.04.02Zm21.5-211.11c.09.07.17.12.26.17-.09,0-.18,0-.27,0,0-.06,0-.12,0-.18Zm-19.94,194.28c-.07,0-.13,0-.2,0,.07,0,.14,0,.21,0,0,0,0,0,0,0Zm2.72-27.51s-.01,0-.02,0c0,0,.01-.01.02-.01,0,0,0,.01,0,.02Zm5.05,5h0s0,0,0,0c0,0,0,0,0,0Zm0,0l-.02-.02s0,0,0,.01c0,0,0-.01,0-.02,0,0,0,0,0,0,.02,0,.04-.01.05-.02-.01.01-.02.02-.03.04Zm1,23.07s-.04-.05-.07-.07c.03-.02.06-.04.1-.06,0,.04-.02.09-.03.13Zm2.53-5.86s-.02-.04-.03-.06c.02,0,.03,0,.05,0,0,.02-.01.04-.02.06Zm7.16,31.44s-.02-.02-.02-.02c.01,0,.02,0,.03,0,0,0,0,.02-.01.03Zm2.86-27.9s0,0,0,0h0s0,0,0,0Zm-.04-28.62s0-.04,0-.07c.02.02.03.04.05.07h-.05Zm1.46-15.09l.11-.02s-.06.06-.1.1c0-.03,0-.05-.01-.07Zm.02,66.56s0,0,.01-.01c0,0,0,.01.01.02,0,0-.02,0-.02,0Zm0-13.5s0-.05,0-.07c.04.03.08.06.11.1-.04-.01-.07-.02-.11-.02Zm1.37-56.56s.02-.04.03-.06c.01.02.02.04.03.07-.02,0-.04,0-.06,0Zm.73-13.27c-4.35,2.43-8.96,3.9-13.98,3.44-4.6-.43-8.03-2.67-9.68-7.2-.32-2.43.8-4.57,1.41-6.81,1.26-2.38,1.19-5.18,2.34-7.59.39-4.41,2.21-8.31,4.26-12.14.23-.27.51-.46.85-.55,2.84-.26,4.25,1.82,5.89,3.55.81.88,1.69,1.69,2.48,2.59,2.32,3.17,3.13,6.94,4.15,10.62-.06,3.74,2.54,5.97,4.76,8.42.38.61.63,1.27.67,2-.33,1.84-1.75,2.74-3.15,3.66Zm-2.83-98.99s.01-.02.02-.02c.03-.02.05-.04.08-.06.02.02.03.03.05.05-.04,0-.08,0-.12.01v.02s-.02,0-.02,0Zm.32-16.66c.1.04.2.07.3.11-.02,0-.04,0-.06,0-.08-.04-.17-.07-.24-.11Zm.4,19.54s.03,0,.05,0c0,.02-.02.03-.03.05,0-.02-.01-.03-.02-.05Zm.97,3.87s.06-.09.09-.13c-.01.04-.03.08-.04.12-.02,0-.03,0-.05.01Zm1.85-13.91s.02-.02.03-.03c0,.01,0,.03,0,.04-.01,0-.02-.01-.03-.01Zm.78,92.32s.01-.02.02-.03c0,.02,0,.03,0,.04,0,0-.01,0-.02-.01Zm.58-43.7s.03-.01.05-.02c.01.02.02.04.04.07-.03-.01-.06-.03-.09-.05Zm2.75-23.54s.02-.03.04-.04c0,0,0,0,0,.01.36-.07.06.16-.04.03Zm2.92,168.09c0-.34.04-.69.09-1.05,0,0,0,.02,0,.03.01.02.02.04.03.05,0,.35-.02.69-.13.97Zm.16-74.45s0-.05,0-.08c.02.01.04.02.06.04-.02.01-.03.03-.05.04Zm.72-95.81s-.04.02-.06.03c0-.02.02-.05.03-.07.02-.02.05-.04.07-.07.03.03.06.06.1.08-.06,0-.11,0-.17-.01l.03.04Zm.68,130.88s0-.01,0-.02c0,0-.01-.01-.02-.02.01,0,.02,0,.03,0,0,.01-.01.02-.02.03Zm-.27-154.34s.01-.02.01-.03c0-.05,0-.1,0-.14.44.12.67.37.79.68-.25-.18-.53-.34-.8-.5Zm1.73-15.86h0s-.04-.04-.07-.06c.02-.01.04-.02.06-.04,0,.03,0,.06,0,.09,0,0,0,0,0,0Zm1.07,86.7c.01-.34.08-.68.22-1.01-.09.38-.16.71-.22,1.01Zm.31-84.5s0-.03,0-.04c0,0,0,0,.01,0,0,0,0,0,0,0h.04s-.04.03-.05.04Zm.72,232.38s.02-.04.03-.06c0,.02,0,.03,0,.05-.01,0-.02,0-.03.01Zm.84-14.93s-.05-.1-.08-.14c.06,0,.1-.01.15-.02-.02.05-.04.11-.07.16Zm-.13-.12s0-.02,0-.03c.01,0,.03,0,.04,0-.01,0-.03.01-.05.02Zm2.1-109.43s.06,0,.08,0c0,.05,0,.11.01.16-.03-.05-.07-.1-.1-.15Zm.63-146.47c-.42.91-1.08,2.66-3.22,1.72-3.42-1.5-6.86-2.34-10.64-1.91-1.57.18-7-4.9-7.06-6.48-.07-1.62.99-2.92,2.41-3.37,2.96-.93,6.02-1.56,9.05-2.25,2.47-.57,3.97.73,3.83,3-.22,3.65.78,6.1,4.62,6.83.99.19,1.36.81,1.01,2.46Zm.89,178.93v-.29c.11.04.21.06.3.08-.09.08-.19.15-.3.21Zm2.87,36.89s0,0,0,0c0,0,0,0,0,0h0Zm1.42-36.46s0-.02,0-.02c0,0,0,.02,0,.02,0,0,0,0-.01,0Zm3.58-11.42s0,0-.01-.01c0,0,0,0,.01,0,0,0,0,0,0,.01Zm2.09,15.21c-.03-.06-.07-.11-.1-.17.05-.01.1-.03.15-.04,0,.07-.02.14-.05.21Zm3.62,102.76s.02-.06.02-.09c.02,0,.05.01.07.02-.03.03-.06.05-.09.08Zm2.21-71.51v-.07c.06-.01.12-.02.18-.03-.05.04-.11.08-.18.1Zm4.96,81.63s.02-.01.03-.02l.02.03s-.03,0-.04,0Zm2.13-.81s.04-.02.06-.03c0,.01,0,.02,0,.03-.02,0-.04,0-.07,0Zm.71-138.04s0-.02,0-.03c.01,0,.02.01.03.02,0,0-.02,0-.03.01Zm1.27,64.31s-.01.02-.02.02c0-.04,0-.08,0-.12.03.02.06.03.1.05-.03.02-.06.03-.08.04Zm4.48,48.72s0-.02-.01-.02c-.02,0-.03-.02-.05-.03,0,0,.01,0,.02,0l.03.03s.02,0,.03,0c0,0-.01.01-.02.02Zm.73-16.54s.01,0,.02,0c0,.02,0,.04,0,.05,0-.02-.02-.03-.02-.05Zm3.54,42.84s0,0,.01,0c0,0,.05.08.07.11-.03-.03-.05-.07-.08-.1Zm4.26-27.03s0,0,0,0c0,0,0,0,0,0h0Zm-.33,17.56c.25.11.57.22.99.34-.7-.01-.96-.14-.99-.34Zm-83.98,79.69s0,0,0-.01c0,0,.01,0,.02,0v.02Zm2.03-4.24s.03-.05.04-.08c.1.08.2.13.29.17-.1,0-.21-.03-.33-.09Zm1.44-6.42s0,0-.01,0c0,0,0,0,.01-.01,0,0,0,.01,0,.02Zm7.13,21.7s-.07-.09-.11-.13c.05.03.09.06.14.09-.01.02-.02.03-.03.05Zm105.89-115.47c.07-.07.18-.08.3-.06-.11.02-.21.04-.3.07,0,0,0,0,0-.01Zm-8.59-138.75s0,0,0,.01c0,0,0,0,0,0,0,0,0,0,0,0Zm-1.27,55.71s0,0,0,.01h-.01s0,0,0-.01Zm.01,49.23s-.09.09-.14.14c-.04-.13-.07-.25-.11-.38.08.08.16.16.25.24Zm-1.49-70.66s-.04.05-.07.07c0,0,0,0,0,0,0,0,0,0-.01.01,0-.02,0-.05,0-.08.03,0,.06,0,.1,0Zm-.22-39.91s-.02.01-.03.02c0-.01,0-.02-.01-.04.01,0,.03,0,.04.01Zm-3.59,123.72s0,.02-.01.03c0,0-.01-.01-.01-.02,0,0,.02,0,.02,0Zm-1.98,4.05s-.02.07-.03.11c-.02.01-.03.02-.05.04-.02-.02-.04-.03-.06-.05.05-.03.09-.06.13-.1Zm-1.44-59.92s.02,0,.03,0c-.01,0-.02.01-.04.02,0,0,0-.02,0-.03Zm-4.21,72.98s0-.01-.01-.02c0,0,0,0,.01,0,0,0,0,.01,0,.02Zm9.72,127.98s0-.1,0-.14c.06.04.13.09.19.14-.07,0-.13,0-.2,0Zm14.95-106.06c-.16.93-.81,1.49-1.54,1.98-2.37,1.08-1.38,3.24-1.59,5.01.01,1.01.03,2.02.09,3.04.42,1.52.23,3.09.39,4.63-1.11,4.97-3.71,8.49-8.83,10.09-1.66.52-2.89,2.3-4.47,3.24-.97.58-2.03,1.42-3.46.21-1.45-1.22-.76-2.22-.27-3.34,1.31-2.98,2.25-6.04,2.05-9.34-.11-1.77.02-3.52.77-5.11,1.16-2.43.09-3.35-2.18-3.64-.51.21-.96.04-1.4-.21-.29-.19-.55-.41-.8-.65-.64-.65-1.17-1.36-1.39-2.26-.33-4.83-1.27-9.68.83-14.4.84-1.89,1.68-3.68,3.7-4.57,2.3-.95,4.88,1.12,7.11-.65,1.5-.92,2.94-1.98,4.78-2.17,1.11.11,2.04.52,2.52,1.61.1,1.44-.39,2.45-1.96,2.64-.66,1.86-.73,3.8-1,5.71-.03.97-.04,1.94,0,2.9.29,1.46.02,3.22,2.09,3.66,1.52-.14,2.6-2.38,4.45-.93.47.83.5,1.67.12,2.53Zm7.36-18.43c-.51.03-1.19.27-1.32-.47-.1-.56-.34-1.33.58-1.58.29.3.57.6.86.9-.04.39-.08.77-.12,1.16Zm5.06-70.04s0,.01,0,.02c0,0,0,0,0,0,0,0,0,0,0-.01,0,0,0,0,0,0Zm-.03,84.13c-2.94-.31-1.89-3.41-2.24-5.45-.34-2.14.12-4.14,1.03-6.06,1.71-1.85,3.2-.65,4.71.35.08,2.36.15,4.71.23,7.07h0s.01,0,.02.01c0,0-.01,0-.02,0,.26,2.75-2.28,4.23-3.73,4.08Zm6.1-100.02c0-.05.02-.1.03-.15.01.02.02.04.03.05-.02.03-.04.07-.06.1Zm9.68,75.25s0,0,0,0c0,0,0,0-.01,0h0s0,0,.01,0Zm-.03.01s0,0,0,0h0s0,0,0,0c0,0,0,0,0,0Zm4.42,19.33c-.04.35-.12.7-.11,1.05.09,1.91.11,4.43-2.12,4.39-1.59-.02-4.02-1.33-3.75-4.09.08-2.37.16-4.73.23-7.09,1.5-.98,2.98-2.21,4.69-.34.94,1.92,1.31,3.95,1.04,6.08Zm4.16-82.5c0,.08,0,.17,0,.25-.11-.02-.2-.07-.28-.15.09-.03.18-.07.28-.1Zm-.05,73.37c-.14.74-.81.49-1.33.46-.04-.37-.08-.75-.12-1.12.29-.31.58-.61.87-.92.93.25.68,1.03.58,1.59Zm29.47-24.59s0,.06,0,.08c-.02,0-.04-.02-.07-.02.03-.02.05-.04.07-.06Zm-1.5-129.28s.01.01.02.02c-.01,0-.02,0-.04,0,0,0,.01-.02.02-.03Zm-3.6,9.91s0,.01,0,.02c0,0-.02,0-.02,0,0,0,.01-.02.02-.02Zm-4.89.08s0,.02-.01.03c0,0-.01-.02-.02-.02,0,0,.02,0,.03,0Zm-2.95,5.69s0,0,0,.01c0,.01-.02.02-.03.03-.06-.07-.12-.14-.19-.2.07.05.15.09.22.16Zm-1.42-2.71s0,0,.01,0c0,.01-.02.02-.02.03,0-.01,0-.02.01-.03Zm-1.4,9.79s0,0,0,0c0,0,0,0,0,0,0,0,0,0,0,0,0,0,0,0,0,0h0Zm-.4,246.61c0-.07,0-.13.01-.19.24.24.46.5.67.8-.34-.21-.7-.43-.68-.61Zm8.92,2.29l-.05.03s-.01,0-.02-.01c.02,0,.05-.02.07-.02,0,0,0-.01,0-.02,0,0,0,0,0,.01,0,0,0,0,0,0,0,0,0,0-.01,0Zm6.43-95.43c-.12,1.22-.84,2.19-2.21,2.43-3.42.78-4.89,2.21-3.1,6.02,1.21,2.58-.1,5.75.9,8.67.55,1.6.93,3.32,1.65,4.86.45.97.76,1.58-.17,2.42-.86.78-1.7,1.45-2.77.62-3.89-3.02-8.79-4.48-12.12-8.42-2.7-3.2-1.46-6.44-.96-9.76,0,0,0,0,0,0h0c-.79-.9-.7-2-.75-3.08.36-2.06-.34-3.88-1.3-5.64-.51-.45-1.02-.89-1.54-1.34-.48-.83-.64-1.69-.24-2.6.17-.31.43-.53.77-.65,1.61-.35,2.46,1.42,3.95,1.43,1.85-.59,1.68-2.26,1.94-3.69.05-.96.04-1.93,0-2.88-.07-1.96-.78-3.87-.54-5.84-.57.13-1.13.25-1.66-.11-.6-.66-.92-1.41-.8-2.32.31-.94,1.04-1.4,1.93-1.68,2.13-.18,3.68,1.12,5.37,2.09,2.23,1.79,4.84-.23,7.16.7,3.91,2.05,4.29,6.03,4.98,9.65.57,2.99-.18,6.09-.47,9.12Zm.67-45.39h0c.07-.06.15-.13.22-.19,0,0,0,0,0,0,0,0,0,0,0,0l-.22.19Zm102.93,132.12c.06.04.13.07.19.11,0,0,.02,0,.03,0,0,0-.02,0-.03.01,0,0,0,0,0-.01l-.26.09c.03-.07.05-.14.07-.21Zm-89.28,7.39s0,.02,0,.03c0,0-.01-.02-.02-.02,0,0,.01,0,.02,0Zm-.69-9.3c.13.16.19.3.19.42-.03-.12-.1-.26-.2-.4,0,0,0-.01,0-.02Zm-6.41,6.96s0,0,0,0c0,0,0,0,0,0,0,0,0,0,0,0Zm-2.92-138.45c0-.06,0-.13,0-.19.09.02.17.03.25.04-.08.06-.16.11-.25.16Zm6.41,44.18s-.02-.02-.02-.03c.01,0,.02,0,.04,0,0,0,0,.02-.01.03Zm8.6-33.17c.01-.06.02-.11.03-.17.17-.04.34-.05.52-.04-.18.08-.37.15-.55.21Zm1.44,43.94s-.01-.01-.02-.02c0,0,.02,0,.03,0,0,0,0,.01-.01.02Zm.06-30.8s-.03-.03-.04-.05c.02,0,.03,0,.05,0,0,.02,0,.03,0,.04Zm2.88-95.85s-.04-.02-.06-.03c0,0,.01,0,.02-.01.02,0,.04,0,.07,0,0,.02-.02.03-.02.05Zm.59,112.29s0,0,0,0c0,0,0,0,0,0h0Zm1.41-1.41s-.03,0-.04,0c.01-.01.03-.03.04-.04,0,.02,0,.03,0,.05Zm1.54-52.28s0,0-.01,0c0,0,0,0,0,0,0,0,0,0,0,0,0,0,0,0,0,0,0,0,0,0,0,0,0,0,0,0-.01,0Zm.75,70.88s0,0,0,0c0,0,0,0,0,0,0,0,0,0,0,0,0,0,0,0,0,0Zm1.91-136.82c-.09-.06-.15-.15-.2-.24.11.06.22.12.33.17-.04.02-.09.05-.13.07Zm2.49,121.31s-.1.03-.15.04c-.03.02-.06.04-.09.07-.03-.39.15-.55.42-.61-.05.17-.12.34-.18.51Zm.5-48.23s.03-.02.05-.03c0,0,0,.02,0,.02-.02,0-.04,0-.06,0Zm2.2,12.96s0-.04,0-.07c0,0,.02,0,.02,0-.01.02-.02.05-.03.07Zm.66,18.6s0-.03,0-.05c0,.01.01.03.02.04,0,0-.01,0-.02,0Zm0-58.69s.01-.02.02-.03c0,0,0,.02.01.03h-.03Zm4.96-22.86s.02,0,.03-.01c.05.05.12.08.17.14-.07-.04-.13-.08-.2-.12Zm2.19,82.93s0-.04,0-.06c.02,0,.04,0,.06,0-.02.02-.04.04-.06.07Zm4.31-65.79s0,.07,0,.1c-.04.02-.08.03-.12.05.04-.05.08-.1.12-.15Zm-.07,34.32c-.1,0-.21,0-.31,0,.04-.06.08-.12.12-.18.07.05.14.1.2.15,0,0-.01.02-.02.03Zm.06-17.92c.07-.06.14-.1.21-.15,0,.06.01.12.03.19-.08-.01-.16-.02-.23-.03Zm41.49-92.95s-.02.04-.03.05c-.02-.02-.04-.02-.06-.04.03,0,.07,0,.1-.01Zm-11.47-9.29s0-.05.01-.08l.09.07s-.07,0-.1.01v.02s-.01,0-.02,0c0,0,.02-.02.02-.02Zm-4.3-67.2s0,.03,0,.04c-.04,0-.08,0-.12,0,.04-.01.08-.03.12-.04Zm-23.72,146.49c.04-.07.07-.13.11-.2.02.07.04.13.05.2-.05,0-.1,0-.16,0Zm.88-39.25c-.02-.05-.04-.11-.05-.16.06.05.12.1.18.15-.04,0-.08.01-.12.02Zm1.23,21.13c.06-.13.11-.25.18-.38.04.11.07.22.1.33-.09.02-.19.04-.28.05Zm1.69,81.9s-.01-.04-.02-.06c.07-.03.13-.05.2-.07,0,.08,0,.15.01.23-.07-.03-.13-.07-.2-.1Zm1.33-161.65s.01,0,.02,0c0,0,0,0,0,.01,0,0-.02,0-.02,0Zm2.87-5.73s0,0,.01,0c0,0,0,0,0,.01h-.01Zm1.22,155.43c0-.1,0-.2,0-.3.06,0,.13-.02.2-.02-.07.11-.12.22-.19.33Zm.23-72.48s-.04-.04-.07-.05c.03-.03.05-.06.08-.08,0,.04,0,.09-.01.13Zm.66,70.06s0,0,0,0h0s0,0,0,0Zm1.49-57.19s.07-.03.1-.04c0,.01.02.03.03.04-.04,0-.08,0-.13,0Zm-6.97-182.73c-2.09.84-3-.27-3.62-1.62-.78-1.7.52-2.71,1.97-2.93,2.97-.46,3.66-2.28,3.65-4.93-.02-4.2,1.62-5.34,5.6-4.17,2.2.65,4.42,1.28,6.64,1.86,3.18.83,4.13,3.69,1.54,5.7-2.11,1.64-3.08,5.4-6.93,4.39-3.29-1.3-6.06.58-8.85,1.69Zm9.15,87.67s-.02-.03-.02-.05c0,0,0,0,0,0h0s.06,0,.09,0c-.02.02-.04.04-.06.06Zm-.03-49.39s-.04-.06-.06-.1c.08,0,.15,0,.23,0-.05.04-.11.08-.17.1Zm2.07,176.67s.04-.04.06-.05c.02.09.04.16.05.23-.04-.05-.08-.11-.12-.18Zm.94-34.9c-.05-.06-.11-.11-.15-.18.22,0,.42-.01.62-.02-.14.07-.3.14-.47.2Zm4.83,88.49s0,0-.01,0c0-.01.02-.02.03-.03,0,.01,0,.02-.01.03Zm.74-80.09s.02-.06.04-.09c0,.03.01.06.02.09-.02,0-.04,0-.06,0Zm5.14,37.26c-.02-.06-.04-.11-.06-.17.04.05.07.1.1.15-.01.01-.02.02-.03.03Zm.72-18.04s-.01,0-.02-.01c.02-.03.05-.06.07-.08.06-.04.12-.08.18-.13-.08.08-.15.15-.23.22Zm1.31-7.03s-.02-.04-.02-.04c0,0,0,0,0,0,0,.01,0,.03.01.04,0,0,0,0,0,0Zm.01,2.09s0,0,0,0c0,0,0,0,0,0,0,0,0,0,0,0Zm2.12,37.89s.05-.05.07-.08c0,.03,0,.07,0,.1l-.08-.02Zm1.42-53.6h0s0,0,0,0c0,0,0,0,.01,0,.02-.01.04-.02.06-.03,0,.01.01.02.02.03-.03,0-.06,0-.09,0Zm2.76,83.85s.02-.02.03-.03c0,.01,0,.03.01.04-.01,0-.03,0-.04-.01Zm-2.71-110.31c-1.09.21-2.17.2-3.24-.1-1.34-.63-2.65-1.42-4.22-.71-2.18.39-4.07-.49-5.97-1.33-.89-.48-1.77-.96-2.66-1.44-1.16-.72-2.23-1.54-2.82-2.84-.06-.34-.05-.68.02-1.02.33-1.16,1.02-2.13,1.9-2.89,2.15-1.86,3.29-4.18,3.52-6.99.85-3.34,1.84-6.62,3.32-9.74.49-1.09,1.48-1.72,2.28-2.52.65-.67,1.11-1.48,1.63-2.24.35-.52.7-1.05,1.23-1.43,1.02-.52,2.15-.68,3.25-.93.33-.04.66-.03.99.03.73.16,1.07.74,1.4,1.33,1.24,3.32,2.49,6.63,3.74,9.95.51,3.09.95,6.21,2.12,9.15.52,1.93,1.44,3.76,1.47,5.82-.67,4.63-4.13,6.45-7.96,7.91Zm10,76.56s0-.01,0-.02l-.03-.02s0,0,0,0c0,0,.01.02.02.03,0,0,.02,0,.03,0,0,0-.01.01-.02.02Zm.03-53.64s.01-.02.02-.03c0,.01,0,.02.01.03-.01,0-.02,0-.03,0Zm.62-21.45h0s-.02-.03-.03-.04c.01,0,.02,0,.03-.01,0,.02,0,.03,0,.05Zm.05-6.45c.01-.05.02-.09.03-.14.03.04.05.09.08.14-.04,0-.07,0-.11,0Zm4.72,17.04c-.14.02-.29.05-.46.09.26-.12.45-.25.61-.37-.04.09-.09.18-.16.27Zm1.56,33.81s-.03-.07-.05-.11h.12s-.04.07-.07.11Zm11.58-9.31s0-.02,0-.03c.02,0,.03.02.05.03-.02,0-.03,0-.05,0Zm.77,20.13c.01-.07.01-.15.03-.22.03.07.06.13.09.19-.04,0-.08.02-.12.02Zm7.08-55.94s-.01-.01-.02-.02c0,0,.01,0,.02,0,0,0,0,.02,0,.03Zm10.74-2.19s0,0,0-.01c0,0,0,0,0,.01,0,0,0,0,0,0Zm3.56,5.84s-.08-.05-.12-.07c.05-.02.09-.03.14-.06,0,.04-.01.08-.02.12Zm10.06-6.54s0,0-.02,0c.05-.14.12-.27.2-.41-.05.14-.12.27-.19.41Zm.7,21.45s0,0,0,0c0,0,0,0,0,0,.04-.1.07-.19.1-.28.06,0,.13,0,.19,0-.1.09-.2.18-.29.28,0,0,0,0,0,0Zm3.51,11.56s.04-.08.05-.12c.03.04.06.08.09.12-.05,0-.1,0-.14,0Zm3.58-37.32c-.05-.06-.1-.11-.15-.17.07.05.14.09.21.14-.02.01-.04.02-.06.03Zm1.25.72c.05-.04.1-.07.15-.11.03.08.05.17.07.25-.08-.05-.15-.09-.23-.14Zm8.12,32.34c0-.05-.01-.1-.02-.16.03,0,.05,0,.08,0-.02.05-.04.1-.06.16Z"/></svg>