<?xml version="1.0" standalone="no"?>
<!DOCTYPE svg PUBLIC "-//W3C//DTD SVG 20010904//EN"
 "http://www.w3.org/TR/2001/REC-SVG-20010904/DTD/svg10.dtd">
<svg version="1.0" xmlns="http://www.w3.org/2000/svg"
 width="468pt" height="317pt" viewBox="0 0 468 317"
 preserveAspectRatio="xMidYMid meet">
<metadata>
Created by potrace 1.7, written by Peter Selinger 2001-2005
</metadata>
<g transform="translate(0,317) scale(0.058500,-0.058500)"
fill="#000000" stroke="none">
<path d="M1929 4996 c-66 -45 -60 -143 11 -190 36 -24 40 -30 40 -69 0 -56 29
-108 72 -129 63 -30 66 -43 22 -94 -40 -46 -63 -63 -121 -84 -46 -17 -83 -55
-83 -84 0 -17 -13 -35 -41 -58 -58 -47 -71 -77 -63 -146 9 -80 3 -83 -156 -92
-126 -7 -131 -8 -170 -38 -21 -18 -48 -32 -59 -32 -11 0 -22 -4 -26 -9 -7 -12
-105 -41 -138 -41 -16 0 -50 -20 -88 -50 -36 -29 -72 -50 -87 -50 -13 0 -47
-12 -76 -26 -28 -15 -64 -34 -81 -42 -16 -8 -50 -26 -75 -40 -92 -51 -100 -54
-136 -47 -30 5 -41 1 -76 -27 -96 -79 -118 -107 -118 -148 0 -31 -6 -43 -26
-57 -48 -33 -64 -53 -64 -78 0 -38 32 -50 97 -35 50 12 57 12 102 -10 60 -27
88 -24 159 21 l52 32 51 -32 c57 -35 75 -38 123 -15 41 20 95 13 121 -16 11
-12 31 -20 50 -20 17 0 54 -11 81 -25 63 -32 88 -31 159 5 32 17 68 30 80 30
12 0 44 16 71 35 27 19 58 35 70 35 11 0 41 -13 66 -29 63 -40 78 -43 122 -22
49 23 62 20 124 -35 27 -24 60 -44 71 -44 36 0 36 -27 1 -57 -27 -22 -31 -31
-27 -59 7 -41 -12 -61 -42 -45 -31 17 -58 13 -99 -13 -48 -31 -65 -50 -94
-110 -27 -58 -40 -65 -65 -37 -23 28 -47 26 -61 -4 -13 -29 -11 -35 35 -131
30 -62 34 -79 31 -135 -3 -62 -4 -64 -28 -61 -82 10 -83 10 -100 -38 -13 -38
-23 -49 -61 -67 l-47 -22 0 -143 c0 -148 9 -188 44 -188 23 0 28 -29 9 -50
-19 -21 -16 -80 6 -106 14 -17 60 -18 128 -2 43 10 57 9 84 -4 22 -10 50 -14
88 -10 50 4 58 2 73 -19 9 -13 16 -31 16 -39 0 -17 -47 -87 -91 -135 -41 -45
-44 -72 -13 -130 14 -27 33 -63 42 -80 20 -39 30 -45 73 -45 27 0 43 8 67 33
18 18 32 42 32 53 0 12 9 29 21 40 12 10 30 37 41 59 l20 39 19 -23 c11 -13
19 -32 19 -43 0 -52 43 -74 84 -43 29 22 76 18 121 -10 22 -13 49 -24 60 -25
23 0 79 32 116 66 l25 24 33 -34 c23 -24 46 -37 75 -41 67 -11 111 -46 125
-99 9 -36 20 -51 49 -71 21 -14 53 -45 70 -70 36 -51 59 -57 68 -17 12 55 16
63 27 59 7 -2 14 -28 17 -58 3 -30 9 -60 13 -66 10 -16 49 -17 65 -1 14 14 69
-1 121 -32 31 -20 33 -24 27 -62 -9 -56 8 -78 101 -128 49 -26 100 -64 138
-103 69 -71 144 -107 225 -107 54 0 80 -22 80 -68 0 -14 8 -47 18 -74 l17 -50
-23 -17 c-74 -52 -73 -51 -64 -119 5 -35 15 -69 23 -77 8 -8 40 -21 72 -29 39
-10 65 -24 79 -41 23 -29 38 -31 80 -9 27 14 39 15 84 4 75 -18 87 -7 79 74
-5 53 -3 66 17 96 19 30 23 48 23 120 0 58 5 97 17 123 17 37 17 37 77 37 53
0 65 4 94 30 41 35 77 50 124 50 27 0 41 7 66 36 18 20 70 62 117 94 47 32 92
65 99 74 8 10 16 42 19 72 4 45 10 59 34 79 40 34 73 32 107 -6 41 -44 65 -37
69 21 2 39 14 103 28 149 9 29 28 -9 29 -57 0 -46 1 -47 30 -47 26 0 33 6 49
42 12 26 29 46 46 53 26 11 50 46 50 75 0 23 55 55 97 55 48 0 55 5 83 59 26
51 63 91 85 91 19 0 20 -34 0 -50 -23 -19 -18 -45 10 -58 14 -7 47 -32 74 -57
36 -34 56 -45 80 -45 41 0 50 24 22 54 -11 12 -21 25 -21 29 0 13 111 7 139
-7 23 -13 31 -13 57 0 17 8 38 31 47 50 31 64 66 53 87 -26 5 -20 25 -51 44
-69 46 -45 86 -45 154 -1 l52 33 0 68 c0 83 -17 108 -78 116 -51 7 -59 21 -41
65 7 17 13 55 13 82 l1 51 140 0 c77 -1 150 -5 162 -9 18 -7 26 -2 43 25 28
46 35 79 21 100 -17 29 -14 43 19 74 22 21 30 38 30 64 0 21 11 53 25 76 45
74 24 149 -54 193 -21 12 -49 38 -60 58 -13 22 -35 41 -58 50 -67 26 -67 26
-69 100 -4 84 14 128 62 156 36 21 45 53 22 76 -17 17 -53 15 -68 -3 -7 -8
-25 -15 -41 -15 -33 0 -49 23 -49 70 0 40 -34 105 -64 126 -18 11 -43 14 -93
12 l-68 -3 0 55 c0 50 2 55 25 60 20 5 29 18 46 65 12 32 26 61 32 63 6 2 22
-4 37 -14 18 -11 36 -15 63 -11 55 9 366 -22 393 -39 25 -15 181 -14 203 2 14
9 49 14 109 14 65 0 94 4 113 16 20 14 40 16 107 11 46 -4 107 -14 136 -23 30
-8 90 -19 134 -24 67 -7 89 -5 136 11 30 11 59 25 63 32 12 19 -1 49 -44 95
-37 40 -39 46 -33 86 l7 44 -53 36 c-30 20 -57 36 -61 36 -4 0 -30 14 -56 30
-34 20 -62 30 -90 30 -31 0 -49 8 -82 35 -38 32 -47 35 -107 35 -61 0 -68 2
-121 44 -32 23 -91 60 -132 81 -41 20 -82 43 -90 50 -8 8 -51 25 -95 40 -64
22 -87 35 -115 67 -35 40 -38 41 -85 36 -27 -4 -60 -1 -74 4 -15 6 -51 11 -81
12 -52 1 -55 3 -58 28 -2 15 4 40 12 57 15 28 15 31 -10 60 -14 17 -37 36 -52
43 -17 9 -32 29 -43 58 -22 59 -55 91 -116 113 -32 11 -57 27 -68 45 -10 15
-24 31 -32 35 -19 12 -16 41 8 63 24 22 69 106 69 129 0 30 32 80 82 127 50
47 51 48 46 97 -3 28 -11 57 -18 66 -27 32 -130 14 -232 -41 -38 -20 -53 -23
-80 -16 -31 8 -123 -11 -223 -46 -16 -6 -52 -16 -80 -22 -27 -6 -60 -21 -72
-32 -24 -22 -31 -62 -13 -73 14 -9 12 -68 -2 -86 -7 -8 -32 -28 -55 -43 -54
-36 -71 -63 -84 -134 -22 -120 -44 -149 -173 -239 -55 -38 -66 -52 -66 -84 0
-18 -15 -56 -36 -90 -19 -33 -49 -86 -67 -119 -22 -43 -45 -71 -80 -96 l-49
-35 -121 4 -122 3 -19 35 c-32 56 -97 138 -128 160 -27 20 -30 20 -53 5 -29
-19 -31 -43 -8 -85 17 -29 17 -32 0 -64 -23 -43 -19 -68 13 -84 36 -18 51 -42
40 -63 -13 -24 -61 -42 -101 -38 -31 3 -36 8 -59 66 -38 96 -71 111 -144 69
-30 -17 -43 -35 -60 -77 -18 -45 -26 -55 -46 -55 -21 0 -26 6 -31 39 -5 29
-18 50 -48 78 -35 33 -47 39 -78 36 -33 -3 -42 -10 -81 -65 -42 -60 -45 -63
-86 -63 -23 0 -47 5 -54 12 -20 20 -14 55 12 72 36 23 41 51 17 92 -22 38 -27
79 -11 89 14 9 13 48 -2 63 -38 38 -98 -17 -163 -150 -37 -76 -38 -78 -74 -78
-21 0 -46 7 -57 15 -25 19 -55 19 -80 0 -33 -25 -66 -17 -115 28 -39 35 -53
59 -89 152 -23 61 -51 122 -61 136 -10 15 -24 44 -31 65 -15 45 -63 81 -121
91 -60 9 -77 32 -77 103 0 87 -29 153 -100 230 -33 35 -60 69 -60 76 0 7 8 26
17 42 22 38 7 59 -46 67 -20 3 -51 13 -69 21 -18 8 -50 14 -71 14 -21 0 -54 6
-73 14 -19 8 -58 14 -88 14 -44 -1 -66 5 -110 30 -30 17 -76 43 -102 57 -26
13 -49 29 -53 35 -11 17 -49 11 -86 -14z m1288 -1846 c35 -39 39 -40 98 -40
71 0 91 -14 81 -55 -4 -14 -1 -35 5 -48 24 -43 105 -128 151 -157 52 -32 83
-72 75 -94 -3 -8 -30 -23 -59 -34 -44 -16 -57 -27 -78 -64 -58 -103 -95 -133
-136 -110 -19 10 -43 87 -44 138 0 32 -70 187 -89 199 -7 3 -32 47 -56 96 -40
78 -44 94 -39 132 14 89 37 98 91 37z m1637 4 c20 -52 -14 -179 -92 -344 -17
-36 -36 -85 -42 -110 -12 -43 -52 -148 -69 -180 -4 -8 -20 -16 -34 -18 -19 -2
-27 2 -32 20 -4 13 -17 37 -30 53 -12 17 -32 53 -45 82 -31 73 -60 97 -107 90
-41 -7 -73 12 -73 44 0 21 46 59 72 59 37 0 128 72 154 122 8 15 14 47 14 72
0 25 4 47 8 50 4 2 48 8 97 12 82 6 92 9 117 35 30 32 53 37 62 13z m-1859
-913 c33 -4 112 -27 175 -53 63 -25 123 -48 133 -52 16 -5 18 -21 16 -183 -1
-98 -3 -185 -5 -194 -3 -9 -27 -26 -55 -39 -59 -28 -78 -22 -91 29 -5 17 -27
55 -48 84 -22 28 -44 67 -49 85 -6 19 -22 50 -38 70 -15 20 -38 58 -50 84 -12
26 -40 67 -62 91 -52 57 -56 107 -6 92 11 -4 47 -10 80 -14z m2105 -1 c23 -23
26 -63 8 -77 -7 -6 -24 -13 -38 -16 -26 -7 -48 -36 -108 -142 -18 -33 -46 -70
-61 -82 -17 -13 -37 -46 -50 -81 -22 -63 -62 -103 -122 -124 -17 -6 -41 -27
-55 -49 -19 -31 -30 -39 -53 -39 -47 0 -57 21 -42 93 7 34 15 104 17 154 3 55
13 116 24 149 11 32 20 65 20 74 0 22 20 30 71 30 22 0 58 10 82 23 96 51 224
105 255 106 20 1 40 -7 52 -19z"/>
<path d="M1442 2798 c-46 -23 -37 -108 12 -108 27 0 76 51 76 79 0 38 -41 51
-88 29z"/>
<path d="M6455 2760 c-13 -20 17 -81 49 -101 42 -26 72 -24 92 6 15 23 15 27
-5 59 -12 19 -28 37 -37 40 -25 10 -92 7 -99 -4z"/>
<path d="M2320 1545 c-10 -12 -10 -21 -2 -40 13 -27 31 -32 50 -13 16 16 15
33 -4 52 -19 20 -28 20 -44 1z"/>
<path d="M2650 1419 c-15 -28 -9 -59 15 -75 46 -30 88 42 47 79 -25 23 -49 21
-62 -4z"/>
<path d="M5262 1408 c-26 -26 -1 -88 34 -88 32 0 42 41 20 75 -18 27 -35 32
-54 13z"/>
<path d="M1832 1378 c-17 -17 -15 -73 4 -89 14 -11 19 -10 35 10 30 36 20 91
-16 91 -6 0 -16 -5 -23 -12z"/>
<path d="M6092 1313 c-12 -22 -5 -68 13 -83 32 -27 82 41 58 79 -15 24 -60 26
-71 4z"/>
<path d="M1757 1254 c-12 -13 -8 -51 8 -64 21 -18 47 5 43 39 -3 26 -35 41
-51 25z"/>
<path d="M6176 1181 c-26 -29 -17 -55 20 -59 44 -4 62 20 40 53 -20 30 -37 32
-60 6z"/>
</g>
</svg>
