<?xml version="1.0" encoding="UTF-8"?><svg id="Layer_2" xmlns="http://www.w3.org/2000/svg" viewBox="0 0 460.23 407.12"><defs><style>.cls-1{fill:#111;fill-rule:evenodd;}</style></defs><path class="cls-1" d="m391.27,113.73c-.48.1-1.2.43-1.29.79-.17.67.49.9,1.41.99.23-.21.84-.5.95-.92.19-.75-.5-.99-1.07-.87Z"/><path class="cls-1" d="m65.95,115.4c.33-.1.57-.49.8-.7-.28-.83-.84-.96-1.38-.79-.3.1-.73.57-.7.82.09.67.71.85,1.28.67Z"/><path class="cls-1" d="m110.45,323.85s.02.03.03.04c-.03,0-.05,0-.08,0l.05-.04s-.04,0-.06,0c.02-.01.04-.02.05-.03,0,0,0,.02,0,.03Z"/><path class="cls-1" d="m319.68,373.28s.03,0,.04.01c0,0,0,.02,0,.02-.02-.01-.05-.02-.07-.03,0,0,.02,0,.03,0Z"/><path class="cls-1" d="m369.74,358.53s.03-.08.04-.12c.05.09.11.18.16.27-.06-.07-.13-.12-.2-.16Z"/><path class="cls-1" d="m378.92,9.6s.02-.04.03-.06c.03.02.05.05.08.06-.03,0-.07,0-.1,0Z"/><path class="cls-1" d="m385.15,131.33c-.34.08-.67.57-.83.96-.19.45.01.85.72.9.21-.3.53-.62.68-1.01.18-.47-.03-.98-.57-.84Z"/><path class="cls-1" d="m195.29,302.21c.36-.18.62-.54.88-.78-.08-.71-.51-.78-.9-.57-.35.18-.79.53-.83.86-.08.53.44.69.86.49Z"/><path class="cls-1" d="m71.83,133.12c.55.08.71-.46.52-.9-.16-.38-.51-.67-.74-.96-.71.11-.84.53-.63.96.18.37.52.85.85.9Z"/><path class="cls-1" d="m365.33,170.36c.14.33.29.66.43.99.38-.12.62-.19.86-.27-.19-.32-.35-.68-.61-.93-.08-.08-.45.13-.69.21Z"/><path class="cls-1" d="m91.47,170.81c-.2-.31-.34-.51-.47-.72-.31.21-.64.4-.92.64-.02.02.29.56.36.54.35-.1.68-.29,1.03-.47Z"/><path class="cls-1" d="m208.25,304.02c-.21-.09-.54-.3-.58-.25-.17.21-.25.48-.37.73.2.09.53.3.57.25.17-.2.26-.48.38-.73Z"/><path class="cls-1" d="m260.89,301.82c.17.08.46-.06.69-.1-.17-.33-.34-.66-.52-1.01-.28.22-.61.38-.59.49.04.23.22.52.42.62Z"/><path class="cls-1" d="m249.38,304.39c-.04-.25-.28-.46-.44-.69-.16.17-.47.35-.45.49.04.25.27.46.41.66.17-.16.5-.34.48-.47Z"/><path class="cls-1" d="m457.79,194.06c-2.53-4.93-7.37-4.85-11.88-5.46-2.69-1.07-5.22-2.58-8.19-2.85-4.2-1.83-7.68-1.18-10.13,2.97-1.83-.18-3.66-1-5.47.07-2.31-2.3-4.13-2.13-5.36,1.06-.37.28-.73.55-1.1.83-1.66.19-4.72-2.7-4.31,2.14.1,1.22-1.3,2.53-2.91,1.17-1.44-1.21-2.51.01-3.72.36-2.19-.94-3.11,2.74-5.38,1.48-1.14-3.53-3.24-5.02-6.61-3.8-.28-.06-.54.03-.78.32-2.01,0-3.12-2.97-5.52-1.68-.28-.08-.55-.08-.83,0-.3-.1-.59-.2-.89-.3-3.92-1.38-7.35-4.43-11.95-3.52-2.16-1.49-4.9-2.17-6.35-4.63.27-2.84,1.08-5.86-2.54-7.36,0,0,0,0,0,0-.27-1.03.93-2.82-.58-3.03-1.97-.27-1.2,1.8-1.51,2.91,0,0,0,0,0,0-1.87-2.06-4.25-3.66-5.65-6.14.36-.52.72-1.04,1.08-1.56,1.92-.2,1.96-1.56,1.72-2.96-.42-2.52,1.02-3.71,3.05-4.54,2.96-1.9,5.92-3.8,8.88-5.7,1.31-.56,3.21.01,3.79-1.95-.02-.49-.03-.97-.04-1.46,1.43-.53.67-1.86,1.02-2.78,3.41-.23,4.65-2.03,4.09-5.74-1.63,1.51-2.92,2.71-4.22,3.91-1.26-.64-.9-1.73-.75-2.76,1.37-1.35,1.13-2.97.77-4.62,1.86-.43,1.93-1.41.83-2.74,1.81-4.47,1.02-9.12.96-13.72,4.15-.8.81-3.03.88-4.61-.9-.91-1.8-1.81-2.71-2.72,0-.6,0-1.2,0-1.8.65-.27,1.3-.54,1.96-.81.22.57.44,1.17,1.18,1.16.15,0,.29-.38.43-.59-.53-.2-1.07-.4-1.6-.6,1.91-1.37,4.25-1.24,6.39-1.8.6-.29,1.21-.58,1.81-.87,2.63-.55,4.11-2.14,4.38-4.83.33-2.6.19-5.08-1.81-7.08-.61-2.66-3.2-3.66-4.68-5.59-.29-.58-.58-1.17-.87-1.75.39-2.44,1.22-4.68,2.81-6.61.1-.08.2-.14.32-.18-.11.06-.21.12-.32.18,1.74.67,1.87,2.51,2.78,3.79,1.29,1,1.88-.11,2.6-.85.22,2.98,3.8,4.71,3,8.07-.19.79-.77,1.92.56,1.97,1.08.04.92-1.2.99-2.03.07-2.08.15-4.17.22-6.25,4.19-3.49,4.28-4.22.78-6.17-.79-.59-1.53-1.31-2.66-1.07-.35-.77-1.08-.92-1.8-1.06-.92-.3-1.83-.59-2.75-.88-.42-1.62-.64-3.4-2.87-3.56-.3-.31-.6-.61-.91-.92.62-2.57-1.04-4.01-2.69-5.46-1.96-2.51-5.26-1.3-7.61-2.73-.82-.07-1.59-.04-2.21.3-.71-1.18-1.18-2.52-2.34-3.4-.1-.11-.19-.22-.28-.34.09-.26.16-.52.22-.78.03.04.05.09.09.13.85,1.04,1.8.68,2.63-.05,1.74,1.26,3.66,1.9,5.69.72,1.93-1.12-.48-2.71.12-4.07.4-5.17,4.14-10.55-.96-15.37-.03-1.49-.28-2.88-1.55-3.87,1.83-1.25,1.76-2.77.66-4.45.02-.29,0-.59-.05-.88.03-1.23-.08-2.38-1.54-2.77,1.29-1.96,4.28-3.22,2.62-6.39,2.17-.72,2.77-2.47,2.94-4.5.62-1.82.91-3.67.51-5.58-.28-.6-.57-1.21-.85-1.81.05-.74-.06-1.42-.71-1.9-.06-.58-.12-1.16-.18-1.75,1.33-.92,2.29-1.95,1.2-3.66,0,0,0,0,0,0-.6-.62-1.21-1.25-1.81-1.88-.14-1.01.06-2.13-.92-2.87-.61-.59-1.34-.73-2.15-.57-.87-.81-1.74-.81-2.6.02-.94,1.12-1.88,2.23-2.83,3.35-.27.65-.54,1.3-.81,1.95-.27.64-.54,1.27-.81,1.91-.14.27-.18.56-.11.87-1.82,0-1.69,2.52-3.27,2.64-4.11.31-5.26,3.12-5.79,6.54.11,1.94-1.98,2.93-1.95,4.96.05,3.95-1.66,7.85.65,11.88.78,1.36,1.22,4.38-.18,5.63-3.59,3.18-.88,6.63-1.11,9.93-.18,2.74.75,4.96,1.69,7.52,1.26,3.47,1.53,7.87,1.64,11.91.06,2.02.5,3.58,1.81,5.32,4.43,5.94,3.48,14.35-1.78,19.49-3.46,1.73-6.93,3.39-10.94,1.86-4.41-5.38-11.01-2.71-16.42-4.46-2.39-.2-4.78-.36-6.49,1.83-1.37-.19-2.48.06-2.77,1.67-3.66-1.37-5.79.45-7.31,3.52-1.45.64-2.9,1.29-4.34,1.93-1.64-1.43-3.63-.06-5.37-.67-3.46-.3-5.99.78-6.7,4.54-.6.26-1.2.52-1.8.79-.79-1.04-1.24-2.42-2.75-2.74.01-.59.02-1.18.04-1.77,1.27-.34,2.53-.79,3.83-.98,1.45-.22,1.73-1.2,1.43-2.23-.37-1.29-1.34-1.24-2.49-.72-1.53.68-3.03,1.31-3.79,2.94-1.92.98-2.86,2.67-3.44,4.64-1.35,1.63-1.45,3.49-1.07,5.47.42,2.14,1.31,2.57,2.88.89.61.31,1.21.63,1.82.94.4,2.19-4.52,2.56-2.44,3.88,2.21,1.39,2.64,4.37,5.23,4.86,6.84,1.29,5.95,7.27,7.28,11.88.4,1.37-.22,3.22-1.21,3.71-3.29,1.61-4.86,5.12-8.02,6.77-2.71,1.6-7.1.07-8.29,4.48-3.38,1.75-3.02,4.79-1.67,7.25,1.03,1.88,1.81,3.59,1.78,5.69-2.18-.25-3.18.61-2.6,2.84.53,2.01,1.16,4,1.74,5.99,1.31,3.07,3.83,4.35,6.74,5.91,4.54,2.44,9.33.99,13.79,2.43,2.54.82,5.07,1.64,7.79,1.96,3.93.45,8.63.11,11.56,2.16,6.39,4.47,13.08,4.12,19.94,3.27,3.6-.45,3.9.77,3.08,3.56-.6.67-1.2,1.34-1.79,2.01-3.28,1.33-1.26,4.22-1.86,6.34-.62.55-1.25,1.1-1.87,1.66-1.31-.32-3.55-1.71-3.34.78.18,2.12-.49,3.59-.84,5.4-.78,4.01-.9,7.93-4.82,10.36-.17.1-.11.57-.16.87-.55.29-1.1.58-1.66.87-.5-.2-1.16-.68-1.47-.52-.52.26-.53.99-.04,1.47.72.72,1.49,1.39,2.24,2.08-.72,1.33-3.18.05-3.24,1.68-.16,4.1-2.92,6.15-5.74,8.27-2.02-.2-2.78,1.4-3.78,2.66-.84,1.63-1.68,3.27-2.53,4.9-3.66,2.47-2.12,6.39-2.71,9.71-.38,1.14.31,1.94.86,2.78-.06,1.57,1.36,2.83.3,4.73-2.41,4.32.25,9.18,4.98,8.52,3.87-.54,1.54,4.46,4.52,3.87-1.27,1.28-3.08,3.86-3.71,3.6-2.23-.93-4.26.77-6.5-.25-1.84-.84-4.27-1.08-5.21,2.09-.56,1.87-2,3.36-4.44,3.04-2.34-.3-3.25,1.61-4.51,3.01-1.1,1.24-2.11,2.73-3.49,3.51-5.47,3.05-6.33,6.68-2.1,10.78,1.04,1,1.13,1.86.39,2.63-1.17,1.22-1.08,2.68-1.49,4.1-.52,1.81-1.47,4.04-2.92,4.85-.9.5-3.33-1.03-3.54-3.26-.33-2.86-2.33-2.4-4.24-2.14,0,0,0,0,0,0-3.16-2.26-5.71.25-8.48,1.1-.28.29-.57.57-.85.86-1.27.19-2.79-.03-2.91,1.91-4.55,2.52-9.52,3.92-14.43,5.5-3.34,1.37-6.95,2.25-9.29,5.35-1.29.08-2.26.61-2.67,1.91-.51.66-1.01,1.31-1.52,1.97l-.29-.14c-2.08-.83-2.54-.1-1.78,1.83-.32.29-.64.57-.96.86-.25.02-.51.03-.76.03-1.47-.86-2.93-1.04-4.39-.16-.11.06-.23.13-.34.21-.73.11-1.68.06-1.64,1.09.03.79.89.84,1.36.54,1.16-.73,2-.09,2.91.44.41,1.71.2,3.11-1.81,3.61-1.75-.67-3.45-3.17-5.39-.73-1.62,2.03-2.53,1.35-3.67-.26-.81-1.14-1.75-.9-2.64-.04-1.04-.07-2.13-.33-2.85.78-2.25-.4-1.68-2.25-1.91-3.7.13-.2.25-.41.37-.62.87.14,1.76.24,2.62.44.72.18,1.77.59,1.91-.25.19-1.16-1.01-1.22-1.92-1.31-1.56-1.14-3.13-1-4.72-.06-.3,0-.59.05-.87.16-.32-.3-.63-.59-.95-.89.7-1.72.73-2.88-1.67-1.98-.35-.28-.71-.56-1.06-.84-.67-1.57-1.71-2.68-3.53-2.84-1.21-1.62-2.97-2.46-4.64-3.52-6-3.81-13.92-3.09-19.26-8.31-1.23-.74-2.38-1.88-3.7-2.14-2.73-.54-5.35-3.29-8.35-.73-1.29.39-2.74-1.83-4.03.88-2.61,5.5-3.47,5.67-5.71.91-1.25-2.65-5.33-6.47.11-9.82,1.94-1.19.14-7.8-2.43-8.56-2.57-.76-3.85-2.47-5.41-4.29-1.03-1.2-1.92-3.23-4.23-2.58-.9-.09-1.81-.18-2.72-.26-1.77-2.22-2.47-6.6-6.23-5.24-2.42.88-4.52-.23-6.83.49-1.6.49-2.85-2.22-4.19-3.56,2.87.43.7-4.62,4.46-3.9,1.85.35,4.08-1.27,6.14-1.99-1.24-1.72.88-4.2.01-4.9-2.62-2.1-1.25-4.18-.81-6.36.54-.85,1.25-1.65.86-2.79-.59-3.33.93-7.25-2.71-9.72-.84-1.63-1.69-3.26-2.53-4.9-1-1.25-1.75-2.86-3.77-2.66-2.16-1.73-5.38-3.19-5.33-6.05.06-3.17-2.1-2.96-3.66-3.89.75-.69,1.52-1.36,2.25-2.08.49-.49.48-1.21-.05-1.48-.32-.16-.97.33-1.48.53-.55-.29-1.11-.58-1.66-.87-.04-1.74-1.21-2.81-2.57-3.38-1.7-.71-2.6-1.93-2.03-3.46,1.31-3.53-2.57-6.11-1.27-9.91.69-2.03-2-.97-3.3-.66-.61-.55-1.22-1.1-1.84-1.66-.08-.94-.15-1.89-.22-2.83,0-1.28.35-2.46,1.52-3.93-1.96.31-3.4.54-4.84.77.56-1.06.21-2.12-.17-3.09-1.3-3.33.72-3.11,2.89-2.81,6.25.89,12.38,1.07,18.29-1.85,1.26-.62,1.32-2.25,2.97-2.44,5.36-.64,10.72-1.33,16.03-2.31,2.31-.43,4.29-2.09,6.94-1.49,4.98,1.12,13.48-3.05,15.83-7.58,1.44-1.67,1.11-3.91,1.83-5.82.92-2.41-.49-3.2-2.68-3.16h-.1c-.51-1.24,2.21-2.41.11-3.72,3.41-3.11,3.42-5.26.05-9.15-1.92-4.13-5.64-3.94-9.31-3.89-1.47-1.85-1.97-4.62-4.38-5.52-3.32-1.25-4.52-3.72-3.63-6.7,1.11-3.72.33-8.91,5.58-10.15,3.48-.82,4.55-3.88,6.48-5.99,1.96-2.14-1.13-1.76-2.1-2.4.6-.31,1.21-.62,1.81-.93,3.52-.84,3.96-2.69,1.74-7.3-.59-1.96-1.53-3.66-3.44-4.63-1.18-2.14-3.13-3.02-5.45-3.12-.29-.01-.94.91-.88,1.32.42,2.94,3.45,1.45,4.88,2.76.09.08.29.03.44.04.04.28.01.56-.09.82-.89,1.24-1.78,2.48-2.67,3.71-.58-.27-1.17-.55-1.75-.82-1.14-1.75-1.38-4.56-4.57-3.93-2.1-1.01-4.29-1.07-6.53-.66.23.15.49.25.75.35-.3-.04-.56-.14-.75-.35-1.74-.34-3.29-1.54-5.19-1.13-1.57-3.11-3.75-4.98-7.48-3.61-.27-1.58-1.37-1.79-2.7-1.63-1.71-2.23-4.1-2.05-6.5-1.86-5.14,1.25-10.9-.23-15.44,3.59-4.24,2.89-8.05.74-11.89-1.01-4.21-3.92-5.22-8.49-3.83-14.14,1.02-4.15,4.15-7.36,4.33-11.96.07-1.82-.88-3.58-.35-5.06,1.56-4.38,3.75-8.73,3.3-13.38-.3-3.14,2.57-6.53-1.14-9.7-1.34-1.15-1.35-4.78.56-6.9.58-.65.89-1.28.71-1.97-1.14-4.46.09-9.42-2.83-13.5-.6-2.24-.62-4.8-3.33-5.83-1.19-.32-2.39-.63-3.58-.95,0,0,0,0,0,0-.48-1.06-1.19-1.91-2.27-2.4-.01-.58-.03-1.16-.05-1.74-.24-.34-.49-.69-.73-1.03-.28-.62-.56-1.24-.84-1.86-.31-.3-.62-.6-.93-.9-.91-.64-.54-2.23-1.89-2.55-.86-.85-1.72-.81-2.59-.01-.81-.16-1.54-.02-2.15.58-.97.74-.76,1.86-.93,2.86-.66.67-1.32,1.34-1.98,2.01-.84,1.69.1,2.68,1.39,3.53,0,0,0,0,0,0,0,0,0,0,0,0-.06.89-.12,1.78-.18,2.67-.23.32-.46.65-.69.97-1.41,2.1-1.17,4.24-.18,6.4h0s0,0,0,0c0,.3.02.61.03.91.84,1.06-1.51,3.75,1.81,3.55.25.63.51,1.27.76,1.91-.23.92-.47,1.83-.7,2.75-.48,2.45,1.53,1.54,2.58,1.9-.17-.12-.34-.25-.5-.37.19.09.37.2.5.37-.47,2.67-2.16,5.23-.77,8.08.08.36.17.72.25,1.09-1.02,1.02-1.12,2.32-1.13,3.64-.69,1.76-3.21,2.48-2.78,4.87.63,3.49,1.27,6.99,1.91,10.49.7,1.38-2.09,3.01.24,4.23,1.58.82,2.38-.54,3.3-1.44,1.38-.32,1.82-1.35,1.93-2.61.74-.42,1.49-.84,2.23-1.26.35.55.87,1.01.84,1.75-.07.29-.13.57-.1.88-.06.27-.1.54-.02.83-.18.6-.38,1.22-.66,1.79-.72,1-1.29,2.08-1.57,3.29-.17.28-.36.56-.56.83-.79.35-1.43,1.03-2.04,1.79-1.91-.06-3.52-1.92-5.61-.93-1.73.95-3.57,1.77-4.55,3.65-1.47.85-2.71,1.8-1.72,3.77-1.36.84-1.32,2.38-1.82,3.66-.94.28-1.88.56-2.82.83-.72.13-1.44.28-1.79,1.05-.95.15-2.15-.5-2.73.84-4.92,2.84-1.2,4.51.87,6.4.07,2.09.13,4.17.2,6.26.06.83-.1,2.07.99,2.03,1.34-.05.76-1.19.57-1.98-.8-3.36,2.78-5.08,3-8.06,1.31,1,2.6,1.68,3.34-.55.34-1.04.86-1.84,1.94-2.19,1.5,1.88,2.7,3.89,2.89,6.36-.39.56-.78,1.13-1.17,1.69-.74.26-.85.89-.9,1.55-2.3,1.3-3.59,3.38-4.52,5.75-2.86,2.42-1.86,5.14.23,6.98,1.79,1.59,3.55,3.62,6.18,4.11.78,2.62,2.59,2.42,4.59,1.67.33-.09.67-.14,1.01-.2.04.06.08.13.12.19,0,0,0,0,0,0,0,0,0,0,0,0-.02.3-.03.59-.03.88,0,0,0,0,0,0-.99,1.11-2.67,1.86-1.97,3.84,1.88,1.4-2.48,4.9,1.85,5.47-1.69,4.72-.19,9.22,1,13.73-1.05,1.28-.98,2.27.76,2.8-.8,1.75-.6,3.33.84,4.69.05.25.18.46.37.64,0,0,0,0,0,0,0,0,0,0,0,0-.07.83-.27,1.59-1.15,1.94-1.34-1.19-2.68-2.38-4.39-3.91-.29,3.36.63,5.18,3.57,5.62,1.48.44.1,2.57,1.73,2.92l-.04,1.45c.58,1.97,2.47,1.4,3.79,1.96,2.96,1.9,5.93,3.8,8.89,5.7,4.06,1,2.72,4.41,3.14,7.03.18,1.43,1.27,1.83,2.43,2.14,0,0,0,0,0,0,.03.25.05.5.05.75-2.51,1.02-4.23,2.79-5.1,5.37-.52-1.12-.38-2.69-2.1-3.07-.96.89-.5,2.19-.9,3.23-.2.94.1,1.73.74,2.42-2.76,1.35-1.93,4.67-3.63,6.61-5.79,2.14-11.58,4.29-17.37,6.43-.3.01-.59.08-.86.2-.6.01-1.21.02-1.8.03-2.14-1.15-2.71,2.03-4.57,1.65-.17-.13-.34-.22-.5-.28-1.36-.7-2.7-.86-4,.4l.09.11s0,.01,0,.02c-.03-.04-.05-.09-.08-.13-2.17.36-2.78,1.56-1.91,3.55-4.04.25-7.49-4.05-11.87-1.6-.1.06-1.1-.87-1.07-1.28.37-4.2-2.25-2.88-4.39-2.46-.37-.28-.73-.56-1.1-.84-1.18-.73-.86-3.99-3.58-2.12-.6.34-1.19.68-1.79,1.02-1.82-1.03-3.65-.5-5.47-.02-2.46-4.11-5.92-4.84-10.13-2.96-1.98.18-3.79.82-5.46,1.87-1.5.41-3,.81-4.49,1.22-3.74,1.04-8.18.73-10.11,5.26-3.52,1.58-3.09,3.11.07,4.59.62-.02,1.25-.04,1.87-.05,4.48,1.45,9.13.69,13.7,1.06,1.72.14,3.72-.3,4.38-1.64,2.27-4.56,2.68-.46,3.75.64.39.37.79.74,1.18,1.11.52.27,1.04.54,1.56.82.1,1.57-.21,3.22.82,4.63,1.73,3.51,4.53,2.8,7.39,1.89,0,0,0,0,0,0,.32.25.64.5.96.74,1.97.61,2.89,3.11,5.3,2.91.06.24.14.46.26.67,1.91,3.2,2.78,7.31,7.25,8.27,1.22.3,2.45.6,3.68.9,1.18,1.51,2.47,2.83,4.63,2.62l-.1.17c.16.57.16,1.51.5,1.65,4.46,1.83,3.68,5.03,2.33,8.41-.36.27-.71.54-1.07.81-.89.03-1.78.06-2.67.09,0,0,0,0,0,0,0,0,0,0,0,0-.29-.08-.59-.09-.89-.03-.92-.25-1.75-.58-1.93-1.68,1.27-.94,2.55-1.89,3.83-2.83.52-.21,1.24-.52.93-1.12-.54-1.02-1.38-.51-2.1-.07,0,0,0,0,0,0-2.94.81-5.93,1.59-4.24,5.79.84.6,1.68,1.21,2.52,1.82,1.07,3.96,1.55,8.46,7.33,8.21.37.84.74,1.68,1.11,2.52-.32,1.9.65,3.89-.55,5.76-.77,1.2-1.17,2.54.54,3.46l.36.11h.38c1.15.93,1.4,2.11.91,3.48-2.38,1.2-4.5,2.58-3.81,5.8,1.32,1.8,2.64,3.59,3.96,5.39-.63,1.19-2.96,2.55.84,2.8,4.83.31,8.88-1.24,12.73-3.82.94.92,1.88,1.84,2.83,2.76,1.98.74,1.96-.52,1.88-1.84.78.05,1.19-.55,1.67-1.04.9.37,1.8.75,2.7,1.13.06,1.53.21,3.08-.83,4.4-.11.11-.24.2-.31.33-.04.07,0,.29.02.29,4.71.27,9.56,1.61,13.98-.97,2.49-1.46,4.77-4.3,7.28-.49,1.97,2.98,5.63-.69,7.38,2.26.06.11,0,.3,0,.45-6.36.27-6.54.55-3.44,5.54-.04.61-.08,1.23-.12,1.84-3.15-.09-3.86,2.2-4.48,4.59.3,1.67-2.43,1.78-1.86,3.59-.08.87-.16,1.75-.23,2.62-1.26.17-2.64.16-2.65,1.98-.91,2.35.73,2.74,2.3,2.55,1.41-.17,2.69-.18,3.98.38.26,1.73,1.57,1.69,2.86,1.7,0,.28,0,.55-.02.83-1.47.83-2.88,1.7-2.6,3.74-.54,1.09-1.3,2.1-1.12,3.42-3.23,1.65-4.3,3.56-1.68,6.89,1.2,1.53,1.63,3.84,1.47,6.01-2.5.85-4.69-.7-7.05-.9-1.27.97-2.07,2.28-2.71,3.71-.38.55-.76,1.11-1.13,1.66-.54.66-1.07,1.33-1.61,1.99-4.35.78-2.28,5.01-3.89,7.26,1.51,1.6,3.34,2.44,5.41,2.71.23.14.46.28.71.42,1.1.58,2.15,1.33,3.43,1.4.49.52.71,1.15.4,2.01-.2.29-.39.59-.57.89-.27.04-.54.09-.81.14-.77.94-1.91.42-2.84.73-2.08-.6-4.17-.89-6.29-.19-1.74-.89-4.03-1.85-5.13-.05-1.3,2.13-1.1,4.83,1.26,6.71-.37.88-.62,1.75.23,2.52-.03,1.78.09,3.51,1.74,4.66.11.26.15.53.14.8-1.1,5.6-.63,8.29,1.77,10.01.25.08.5.16.74.24.64,1.02,1.72,1.27,2.76,1.59,1.61.81,2.71,2.47,4.62,2.79.19.2.43.28.7.23,2.98,1.18,4.37,5.33,8.43,4.49.55.05,1.1.11,1.65.17,3.04,1.82,5.89,3.99,9.33,5.09,1.28.58,1.86,2.64,3.75,1.8.18-.08-.03-1.02-.05-1.56.69-.08,1.44-.03,1.8-.83.25-.05.5-.07.75-.06,2.68,1.13,2.62,5.66,6.54,5.26,1.93,3.03,5.07,3.93,8.3,4.68-1.07,4.38,2.14,3.5,4.51,3.67,1.52-.31,3.28.74,4.58-.8.77-.06,1.38,0,1.88.82,1.86,3.05,5.21,1.73,7.84,2.32,2.4.54,1.42-2.49,2.34-3.48,1.57-1.7,3.28-3.73,5.95-3.6,1.83.09.83,1.95,1.37,2.9-.98,1.76.35,3.63-.27,5.41-.29-.01-.56.04-.82.17-.33.04-.66.07-.99.11-.26-.91-.52-1.81-.94-3.3-1.38,1.91-2.53,3.51-3.68,5.1.02.55.04,1.1.07,1.65-.97.37-2.78-.44-2.66,1.43.08,1.17,1.45,1.32,2.51,1.32,1.92,0,3.84-.06,5.76-.09,6.02.02,12.07.7,18.01-.87.55-.22,1.08-.51,1.64-.64,7.57-1.73,15.3-1.72,22.98-2.21.54.11,1.07.22,1.61.33.07.66-.24,1.66.64,1.76,1.31.16.91-1.05,1.06-1.78,0,0,0,0,0,0,.48-.01.96-.02,1.43-.03,2.68,1.31,5.37,2.75,7.37-1,.68-.86.88-1.77.27-2.75-.03-.02-.05-.03-.08-.06,0-.01,0-.03.01-.04.2-.06.39-.13.59-.16.51,1.47,1.67,1.32,2.84,1.15.02-.82.04-1.63.06-2.44l-.13-.43c.33.04.66.08.99.12,1.52,0,3.04,0,4.55,0-.3.92-.6,1.84-.9,2.76,1.64,1.21,2.14-2,3.74-.96,1.43,5.25,2.62,5.81,8.16,3.82.48,0,.96.02,1.43.03.15.73-.24,1.94,1.06,1.79.88-.1.57-1.11.64-1.77,0,0,0,0,0,0,.54-.11,1.07-.22,1.61-.33,1.77.17,3.49.42,5.31.37,6.54-.18,13.01.62,19.32,2.47,5.94,1.58,11.99.89,18.01.88,1.92.03,3.85.09,5.77.09,1.06,0,2.43-.15,2.51-1.33.12-1.87-1.7-1.05-2.67-1.42-.01-.61-.03-1.22-.04-1.83-1.17-1.48-1.89-3.33-3.71-4.5-.29,1.03-.56,1.94-.82,2.86-.33-.02-.67-.05-1-.07-.21-.1-.44-.16-.68-.17-.72-1.78.89-3.7-.32-5.46.42-1.19-.51-3.55,2.23-2.76,2.36.68,4.82,1.99,5.2,4.37.49,3.06,1.94,2.31,4.04,2.49,3.9.34,6.54-4.1,10.58-2.35.92.03,1.83.05,2.75.08,1.02.04,2.09.25,2.76-.84,1.51-.74.58-2.77,1.91-3.61,1.19-.08,2.39-.17,3.58-.25,1.96-.62,2.08-3.58,4.54-3.58,2.31-.54,3.35-2.15,3.71-4.35.9-.07,1.79-.15,2.7-.22.29.09.58.15.88.16,1.76,4.37,3.09.17,4.61-.23,1.23-.54,2.46-1.08,3.68-1.63,1.43-1.09,3.8-.56,4.61-2.7,4.44-.31,7.86-2.7,11.11-5.42.28.05.51-.02.71-.22,1.89-1.15,3.77-2.29,5.66-3.44.73-.05,1.42-.19,1.82-.91.54-.11,1.08-.23,1.63-.34,2.51-3.23.75-6.91,1.11-10.37.97-2.14,2.54-4.13,1.68-6.73-.03-.3,0-.58.11-.86,2.54-1.82,2.74-4.53,1.39-6.73-1.18-1.92-3.44-.78-5.19.07-2.14-.56-4.24-.31-6.34.24-.92-.35-2.07.18-2.84-.74-.23-.53-.68-.69-1.19-.71-.02-.02-.03-.04-.05-.06-.13-.29-.19-.55-.23-.78.63-1.81,2.85-2.03,4.18-3.14.18-.15.34-.3.5-.45.55-.12,1.1-.24,1.65-.36.25-.12.49-.25.74-.37,1.2-.14,2.23-.62,2.97-1.76-1.02-2,.25-4.75-2.06-6.33-.62-.28-1.25-.57-1.87-.85-.31-.31-.62-.62-.93-.93-.6-.92-1.2-1.84-1.79-2.76-1.51-5.37-4.73-2.82-7.58-1.93-.16-.02-.36.02-.6.16-.68-.32-1.36-.64-2.04-.96.09-.91.19-1.81.28-2.72.62-3.42,6.71-6.85-.02-10.26.19-1.32-.59-2.33-1.12-3.41.29-2-1.11-2.9-2.48-3.81-.15.11-.3.23-.45.34,0-.01,0-.02-.01-.03,0,0,0,0,0,0,.15-.1.31-.21.46-.31.72-.49,1.44-.98,2.15-1.47.14-.07.28-.16.42-.28.08-.2.13-.41.15-.63,1.26-.66,2.54-.59,3.95-.49,2.45.18,3.33-1.12,2.2-3.46-.5-1.19-1.66-.75-2.53-1.01-.09-.89-.17-1.77-.25-2.65.28-1.85-1.53-2.25-2.34-3.36-.06-.12-.13-.23-.21-.36.5-3.54-1.56-4.51-4.56-4.54.23-.59.46-1.17.69-1.76,3.05-4.96,2.88-5.27-3.01-5.49-.15,0-.29-.05-.44-.07-.17-1.82.9-2.22,2.23-1.57,1.94.93,4.26.14,4.82-.89,1.96-3.59,4.74-2.2,6.37-.82,4.72,4,9.72,2.48,14.78,1.67-1.35-2.07-.1-3.66.98-5.27,1.05-.59,1.76.6,2.71.54-.08,1.32-.11,2.6,1.88,1.84.94-.92,1.89-1.84,2.83-2.76,3.84,2.56,7.86,4.14,12.69,3.82,3.74-.25,1.56-1.58.88-2.8,1.32-1.8,2.64-3.59,3.96-5.39-.52-2.41-.95-4.88-3.81-5.73-.6-1.19-.61-2.33.31-3.38.45-.09.89-.18,1.34-.27,1.14-.6,1.59-1.63.88-2.63-1.46-2.09-.93-4.35-.89-6.58.37-.84.75-1.68,1.12-2.52,5.7.19,6.35-4.16,7.33-8.19.83-.61,1.67-1.22,2.5-1.84-.57-1.52,2.54-4.38-1.67-4.58-.65-.32-1.3-.63-1.94-.95-.87-.47-1.82-1.42-2.69-.24-.43.58.35.98.89,1.25.31.27.62.54.93.81,0,0,0,0,0,0,0,1.18,0,2.36,0,3.54,0,0,0,0,0,0l.05.08c-.88-.02-1.76-.04-2.65-.06-.62-.34-1.23-.68-1.85-1.02-.02-3.13-2.37-7.11,3.08-8.24.27-.06.35-1.06.51-1.63l-.04-.05c3.02.43,4.51-2,6.52-3.47.58-.05,1.16-.1,1.74-.15,1.44.35,2.12-.65,2.85-1.58,2.54-1.77,3.38-4.65,4.68-7.22,2.32-.05,3.32-2.39,5.28-3.05.84-.24,1.95-.93,2.5-.63,3.73,2.05,4.73-1.08,5.98-3.19.7-1.18.55-2.86.79-4.31.24-.09.47-.19.7-.31,1.17-.41,2.29-.85,1.98-2.45,1.12-.66,2.23-1.85,3.2.26.94,2.05,2.87,2.54,4.87,2.41,4.58-.3,9.24.4,13.73-1.04,1.2.5,1.91-.41,2.75-.96,3.3-2,.86-2.72-.81-3.61Zm-371.5,43.75c-3.26.46-3.73,1.66-6.66,3.1-2.93,1.43-6.41-1.15-6.41-1.15-2.09-1.1.46-1.95,1.81-4.01,1.35-2.06,3.58-1.32,8.4-2.87s6.12,4.47,2.86,4.93Zm300.59,1.95s-3.48,2.58-6.41,1.15c-2.93-1.43-3.4-2.64-6.66-3.1-3.26-.46-1.96-6.48,2.86-4.93,4.82,1.55,7.05.8,8.4,2.87,1.35,2.06,3.9,2.91,1.81,4.01Z"/></svg>