<?xml version="1.0" encoding="UTF-8"?><svg id="Layer_2" xmlns="http://www.w3.org/2000/svg" viewBox="0 0 477.86 361.89"><path d="m473.77,240.52c2.83-.98,4.09-1.71,4.09-2.8,0-.68-.49-1.48-1.4-2.59-1.08-1.14-2.38-1.89-3.73-2.51-1.36-.62-2.77-1.11-4.09-1.74-5.9-2.8-9.42-1.67-13.82,3.26h-.01c-3.83,3-4.76,9.54-11.62,9.12-2.52-.15-3.98.73-3.43-2.64.24-1.51-.38-2.47-1.69-2.79-1.4-.33-2.2.69-2.76,1.86-.46.97-1.06,1.95-1.19,2.98-.8,6.71-6.15,9.53-10.57,12.92-2.32,1.78-5.47,2.86-7.61-1.06-1.07-1.96-3.13-2.75-5.01-3.66-1.89-2.95-4.54-4.19-7.91-3.72-2.19.3-4.07-.26-5.66-1.84-.5-.47-.72-1.1-.74-1.68.14.56.37,1.12.74,1.68-1.56-4.54,3.44-3.13,4.49-5.3.31-.05.57-.18.81-.39,1.41-.1,2.63-.39,2.63-1.92,0-.23-.03-.49-.09-.78.05-2.31-.15-4.66.22-6.92.93-5.79-2.09-8.71-7.67-7.18h-.02c-1.68.59-3.67-.58-5.18.99-1.35-.01-2.71-.01-4.06-.01t-.01-.01c-1.55-.62-3.1-1.25-4.66-1.87-.28-1.03.34-1.69.93-2.37,3.05-1.82,4.18-3.92.2-5.78-1.66-.78-1.27-1.75-1.21-2.92,1.92-1.61,3.9-3.16,5.76-4.85,2.41-2.18,2.13-4.6-.67-6.12-1.28-.69-2.64-1.38-4.2-.99-.69-.67-1.38-1.34-2.08-2h0s-.01-.02-.01-.02c-.09-.12-.21-.21-.33-.3-1.25-1.13-2.51-2.27-3.77-3.41,1.79-2.17,4.24-.24,6.12-.95,1.01-1.8-2.28-1.66-1.16-3.47,2.54-4.1-1.77-4.11-3.27-5.8-.61-.64-1.23-1.29-1.85-1.93-2.83-2.14-6.99-2.1-8.87-5.8h0c-.38-.34-.75-.67-1.13-1,.17-1.83,1.19-3.44-2.31-3.65-4.17-.25-9.18-.37-10.86-6.2-.47-1.62-2.34-1.33-3.5-.78-1.28.6-2.45,1.01-3.81.62-1.12-1.73-2.05-3.51-2.05-5.53,0-.57.08-1.16.24-1.77.34-1.03.5-2.02.46-2.95.02-4.11-2.2-8.72-5.51-11.12-.36-.33-.79-.6-1.3-.81-2.06-3.2-5.88-5.76-3.63-10.56,1.98.26,3.34-.47,3.81-2.59.27-.32.51-.62.77-.93.57-.41,1.14-.83,1.71-1.24,2.75-.76,5.06-2,5.32-5.4,1.18-1.7,1.84-3.49.91-5.57.05-.61.09-1.23.14-1.84,1.51-1.29,3.08-2.38,4.9-2.38.7,0,1.45.17,2.25.55,3.89,2.57,5.09,6.6,6.58,10.93,1.58,4.61,2.81,10.41,9.05,11.59.55.11,1.28,1.5,1.25,2.26-.23,5.62,2.42,10.84,1.99,16.46-.09,1.15-.72,2.77.84,3.19,1.59.43,2.18-1.22,2.97-2.33,1.18-1.67-.04-4.2,1.78-5.57,5.19-3.92,4.63-9.54,4.3-15.13-.47-8.01-.04-15.78,6.08-21.85.79-.78.83-1.95,1.27-2.88,2.39-5.03.19-10.73,2.39-15.78,2.9-6.69.52-13.16-2.09-18.98-3.52-7.83-10.74-11-18.33-14.28-9.44-4.09-18.16-4.15-27.22-.3-3.31,1.41-5.04.57-6.15-2.77-1.02-3.09-3.64-4.75-6.37-4.91-2.98-.18-5.09-.94-6.6-3.58-.63-1.1-2.21-2.37-2.45-.39-.66,5.49-5.56,5.14-8.55,7.34-.99.72-2.09,1.21-2.49,2.43-1.18,3.61-2.74,1.95-4.33.4-.01-1.84-.02-3.68-.03-5.53v-.78c0-6.13-.23-6.13-6.1-5.8-.94-.99-1.95-1.84-3.34-2.05-1.51-1-3.17-.74-4.81-.59-2.38-.06-4.76-.13-7.15-.19-1.64-1.39-4.07-1.07-5.58-2.75-.25-2.22-3.74-1.88-3.38-4.58.92-.59,1.95-1.03,2.9-1.58s1.82-1.21,2.44-2.25c1.26-2.38,1.54-4.61-.88-6.44-1.42-1.32-3.02-2.22-4.71-2.93-1.69-.71-3.46-1.23-5.21-1.82.61-.58,1.68-1.41.51-2.01-1.33-.68-1.71,1.11-2.5,1.84-.06-.01-.12-.01-.18-.01-.13,0-.25.01-.37.04-.54-2.37-1.78-4.24-3.69-5.65-2.82-3.28-6.97-3.37-10.58-4.74-1.08-1.62-2.26-3.17-3.22-4.86-3.26-5.72-4.2-6.12-10.6-4.15-1.49.42-2.99.62-4.49.62s-2.97-.2-4.46-.61h-.01c-3.24-.67-6.75-2.82-9.06,1.75-1.53,2.39-3.05,4.79-4.57,7.18-.87.45-1.73.89-2.6,1.34-.25-.03-.5-.04-.75-.04-3.23,0-5.68,2.11-8.33,3.66-2.68.33-3.41,2.63-4.41,4.66-.3-.67-.7-1.64-1.46-1.06-1.08.8-.07,1.47.53,2.05-.35,1.18-1.04.9-2.05.88-5.63-.14-10.25,5.44-8.72,10.29,1.18,2.11,3.51,2.56,5.22,3.9.09,1.95-2.08,2.07-2.63,3.5-1.75,1.86-4.08,2.68-6.27,3.75-.66.06-1.33.08-2,.08-3.32,0-6.68-.5-9.92.74-2.3.61-4.16,2.85-6.86,1.98-.64-.51-1.17-.77-1.59-.77-.67,0-1.03.69-1.04,2.07-.02,1.77.03,3.54.05,5.32h0c-.01,1.85-.02,3.69-.02,5.53-1.58,1.55-3.14,3.22-4.32-.39-.4-1.21-1.49-1.71-2.49-2.43-3-2.17-7.89-1.84-8.54-7.32-.23-1.96-1.84-.8-2.44.34-1.25,2.38-3.11,3.57-5.7,3.59-3.64.02-6.12,1.83-7.41,5.32-1.16,3.15-3,3.73-5.99,2.39-6.42-2.87-13.08-3.81-20.08-2.44-3.21.62-5.6,2.87-8.63,3.73-15.43,4.4-22.56,17.44-18.58,33.43.67,2.73,1.22,5.57.74,8.67-.45,2.93.54,6.48,2.53,8.61,6.01,6.42,7.36,14.35,5.86,22.29-1.72,9.17,5.2,14.45,7.26,21.81.15.51,1.18,1.02,1.83,1.07.94.08,1.24-.93,1.11-1.65-1.02-5.51,1.77-10.58,1.67-15.99-.03-1.72-.3-3.98,2.13-4.5,3.39-.73,4.4-3.66,6.11-6.21,3.46-5.19,2.62-12.85,8.85-16.38.01-.01.02-.01.03-.02,2.8-.88,5.09.15,7.14,2.06.05.62.09,1.24.13,1.85-1.06,2.41.08,4.47.95,6.57.61,1.35,1.48,2.35,2.53,3.09,1.04.74,2.26,1.23,3.58,1.59.31.31.62.62.92.93.25.32.5.64.74.96.26,1.36.93,2.01,1.78,2.37.85.35,1.88.41,2.84.57.03.31.05.62.05.92,0,3.75-2.28,6.41-4.49,9.11-4,2.25-6.79,7.54-6.79,12.09v.31c-.23.77-.09,1.83.44,2.66.74,2.79-.39,5.08-1.82,7.3-.37.11-.72.16-1.07.16-.93,0-1.81-.35-2.74-.79-1.18-.54-3.19-.81-3.47.79-.98,5.48-6.03,4.25-9.03,6.31h-.37c-2.24,0-4.73-.37-4.12,3.54.04.28-.53.66-.81.99-1.66.05-3.11.71-4.54,1.44-1.44.73-2.85,1.53-4.43,1.84-.5.1-.33,1.05.03,1.59-.28.63-.55,1.25-.83,1.87-.32.27-.64.54-.97.82-2.36.28-2.63,3.83-5.76,3.46,2.71,1.76,3.12,3.68.93,5.93,2.4.6,4.67-1.14,6.27,1.1-.44.9-1.14,1.47-1.9,1.98-.76.51-1.56.96-2.2,1.61-.01.01-.02.01-.03.02-1.84.93-3.68,1.86-5.51,2.8-3.43,1.75-3.74,4.06-.85,6.59,1.79,1.56,3.63,3.07,5.45,4.6.02.42.09.83.09,1.21,0,.68-.22,1.27-1.34,1.69-3.32,1.23-3.02,3.26-.53,5.33h.01c2.86,4.18-1.74,3.32-2.98,4.73-3.8-.55-7.6-1.28-11.42-1.58-3.73-.29-6.23,3.34-5.43,7.26.27,1.33.32,2.82.06,4.15-.83,4.18,1.48,6.01,4.65,7.51,1.27.6,3.75-.14,3.43,2.63-.24,2.16-1.83,3.02-3.63,3.59-3.93-.59-7.65-.52-10.09,3.51-1.89.9-3.96,1.69-5.01,3.65-1.97,3.66-4.75,2.77-7.24,1.27-2.54-1.52-4.64-3.79-7.06-5.56-3.12-2.29-3.1-6.18-4.61-9.28-.76-1.56-1.15-3.5-3.26-3.1-1.94.37-1.75,2.07-1.55,3.72.13,1.01-.28,2.74-1.48,2.17-3.39-1.62-8.28.06-10.17-5.09-.46-1.25-1.01-2.97-2.6-3.59-.96-1.58-2.27-2.76-3.84-3.65-1.05-1.39-2.19-1.82-3.38-1.82-1.47,0-3.01.67-4.51.99h-.95c-.32-.09-.63-.13-.91-.13-1.19,0-2.1.72-2.88,1.75-.53.3-1.05.6-1.58.9-2.4.74-5.59.51-5.59,4.19,0,.2.01.42.03.65h-.01c.75,1.63,1.9,2.63,3.73,2.57.58.12,1.16.24,1.74.35.6.58,1.19,1.15,1.79,1.73v.16c0,2.15-1.87,4.62.99,6.31.26.33.51.66.77.99.99,3.39-.42,5.41-3.46,6.48-2.21,1.15-4.16,2.35-.95,4.67.46,2-2.12,3.43-.96,5.56-.05.09-.14.21-.14.29v.02c.07.22.19.41.29.62.19.36.39.71.58,1.07.08.26.2.5.34.73.84,1.46,1.62,3.06,3.19,3.76,6.94,3.13,13.75,6.54,19.88,11.19,5.49,4.16,12.48,3.61,18.34,6.52,4.46,1.32,8.92,2.63,13.38,3.95.95.56,1.95.72,2.97.72.55,0,1.11-.05,1.68-.11.87.1,1.73.2,2.59.29,1.26.73,2.61,1.08,3.98,1.31,1.37.22,2.77.33,4.14.59.38.84,1.13.73,1.83.77,1.26.68,2.62.96,3.99,1.17,1.37.2,2.75.33,4.09.68,1.43.81,2.77,1.87,4.52,1.84h0s.05.01.05.01c.01.01.02.01.02.01,1.34,1,2.87.85,4.39.81,1.81.36,3.62.73,5.42,1.09,1.03,1.15,1.69,2.83,3.63,2.63,1.46.2,2.89.49,3.65,2.04-.35,1.54-.71,3.08-1.07,4.62-.73.2-1.49.15-2.25.18-.76.02-1.5.13-2.17.66-1.49.04-2.99.08-4.48.13-.29-.31-.62-.42-.95-.43-2.09-.83-4.18-.9-6.27.41-.7.09-1.45.07-1.88.82-1.26.9-3.71.73-3.71,2.72,0,.11,0,.23.02.36.26,2.06,2.62,1.39,4.08,1.88,1.42.48,2.84.85,4.21-.16,2.56-.04,5.18.59,7.62-.6.17-.05.34-.13.5-.25,0,0,.02,0,.03,0h0s-.05-.12-.05-.12c3.89.59,7.74,1.56,11.72.83.87.38,1.75.76,2.62,1.14.72,1.08,1.71,1.43,2.97,1.66,5.34.97,10.85.92,16.03,2.87,3.25-1.01,4.3,3.35,6.31,3.27,2.93-.11,4.92,1.18,7.16,2.4-.47,1.24-1.95,1.85-2,3.71,1.45-.58,2.21-1.62,2.9-2.74.58.04,1.15.08,1.73.12.61.58,1.21,1.16,1.82,1.73.12,1.82.65,2.7,1.56,2.7.56,0,1.27-.34,2.11-.98,3.52.59,5.42-1.18,6.2-4.58.74-.68,1.02-1.54,1.02-2.51,0-.08-.01-.17-.01-.25,1.03-1.57,2.79-3.31,2.79-5.01,0-.34-.06-.67-.22-1-2.84-5.97-1.43-12.16-1.53-18.21-.06-4.35,3.31-8.23,2.63-12.9h0c3.98-4.86,8.92-7.19,15.18-6.9,3.06.13,6.13-.76,9.06-1.85.72.15,1.5.08,2.24.16.74.07,1.44.29,2.02,1,0,2.73,1.23,5.59-.86,8.08-1.6,2.42-4.4,3.98-5.09,7.34,4.34.81,6.77-3.87,10.73-3.5.22.19.48.31.77.37-.14,2.18.04,4.31.99,6.3-.34,1.41-.44,2.75.86,3.76,1.6.97,2.17,2.32,2.42,3.79s.18,3.07.46,4.53h0c-.09,1.32.47,2.19,1.67,2.62.32.02.63.04.94.06,1.31.65,3,.91,3.94,1.93.16.99.36,1.97.65,2.9.02,1.69-2.14,2.78-1.22,4.72.61,3.5-.48,6.5-1.92,9.68-1.83,4.03-5.19,7.17-6.1,11.68-.8.25-.85.94-.9,1.64-1.77.74-3.34,1.68-3.55,3.92-2.39,1.14-4.99,1.97-6.34,4.63-.95.85-2.63,1.7-1.78,3.09.75,1.23,2.41.62,3.56-.11,1.16-.74,2.38-1.11,3.71-1.17.98-.02,1.86-.24,2.6-.68.75-.44,1.38-1.09,1.88-1.98,1.6-1.51,3.19-3.02,4.78-4.52,1.79-1.36,3.56-3.06,5.98-1.65,5.49,3.21,10.98,4.91,16.89,1.03.9-.59,1.06.71,1.38,1.33.37,2.24-1.71,5.86,1.16,6.42,2.33.46,2.18-3.43,2.95-5.49t.02-.02c.5-1.34-.31-3.25,1.58-4,1.25,1.46-.44,4.86,2.2,4.86s.94-3.41,2.24-4.92c1.73.87,1.08,2.7,1.54,4.06.79,2.05.55,5.86,2.96,5.51,2.69-.38.85-3.85,1.16-5.95.02-.14-.01-.29-.02-.43.01-.01.01-.02.01-.03.37-.73.61-2.21,1.72-1.13,4.74,4.64,10.53,1.71,14.5.2,3.43-1.31,5.34-1.68,8.03.21,1.27,1.21,2.55,2.42,3.82,3.62.32.31.63.61.95.91.82,1.43,2.09,2.2,3.57,2.68,1.47.19,2.98.07,4.34.96,1.26.82,3.18,1.73,3.87.07.64-1.56-1.12-2.55-2.7-2.87-.4-2.72-2.2-3.58-4.56-3.7-.29-.29-.59-.58-.88-.87-.45-.81-.8-1.7-1.31-2.44-.52-.74-1.18-1.33-2.23-1.55-.97-2.06-1.83-4.18-2.91-6.17-3.01-5.58-7.58-10.57-5.81-17.85.12-.51-.69-1.26-1.07-1.91-.06-1.82-.12-3.64-.19-5.46.29-.06.57-.14.84-.25,1.35.33,2.53-.06,3.64-.83,2.03-.13,2.62-1.35,2.62-3.01,0-.22,0-.45-.03-.68v-2.73c0-2.08,1.5-3.29,2.63-4.71.45-.88,1.64-1.46,1.08-2.76h0c.58-2.54,1.16-5.08,1.74-7.62.14-.01.28-.02.41-.02,3.72,0,6.16,4.29,10.39,3.52-1.01-3.17-3.1-5.16-5.38-6.98-3.54-2.07.53-5.19-.97-7.54h-.01c.41-1.22,1.14-1.66,1.98-1.82.85-.17,1.8-.06,2.65-.21,2,.69,4.03,1.16,6.08,1.48,2.06.32,4.14.49,6.25.56,5.85.21,11.7,4.39,11.88,8.65.14,3.39,1.43,6.2,2.76,9.1v.02c.56,5.34.06,10.76-.31,16.01-.25,3.68-2.04,6.97,1.23,10.02-.03,1.54.63,2.77,1.56,3.89.1,1.27.89,2.05,1.82,2.74,3.96,2.09,7.22,1.71,9.25-2.87.59-.02,1.18-.04,1.78-.05.76,1.05,1.27,2.41,3.27,2.59-.92-1.36-1.66-2.45-2.39-3.53.89-.66,1.78-1.32,2.67-1.97.92-.24,1.83-.49,2.74-.73,1.4,1.07,2.72,1.11,3.52-.66.6-1.32,1.35-2.24,2.82-2.35.58.11,1.14.77,1.76.09,3.6-.44,6.91-2.12,10.68-2.12.39,0,.78.02,1.17.06,2.26.21,5.31-.15,7.26-2.43.66-.12,1.33-.24,1.63-1,.6-.07,1.19-.14,1.79-.21.95.22,1.9.31,2.83.31,2.69,0,5.32-.73,7.98-1.11-.19-.12-.39-.23-.59-.34.21.07.41.17.6.33h-.01s-.01.04-.01.04c1.25.79,2.58.94,3.92.94s2.76-.15,4.1.07c.65.46,1.3.61,1.95.61,1.05,0,2.1-.41,3.15-.61,1.43-.28,3.34-.13,3.48-2.05.15-2.01-2.03-1.75-3.19-2.48-.85-.39-1.7-.78-2.55-1.17-.13.06-.25.12-.38.18,0-.01-.02-.03-.03-.04l.41-.14c-2.09-1.25-4.17-1.23-6.25-.4-.34.01-.68.12-.97.44-1.77-.22-3.58-.8-5.31-.6-3.84.42-4.84-1.62-4.71-5,.36-.82.91-1.28,1.56-1.56.64-.27,1.38-.37,2.11-.48.12.01.23.02.33.02,1.69,0,2.33-1.58,3.31-2.64,1.79-.37,3.59-.74,5.38-1.1,3.33.28,6.23-.96,9-2.67,2.68-.7,5.55-.49,8.08-1.85.62-.37,1.23-.73,1.85-1.1,1.88.21,3.7.04,5.4-.88.2.04.4.06.59.06,1.1,0,2.02-.64,3.01-1.04.58.01,1.15.02,1.73.04.62.01,1.25.02,1.87.03,10.14-3.18,20.28-6.36,30.4-9.6.47-.15.78-.89,1.16-1.35,2.1-.12,3.77-1.01,5.32-2.15,1.54-1.13,2.95-2.51,4.52-3.6,2.53-.38,4.7-1.75,6.97-2.82,2.85-1.35,6.46-1.61,7.6-5.49.25-.33.49-.66.74-.99.54-.64,1.08-1.29,1.62-1.93,1.53-2.35-.82-4.26-.67-6.45,2.42-1.3,2.04-2.66.08-4.07-2.15-1.21-5.02-2.27-5.02-4.55,0-.79.35-1.74,1.21-2.89,1.91-2.56,1.39-4.67,1-7.15.62-.56,1.23-1.12,1.84-1.68.58-.12,1.15-.24,1.73-.36Zm-110.5-149.1c1.06-1.88,1.8-3.6.87-6.04-1.16-3.08,1.77-4.32,3.55-5.92.52-.47,2.06.17,1.49-1.47-.3-.87-1.76-1.93.23-2.34,1.27-.26,2.71-.23,3.54,1.29,1.08,1.99,1.54,4.31,4.83,1.75,1.86-1.45,3.97,1.99,5.95,3.21,1.82,1.12.57,3.31-.16,4.08-4.81,5.12-3.16,11.92-3.94,17.79-.85,6.48-1.48,12.65-4.95,18.28-.92,1.5-1.39,3.4-1.66,5.19-.24,1.63-1.4,1.89-2.41,2.35-.77.35-1.67-.29-1.81-.96-1.39-6.44-4.97-12.14-5.89-18.86,1.56-4.12-.15-7.69-1.58-11.56-.71-1.93.73-4.66,1.94-6.79Zm-248.16,9.41c-2.54,4.98.56,10.67-2.2,15.78-1.84,3.4-2.6,7.43-3.81,11.19-.36,1.13-.99,2.12-2.19,1.76-.89-.26-2.17-.5-2.28-1.89-.49-6-5.7-10.12-5.87-16.29-.17-5.86-1.92-11.59-1.49-17.53.14-1.96-.75-3.6-1.67-5.2-3.58-6.29-2.69-8.36,4.41-10.18,1.72,1.66,2.76.27,3.84-.91,1.12-1.32,2.4-2.46,4.21-1.94,2.3.67.31,1.8.15,2.72-.18,1.03.68.76,1.13,1,3.04,1.66,5.53,3.55,3.56,7.75-.26.55.02,1.56.35,2.2,1.84,3.65,4.04,7.25,1.85,11.54Zm10.37-2.41c-.13-.82.13-1.59.34-2.33-.16.78-.26,1.55-.34,2.33Zm-90.16,183.26s-.05-.02-.08-.04c.03-.06.06-.12.08-.19v.23Zm167.89-58.24c-.14,1.62-.77,3.13-1.02,4.72-1.3,3.94-2.11,8.06-4.32,11.63-.66.45-1.41.53-2.17.52-1.39.16-2.54-.05-3.5-.56.02.02.05.03.07.05,1.31,1.18.85,2.97,1.41,4.4.45,1.68,1.45,3.06,2.29,4.52.44.76.86,1.52.89,2.45.19,1.85-.02,3.65-.75,5.36-.28.87-.67,1.69-1.02,2.52-2.04,2.47-2.08,6-4.2,8.43-4.15,1.07-4.93,5.36-7.26,8.17-1.61,1.94-3.29,3.86-5.46.6-1.47-4.79-2.11-9.8-4.45-14.4-1.7-3.32-.87-6.85,1.86-9.73,4.45-4.69,4.4-4.98,1.33-11.08-2.11-4.19,1.34-5.2,3.74-6.77,4.2-2.65,4.21,2.91,6.67,3.66,1.22.73,2.74.6,4,1.2-.87-.75-1.54-1.83-2-3.22l.05.05c-1.05-1.15-.63-2.41-.27-3.67.34-.95-.01-2,.91-2.93,2.72-2.73,2.74-6.05.86-9.18-1.66-2.76-2.34-4.78,1.26-6.42,1.43-.65,2.25-2.33,3-3.86.93-1.91,2.38-2.03,4.02-.91,1.49,1.52,5.24-1.37,5.33,2.9-1.07,3.76-.12,7.77-1.26,11.54Zm5.46,75.76c-.07.18-.41.25-.64.37-.09-.23-.32-.53-.26-.69.08-.19.42-.26.65-.39.1.25.32.54.25.71Zm1.29-37.99s-.01-.01-.01-.01h.01Zm92.71,1.31c-1.29,3.11-2.81,6.14-2.76,9.65-.19.41-.43.81-.56,1.24-1.4,4.55-1.71,4.66-4.9,1.51-.84-.83-1.65-1.7-2.48-2.55-1.41-1.71-1.91-4.38-4.64-4.7-1.23-1.19-1.69-2.93-2.81-4.19-.19-1.78-1.25-3.12-2.14-4.55-.32-.83-.69-1.64-.93-2.51-.62-1.71-.96-3.45-.77-5.29.04-.9.41-1.69.77-2.49.95-1.61,2.6-2.82,2.67-4.94.23-1.31-.02-2.75,1.03-3.82.8-.87,1.88-1.04,2.92-1.27-.27-.19-.5-.46-.71-.76-1.19,1.73-3.15,2.26-5.39,2.32-.75-.03-1.48-.16-2.13-.57-1.89-1.51-2.18-3.84-2.82-5.98-2.47-6.92-5.46-13.73-4.41-21.44.12-.91.05-1.85.69-2.6,1.35-1.13,3.23-.26,4.59-1.34,1.06-.18,2.07-1.17,3.19-.17,1.91,2.49,3.12,5.55,6.23,7.01,1.66.78.96,2.41.14,3.59-3.13,4.48-2.11,8.65.78,12.71,0,0,0,0,0,0,1.06,1.54,1.97,3.06,0,4.55.31.9.87,1.57,1.73,1.94,0,0,0,0,0,0,0,0,0,0,0,0,1.76-1.62,2.12-5.41,5.91-3.84,5.16,2.13,5.91,5.45,1.52,8.98-2.3,1.85-1.86,3.15-.26,4.78,1.78,1.82,3.08,4.01,5.02,5.78,2.62,2.39,1.78,5.88.51,8.93Zm39.64,56.51s-.02-.01-.03-.02c.01-.01.02-.01.03-.02,0,0,.01.01.01.02s-.01.01-.01.02Zm1.82-154.8c.09-.19.18-.38.27-.57-.05.21-.12.41-.27.57Zm4.1,135.4c-.1-.2-.21-.39-.32-.59.54-.17,1.08-.35,1.62-.53-.43.37-.87.75-1.3,1.12Zm47.46-14.18s-.01-.01-.01-.01c.08,0,.17,0,.25.01h-.24Z"/></svg>